<svg width="459" height="486" viewBox="0 0 459 486" fill="none" xmlns="http://www.w3.org/2000/svg">
<path d="M249.031 437.92H301.557" stroke="#424D76" stroke-width="5" stroke-miterlimit="10" stroke-linecap="round"/>
<path d="M230.818 318.708L323.129 474.15" stroke="#424D76" stroke-width="5" stroke-miterlimit="10" stroke-linecap="round"/>
<path d="M319.77 318.708L227.459 474.15" stroke="#424D76" stroke-width="5" stroke-miterlimit="10" stroke-linecap="round"/>
<path d="M338.894 305.778C338.894 307.103 336.028 308.347 330.992 309.429C320.157 311.758 299.273 313.336 275.295 313.336C251.317 313.336 230.433 311.758 219.605 309.425C214.565 308.344 211.703 307.099 211.703 305.775C211.703 301.603 240.176 298.216 275.302 298.216C310.427 298.216 338.894 301.603 338.894 305.778Z" fill="white" stroke="#FFB000" stroke-width="5" stroke-miterlimit="10"/>
<path d="M338.893 305.778V313.079C338.893 317.251 310.416 320.637 275.294 320.637C240.172 320.637 211.695 317.255 211.695 313.079V305.778C211.695 307.103 214.561 308.347 219.597 309.429C230.432 311.758 251.313 313.336 275.294 313.336C299.276 313.336 320.156 311.758 330.991 309.425C336.027 308.347 338.893 307.103 338.893 305.778Z" fill="#FFD880" stroke="#FFB000" stroke-width="5" stroke-miterlimit="10"/>
<path d="M265.037 420.512C267.849 422.174 273.866 422.358 274.938 426.624C276.009 430.89 270.12 447.779 271.057 453.742C271.995 459.704 271.911 472.436 262.362 473.813C251.796 475.336 243.77 471.598 243.77 467.444C243.77 463.289 249.925 458.574 250.849 451.517C251.773 444.459 254.208 429.231 254.208 429.231L265.037 420.512Z" fill="#FFB000"/>
<path d="M251.561 439.105C251.561 439.105 256.019 435.107 262.856 439.105" stroke="white" stroke-width="4" stroke-linecap="round" stroke-linejoin="round"/>
<path d="M250.553 443.972C250.553 443.972 255.011 439.974 261.848 443.972" stroke="white" stroke-width="4" stroke-linecap="round" stroke-linejoin="round"/>
<path d="M249.545 448.84C249.545 448.84 254.004 444.842 260.841 448.84" stroke="white" stroke-width="4" stroke-linecap="round" stroke-linejoin="round"/>
<path d="M301.07 441.476C299.282 444.181 288.975 450.825 289.516 453.871C290.057 456.916 299.548 465.775 300.216 470.479C300.885 475.183 299.951 482.244 303.962 484.323C307.974 486.402 329.244 486.537 332.721 484.323C336.199 482.108 332.453 475.047 328.707 473.524C324.961 472.001 314.932 454.702 315.51 444.042L301.07 441.476Z" fill="#FFB000"/>
<path d="M319.915 453.968C319.915 453.968 315.456 449.97 308.619 453.968" stroke="white" stroke-width="4" stroke-linecap="round" stroke-linejoin="round"/>
<path d="M321.594 458.835C321.594 458.835 317.136 454.837 310.299 458.835" stroke="white" stroke-width="4" stroke-linecap="round" stroke-linejoin="round"/>
<path d="M323.61 463.703C323.61 463.703 319.152 459.704 312.315 463.703" stroke="white" stroke-width="4" stroke-linecap="round" stroke-linejoin="round"/>
<path d="M237.158 254.435C237.158 254.435 175.591 279.8 175.591 301.623C175.591 340.538 228.093 412.182 238.838 411.107C249.582 410.033 256.815 401.067 256.402 396.363C255.989 391.659 236.58 331.127 222.711 310.597C222.711 310.597 265.084 299.471 270.664 299.263C276.245 299.054 304.97 315.089 305.383 315.728C305.797 316.368 290.533 359.729 299.39 416.239C300.629 424.152 323.774 425.862 326.049 422.657C328.323 419.451 353.934 307.815 350.434 298.835C346.933 289.855 317.508 265.275 299.726 255.478C286.912 248.42 237.158 254.435 237.158 254.435Z" fill="#424D76"/>
<path d="M318.947 434.008C318.564 435.232 316.746 440.993 315.51 444.042C314.327 446.952 299.595 445.965 301.063 441.473C302.316 437.648 302.336 432.433 302.313 430.966C304.725 431.957 311.565 434.443 318.947 434.008Z" fill="#C36F0B"/>
<path d="M319.229 433.991L323.344 423.846C323.344 423.846 309.983 425.563 301.07 419.191L301.406 430.566C301.406 430.566 310.672 434.933 319.229 433.991Z" fill="#6562CF"/>
<path d="M258.962 408.542C258.962 408.542 263.834 418.989 265.037 420.512C266.24 422.035 259.554 429.784 254.205 429.231L245.658 417.31C245.658 417.31 254.827 415.537 258.962 408.542Z" fill="#C36F0B"/>
<path d="M255.858 399.377L259.298 408.542C259.298 408.542 253.96 416.208 244.986 417.658L238.838 411.107C238.838 411.107 250.352 409.672 255.858 399.377Z" fill="#6562CF"/>
<path d="M295.308 123.771C300.744 127.904 315.513 135.132 324.705 141.79C332.12 147.162 338.735 170.647 338.735 170.647C338.735 170.647 328.411 181.543 311.068 185.815C311.068 185.815 301.157 217.453 297.441 254.403C297.441 254.403 265.642 266.572 236.943 254.403C236.943 254.403 225.379 186.671 223.934 186.26C222.489 185.85 201.061 179.046 194.033 168.147C194.033 168.147 202.321 143.438 213.62 138.595C225.896 133.331 242.255 126.117 247.946 122.95C250.849 121.309 295.308 123.771 295.308 123.771Z" fill="#EAEAFF"/>
<path d="M219.328 136.109L195.226 169.757C194.964 169.433 194.712 169.106 194.48 168.773L217.228 137.024L219.328 136.109Z" fill="white"/>
<path d="M231.114 130.922L199.986 174.381C199.674 174.134 199.368 173.887 199.069 173.637L228.97 131.889L231.114 130.922Z" fill="white"/>
<path d="M243.158 125.366L205.405 178.062C205.069 177.861 204.733 177.659 204.397 177.447L240.948 126.423C241.724 126.055 242.45 125.704 243.158 125.366Z" fill="white"/>
<path d="M253.345 122.404L211.235 181.181C210.878 181.011 210.522 180.833 210.163 180.656L251.857 122.446C252.327 122.429 252.821 122.411 253.345 122.404Z" fill="white"/>
<path d="M261.395 122.422L217.383 183.879L216.244 183.423L259.964 122.401L261.395 122.422Z" fill="white"/>
<path d="M269.327 122.627L223.776 186.191C223.544 186.118 223.141 185.989 222.6 185.808L267.896 122.585C268.37 122.595 268.84 122.609 269.327 122.627Z" fill="white"/>
<path d="M277.172 122.915L226.014 194.316C225.903 193.773 225.795 193.252 225.678 192.751L275.754 122.87L277.172 122.915Z" fill="white"/>
<path d="M284.99 123.256L227.764 203.133C227.66 202.594 227.559 202.062 227.458 201.54L283.589 123.19L284.99 123.256Z" fill="white"/>
<path d="M292.781 123.638L229.444 212.047C229.343 211.511 229.242 210.973 229.145 210.441L291.384 123.569L292.781 123.638Z" fill="white"/>
<path d="M298.987 126.239L231.077 221.024C230.983 220.485 230.886 219.946 230.788 219.407L297.982 125.61C298.305 125.815 298.641 126.023 298.987 126.239Z" fill="white"/>
<path d="M304.654 129.58L232.706 230.025C232.609 229.489 232.515 228.95 232.417 228.405L303.626 128.986C303.966 129.187 304.308 129.385 304.654 129.58Z" fill="white"/>
<path d="M310.373 132.855L234.282 239.061C234.191 238.529 234.097 237.986 234 237.437L309.348 132.268L310.373 132.855Z" fill="white"/>
<path d="M316.054 136.182L235.861 248.131C235.77 247.613 235.68 247.088 235.579 246.501L315.039 135.591L316.054 136.182Z" fill="white"/>
<path d="M321.617 139.669L238.865 255.189L237.746 254.727L320.64 139.023L321.617 139.669Z" fill="white"/>
<path d="M326.778 143.748L245.409 257.299C245.006 257.195 244.606 257.08 244.203 256.952L325.945 142.854C326.22 143.139 326.493 143.431 326.778 143.748Z" fill="white"/>
<path d="M330.608 149.634L252.404 258.801C251.974 258.735 251.541 258.662 251.111 258.579L329.98 148.49C330.191 148.862 330.4 149.248 330.608 149.634Z" fill="white"/>
<path d="M310.887 186.392C310.692 187.039 310.346 188.2 309.879 189.817L259.87 259.636C259.409 259.604 258.952 259.573 258.489 259.531L310.887 186.392Z" fill="white"/>
<path d="M333.786 156.451L313.158 185.245C312.566 185.416 311.965 185.593 311.36 185.732L333.245 155.179C333.427 155.61 333.608 156.034 333.786 156.451Z" fill="white"/>
<path d="M306.103 204.336C305.864 205.309 305.629 206.317 305.39 207.35L267.832 259.778C267.345 259.778 266.858 259.799 266.364 259.802L306.103 204.336Z" fill="white"/>
<path d="M336.565 163.832L324.426 180.788C323.707 181.157 322.965 181.522 322.192 181.88L336.095 162.473C336.256 162.939 336.414 163.405 336.565 163.832Z" fill="white"/>
<path d="M302.555 220.544C302.373 221.455 302.192 222.383 302.014 223.325L276.336 259.17C275.815 259.229 275.294 259.288 274.763 259.34L302.555 220.544Z" fill="white"/>
<path d="M299.9 235.518C299.769 236.37 299.635 237.225 299.507 238.087L285.454 257.696C284.906 257.807 284.341 257.922 283.774 258.043L299.9 235.518Z" fill="white"/>
<path d="M348.616 226.786C347.857 241.388 321.093 254.947 306.979 261.101C306.512 264.125 304.594 265.45 300.905 266.434C293.214 268.485 293.937 273.735 293.54 274.736C292.919 276.332 285.333 278.15 283.508 276.822C282.423 276.026 285.487 266.027 287.231 262.512C288.316 260.325 295.586 256.185 300.354 254.401C300.354 254.401 324.544 224.06 327.857 222.35C327.857 222.35 318.91 196.97 315.167 187.837C314.633 186.526 314.203 185.552 313.924 185.034C313.924 185.034 327.363 180.862 336.454 172.762C336.454 172.762 337.277 174.886 338.49 178.38C342.142 188.901 349.386 211.867 348.616 226.786Z" fill="#C36F0B"/>
<path d="M338.487 178.375C336.605 180.444 330.887 184.925 315.163 187.832C314.626 186.525 314.196 185.548 313.917 185.03C313.917 185.03 327.356 180.858 336.451 172.757C336.451 172.757 337.27 174.878 338.487 178.375Z" fill="#B65A18"/>
<path d="M251.806 276.471C249.767 277.402 243.676 275.657 243.118 274.732C242.56 273.808 241.774 268.057 235.757 266.082C231.45 264.667 229.495 263.259 229.568 258.861C217.047 254.436 183.749 241.308 182.24 226.403C181.232 216.46 191.281 188.017 195.477 176.687C196.576 173.728 197.272 171.934 197.272 171.934C206.951 180.278 219.513 184.631 219.513 184.631L218.475 187.576L206.356 221.918C211.873 224.084 231.964 249.617 235.095 253.625C241.623 254.933 248.615 259.63 249.431 262.161C250.288 264.813 253.906 275.508 251.806 276.471Z" fill="#C36F0B"/>
<path d="M197.275 171.926C206.951 180.27 219.516 184.623 219.516 184.623L218.478 187.564C211.843 186.479 200.944 183.827 195.481 176.675C196.576 173.72 197.275 171.926 197.275 171.926Z" fill="#B65A18"/>
<path d="M316.497 286.003H219.217L202.842 219.397C201.942 216.163 203.746 212.784 206.874 211.852C207.408 211.692 207.962 211.612 208.517 211.616H327.212C330.464 211.616 333.101 214.341 333.101 217.71C333.101 218.281 333.024 218.851 332.873 219.397L316.497 286.003Z" fill="white" stroke="#6562CF" stroke-width="7" stroke-miterlimit="10"/>
<path d="M313.548 285.377H222.163L206.779 222.797C205.771 219.136 205.059 214.8 208.738 214.8H326.973C330.652 214.8 329.95 219.143 328.932 222.797L313.548 285.377Z" fill="#6562CF"/>
<path d="M273.419 255.446H262.295C261.526 255.446 260.857 254.907 260.669 254.136L259.342 246.72C259.225 246.296 259.463 245.854 259.873 245.732C259.94 245.711 260.014 245.701 260.085 245.701H275.63C276.057 245.701 276.403 246.059 276.403 246.501C276.403 246.574 276.393 246.647 276.373 246.72L275.039 254.146C274.847 254.907 274.182 255.443 273.419 255.446Z" stroke="white" stroke-width="6" stroke-linejoin="round"/>
<path d="M282.642 103.258C282.642 103.258 282.091 115.774 295.308 123.771C295.308 123.771 282.205 133.644 271.356 146.327C271.356 146.327 259.732 131.617 247.956 122.919C247.956 122.919 259.517 113.514 259.517 103.262L282.642 103.258Z" fill="#B65A18"/>
<path d="M293.89 96.3674C292.563 98.1683 290.167 101.544 289.011 103.967C286.955 115.507 279.94 123.141 271.047 123.141C263.34 123.141 258.133 114.199 255.734 105.887C255.677 105.737 255.63 105.581 255.593 105.424C254.998 103.133 251.776 98.5751 250.157 96.3848C249.659 95.7103 249.787 94.7438 250.439 94.2327C250.493 94.191 250.546 94.1528 250.604 94.118C252.579 92.9464 253.604 93.7981 254.141 94.9107C253.856 86.598 254.188 77.875 258.865 77.8263C264.24 77.7741 282.117 77.4091 285.215 78.4799C287.879 79.3978 289.636 83.2603 289.643 95.606C290.063 94.2153 291.071 92.7099 293.443 94.118C294.152 94.5422 294.397 95.4843 293.984 96.2179C293.957 96.2701 293.923 96.3187 293.89 96.3674Z" fill="#C36F0B"/>
<path d="M297.102 81.2404C293.547 85.8644 289.337 96.5691 289.337 96.5691C289.337 96.5691 290.866 79.9992 284.671 80.18C281.724 80.2634 275.798 84.5363 269.592 83.8409C264.439 83.2638 258.002 76.0254 255.351 80.7571C253.883 84.3833 253.987 90.0746 254.208 95.9293C252.626 88.4371 249.354 83.4516 247.556 80.4755C243.78 78.4486 240.817 74.1097 241.67 69.6978C243.121 62.2334 248.682 62.6506 248.682 62.6506C258.059 63.6554 252.586 57.9988 263.952 52.6552C275.317 47.3115 288.245 52.3701 289.358 58.8089C290.124 63.2243 292.747 61.0131 296.856 62.9809C302.628 65.7692 301.278 75.7924 297.102 81.2404Z" fill="#FFB000"/>
<path d="M263.239 86.2503C279.151 88.3363 280.73 79.3977 287.58 80.479" stroke="#FFB000" stroke-width="3" stroke-miterlimit="10"/>
<g filter="url(#filter0_d_39_102)">
<path fill-rule="evenodd" clip-rule="evenodd" d="M434.751 0.0703125H352.458C343.387 0.0703125 336.018 5.52062 336.018 12.23V46.9529C336.018 53.6706 343.387 59.1126 352.458 59.1126H360.835C363.691 63.3867 364.766 69.0938 355.18 73.0117C355.18 73.0117 380.322 68.34 384.925 59.1126H434.739C443.822 59.1126 451.18 53.6623 451.18 46.9529V12.23C451.191 5.52062 443.822 0.0703125 434.751 0.0703125Z" fill="#FEFEFE"/>
</g>
<g filter="url(#filter1_d_39_102)">
<path fill-rule="evenodd" clip-rule="evenodd" d="M28.7745 109H137.315C149.28 109 159 114.988 159 122.359V160.505C159 167.885 149.28 173.863 137.315 173.863H126.266C122.5 178.559 121.082 184.829 133.726 189.133C133.726 189.133 100.564 184.001 94.4929 173.863H28.7893C16.8096 173.863 7.10476 167.876 7.10476 160.505V122.359C7.08999 114.988 16.8096 109 28.7745 109Z" fill="#FEFEFE"/>
</g>
<path d="M356.164 27.632C356.644 27.784 357.02 28.04 357.292 28.4C357.564 28.752 357.7 29.188 357.7 29.708C357.7 30.444 357.412 31.012 356.836 31.412C356.268 31.804 355.436 32 354.34 32H349.996V23.6H354.1C355.124 23.6 355.908 23.796 356.452 24.188C357.004 24.58 357.28 25.112 357.28 25.784C357.28 26.192 357.18 26.556 356.98 26.876C356.788 27.196 356.516 27.448 356.164 27.632ZM351.928 25.064V27.044H353.86C354.34 27.044 354.704 26.96 354.952 26.792C355.2 26.624 355.324 26.376 355.324 26.048C355.324 25.72 355.2 25.476 354.952 25.316C354.704 25.148 354.34 25.064 353.86 25.064H351.928ZM354.196 30.536C354.708 30.536 355.092 30.452 355.348 30.284C355.612 30.116 355.744 29.856 355.744 29.504C355.744 28.808 355.228 28.46 354.196 28.46H351.928V30.536H354.196ZM359.04 25.544H360.912V32H359.04V25.544ZM359.976 24.644C359.632 24.644 359.352 24.544 359.136 24.344C358.92 24.144 358.812 23.896 358.812 23.6C358.812 23.304 358.92 23.056 359.136 22.856C359.352 22.656 359.632 22.556 359.976 22.556C360.32 22.556 360.6 22.652 360.816 22.844C361.032 23.036 361.14 23.276 361.14 23.564C361.14 23.876 361.032 24.136 360.816 24.344C360.6 24.544 360.32 24.644 359.976 24.644ZM364.821 32.096C364.285 32.096 363.761 32.032 363.249 31.904C362.737 31.768 362.329 31.6 362.025 31.4L362.649 30.056C362.937 30.24 363.285 30.392 363.693 30.512C364.101 30.624 364.501 30.68 364.893 30.68C365.685 30.68 366.081 30.484 366.081 30.092C366.081 29.908 365.973 29.776 365.757 29.696C365.541 29.616 365.209 29.548 364.761 29.492C364.233 29.412 363.797 29.32 363.453 29.216C363.109 29.112 362.809 28.928 362.553 28.664C362.305 28.4 362.181 28.024 362.181 27.536C362.181 27.128 362.297 26.768 362.529 26.456C362.769 26.136 363.113 25.888 363.561 25.712C364.017 25.536 364.553 25.448 365.169 25.448C365.625 25.448 366.077 25.5 366.525 25.604C366.981 25.7 367.357 25.836 367.653 26.012L367.029 27.344C366.461 27.024 365.841 26.864 365.169 26.864C364.769 26.864 364.469 26.92 364.269 27.032C364.069 27.144 363.969 27.288 363.969 27.464C363.969 27.664 364.077 27.804 364.293 27.884C364.509 27.964 364.853 28.04 365.325 28.112C365.853 28.2 366.285 28.296 366.621 28.4C366.957 28.496 367.249 28.676 367.497 28.94C367.745 29.204 367.869 29.572 367.869 30.044C367.869 30.444 367.749 30.8 367.509 31.112C367.269 31.424 366.917 31.668 366.453 31.844C365.997 32.012 365.453 32.096 364.821 32.096ZM371.628 25.448C372.628 25.448 373.396 25.688 373.932 26.168C374.468 26.64 374.736 27.356 374.736 28.316V32H372.984V31.196C372.632 31.796 371.976 32.096 371.016 32.096C370.52 32.096 370.088 32.012 369.72 31.844C369.36 31.676 369.084 31.444 368.892 31.148C368.7 30.852 368.604 30.516 368.604 30.14C368.604 29.54 368.828 29.068 369.276 28.724C369.732 28.38 370.432 28.208 371.376 28.208H372.864C372.864 27.8 372.74 27.488 372.492 27.272C372.244 27.048 371.872 26.936 371.376 26.936C371.032 26.936 370.692 26.992 370.356 27.104C370.028 27.208 369.748 27.352 369.516 27.536L368.844 26.228C369.196 25.98 369.616 25.788 370.104 25.652C370.6 25.516 371.108 25.448 371.628 25.448ZM371.484 30.836C371.804 30.836 372.088 30.764 372.336 30.62C372.584 30.468 372.76 30.248 372.864 29.96V29.3H371.58C370.812 29.3 370.428 29.552 370.428 30.056C370.428 30.296 370.52 30.488 370.704 30.632C370.896 30.768 371.156 30.836 371.484 30.836ZM383.753 25.448C384.553 25.448 385.197 25.688 385.685 26.168C386.181 26.648 386.429 27.36 386.429 28.304V32H384.557V28.592C384.557 28.08 384.445 27.7 384.221 27.452C383.997 27.196 383.673 27.068 383.249 27.068C382.777 27.068 382.401 27.216 382.121 27.512C381.841 27.8 381.701 28.232 381.701 28.808V32H379.829V25.544H381.617V26.3C381.865 26.028 382.173 25.82 382.541 25.676C382.909 25.524 383.313 25.448 383.753 25.448ZM394.856 25.544V30.92C394.856 32.104 394.548 32.984 393.932 33.56C393.316 34.136 392.416 34.424 391.232 34.424C390.608 34.424 390.016 34.348 389.456 34.196C388.896 34.044 388.432 33.824 388.064 33.536L388.808 32.192C389.08 32.416 389.424 32.592 389.84 32.72C390.256 32.856 390.672 32.924 391.088 32.924C391.736 32.924 392.212 32.776 392.516 32.48C392.828 32.192 392.984 31.752 392.984 31.16V30.884C392.496 31.42 391.816 31.688 390.944 31.688C390.352 31.688 389.808 31.56 389.312 31.304C388.824 31.04 388.436 30.672 388.148 30.2C387.86 29.728 387.716 29.184 387.716 28.568C387.716 27.952 387.86 27.408 388.148 26.936C388.436 26.464 388.824 26.1 389.312 25.844C389.808 25.58 390.352 25.448 390.944 25.448C391.88 25.448 392.592 25.756 393.08 26.372V25.544H394.856ZM391.316 30.152C391.812 30.152 392.216 30.008 392.528 29.72C392.848 29.424 393.008 29.04 393.008 28.568C393.008 28.096 392.848 27.716 392.528 27.428C392.216 27.132 391.812 26.984 391.316 26.984C390.82 26.984 390.412 27.132 390.092 27.428C389.772 27.716 389.612 28.096 389.612 28.568C389.612 29.04 389.772 29.424 390.092 29.72C390.412 30.008 390.82 30.152 391.316 30.152ZM403.258 25.544V30.92C403.258 32.104 402.95 32.984 402.334 33.56C401.718 34.136 400.818 34.424 399.634 34.424C399.01 34.424 398.418 34.348 397.858 34.196C397.298 34.044 396.834 33.824 396.466 33.536L397.21 32.192C397.482 32.416 397.826 32.592 398.242 32.72C398.658 32.856 399.074 32.924 399.49 32.924C400.138 32.924 400.614 32.776 400.918 32.48C401.23 32.192 401.386 31.752 401.386 31.16V30.884C400.898 31.42 400.218 31.688 399.346 31.688C398.754 31.688 398.21 31.56 397.714 31.304C397.226 31.04 396.838 30.672 396.55 30.2C396.262 29.728 396.118 29.184 396.118 28.568C396.118 27.952 396.262 27.408 396.55 26.936C396.838 26.464 397.226 26.1 397.714 25.844C398.21 25.58 398.754 25.448 399.346 25.448C400.282 25.448 400.994 25.756 401.482 26.372V25.544H403.258ZM399.718 30.152C400.214 30.152 400.618 30.008 400.93 29.72C401.25 29.424 401.41 29.04 401.41 28.568C401.41 28.096 401.25 27.716 400.93 27.428C400.618 27.132 400.214 26.984 399.718 26.984C399.222 26.984 398.814 27.132 398.494 27.428C398.174 27.716 398.014 28.096 398.014 28.568C398.014 29.04 398.174 29.424 398.494 29.72C398.814 30.008 399.222 30.152 399.718 30.152ZM407.605 25.448C408.605 25.448 409.373 25.688 409.909 26.168C410.445 26.64 410.713 27.356 410.713 28.316V32H408.961V31.196C408.609 31.796 407.953 32.096 406.993 32.096C406.497 32.096 406.065 32.012 405.697 31.844C405.337 31.676 405.061 31.444 404.869 31.148C404.677 30.852 404.581 30.516 404.581 30.14C404.581 29.54 404.805 29.068 405.253 28.724C405.709 28.38 406.409 28.208 407.353 28.208H408.841C408.841 27.8 408.717 27.488 408.469 27.272C408.221 27.048 407.849 26.936 407.353 26.936C407.009 26.936 406.669 26.992 406.333 27.104C406.005 27.208 405.725 27.352 405.493 27.536L404.821 26.228C405.173 25.98 405.593 25.788 406.081 25.652C406.577 25.516 407.085 25.448 407.605 25.448ZM407.461 30.836C407.781 30.836 408.065 30.764 408.313 30.62C408.561 30.468 408.737 30.248 408.841 29.96V29.3H407.557C406.789 29.3 406.405 29.552 406.405 30.056C406.405 30.296 406.497 30.488 406.681 30.632C406.873 30.768 407.133 30.836 407.461 30.836ZM422.213 25.544L419.297 32.396C419.001 33.14 418.633 33.664 418.193 33.968C417.761 34.272 417.237 34.424 416.621 34.424C416.285 34.424 415.953 34.372 415.625 34.268C415.297 34.164 415.029 34.02 414.821 33.836L415.505 32.504C415.649 32.632 415.813 32.732 415.997 32.804C416.189 32.876 416.377 32.912 416.561 32.912C416.817 32.912 417.025 32.848 417.185 32.72C417.345 32.6 417.489 32.396 417.617 32.108L417.641 32.048L414.845 25.544H416.777L418.589 29.924L420.413 25.544H422.213ZM425.37 25.448C426.37 25.448 427.138 25.688 427.674 26.168C428.21 26.64 428.478 27.356 428.478 28.316V32H426.726V31.196C426.374 31.796 425.718 32.096 424.758 32.096C424.262 32.096 423.83 32.012 423.462 31.844C423.102 31.676 422.826 31.444 422.634 31.148C422.442 30.852 422.346 30.516 422.346 30.14C422.346 29.54 422.57 29.068 423.018 28.724C423.474 28.38 424.174 28.208 425.118 28.208H426.606C426.606 27.8 426.482 27.488 426.234 27.272C425.986 27.048 425.614 26.936 425.118 26.936C424.774 26.936 424.434 26.992 424.098 27.104C423.77 27.208 423.49 27.352 423.258 27.536L422.586 26.228C422.938 25.98 423.358 25.788 423.846 25.652C424.342 25.516 424.85 25.448 425.37 25.448ZM425.226 30.836C425.546 30.836 425.83 30.764 426.078 30.62C426.326 30.468 426.502 30.248 426.606 29.96V29.3H425.322C424.554 29.3 424.17 29.552 424.17 30.056C424.17 30.296 424.262 30.488 424.446 30.632C424.638 30.768 424.898 30.836 425.226 30.836ZM435.311 29.084C435.311 28.668 435.403 28.324 435.587 28.052C435.779 27.78 436.055 27.48 436.415 27.152C436.679 26.912 436.871 26.712 436.991 26.552C437.119 26.384 437.183 26.196 437.183 25.988C437.183 25.692 437.063 25.46 436.823 25.292C436.591 25.116 436.279 25.028 435.887 25.028C435.511 25.028 435.175 25.108 434.879 25.268C434.591 25.42 434.347 25.636 434.147 25.916L432.695 25.064C433.031 24.552 433.483 24.156 434.051 23.876C434.627 23.596 435.307 23.456 436.091 23.456C437.011 23.456 437.747 23.652 438.299 24.044C438.859 24.436 439.139 24.98 439.139 25.676C439.139 26.004 439.083 26.292 438.971 26.54C438.867 26.788 438.735 27 438.575 27.176C438.423 27.344 438.223 27.54 437.975 27.764C437.679 28.028 437.463 28.252 437.327 28.436C437.191 28.612 437.123 28.828 437.123 29.084H435.311ZM436.223 32.096C435.895 32.096 435.619 31.992 435.395 31.784C435.179 31.568 435.071 31.308 435.071 31.004C435.071 30.7 435.179 30.448 435.395 30.248C435.611 30.04 435.887 29.936 436.223 29.936C436.559 29.936 436.835 30.04 437.051 30.248C437.267 30.448 437.375 30.7 437.375 31.004C437.375 31.308 437.263 31.568 437.039 31.784C436.823 31.992 436.551 32.096 436.223 32.096Z" fill="black"/>
<path d="M35.5 144.44V146H28.996V137.6H35.344V139.16H30.928V140.984H34.828V142.496H30.928V144.44H35.5ZM45.1828 139.448C45.9908 139.448 46.6308 139.688 47.1028 140.168C47.5828 140.64 47.8228 141.352 47.8228 142.304V146H45.9508V142.592C45.9508 142.08 45.8428 141.7 45.6268 141.452C45.4188 141.196 45.1188 141.068 44.7268 141.068C44.2868 141.068 43.9388 141.212 43.6828 141.5C43.4268 141.78 43.2988 142.2 43.2988 142.76V146H41.4268V142.592C41.4268 141.576 41.0188 141.068 40.2028 141.068C39.7708 141.068 39.4268 141.212 39.1708 141.5C38.9148 141.78 38.7868 142.2 38.7868 142.76V146H36.9148V139.544H38.7028V140.288C38.9428 140.016 39.2348 139.808 39.5788 139.664C39.9308 139.52 40.3148 139.448 40.7308 139.448C41.1868 139.448 41.5988 139.54 41.9668 139.724C42.3348 139.9 42.6308 140.16 42.8548 140.504C43.1188 140.168 43.4508 139.908 43.8508 139.724C44.2588 139.54 44.7028 139.448 45.1828 139.448ZM52.1047 139.448C53.1047 139.448 53.8727 139.688 54.4087 140.168C54.9447 140.64 55.2127 141.356 55.2127 142.316V146H53.4607V145.196C53.1087 145.796 52.4527 146.096 51.4927 146.096C50.9967 146.096 50.5647 146.012 50.1967 145.844C49.8367 145.676 49.5607 145.444 49.3687 145.148C49.1767 144.852 49.0807 144.516 49.0807 144.14C49.0807 143.54 49.3047 143.068 49.7527 142.724C50.2087 142.38 50.9087 142.208 51.8527 142.208H53.3407C53.3407 141.8 53.2167 141.488 52.9687 141.272C52.7207 141.048 52.3487 140.936 51.8527 140.936C51.5087 140.936 51.1687 140.992 50.8327 141.104C50.5047 141.208 50.2247 141.352 49.9927 141.536L49.3207 140.228C49.6727 139.98 50.0927 139.788 50.5807 139.652C51.0767 139.516 51.5847 139.448 52.1047 139.448ZM51.9607 144.836C52.2807 144.836 52.5647 144.764 52.8127 144.62C53.0607 144.468 53.2367 144.248 53.3407 143.96V143.3H52.0567C51.2887 143.3 50.9047 143.552 50.9047 144.056C50.9047 144.296 50.9967 144.488 51.1807 144.632C51.3727 144.768 51.6327 144.836 51.9607 144.836ZM60.831 139.448C61.631 139.448 62.275 139.688 62.763 140.168C63.259 140.648 63.507 141.36 63.507 142.304V146H61.635V142.592C61.635 142.08 61.523 141.7 61.299 141.452C61.075 141.196 60.751 141.068 60.327 141.068C59.855 141.068 59.479 141.216 59.199 141.512C58.919 141.8 58.779 142.232 58.779 142.808V146H56.907V139.544H58.695V140.3C58.943 140.028 59.251 139.82 59.619 139.676C59.987 139.524 60.391 139.448 60.831 139.448ZM71.9342 139.544V144.92C71.9342 146.104 71.6262 146.984 71.0102 147.56C70.3942 148.136 69.4942 148.424 68.3102 148.424C67.6862 148.424 67.0942 148.348 66.5342 148.196C65.9742 148.044 65.5102 147.824 65.1422 147.536L65.8862 146.192C66.1582 146.416 66.5022 146.592 66.9182 146.72C67.3342 146.856 67.7502 146.924 68.1662 146.924C68.8142 146.924 69.2902 146.776 69.5942 146.48C69.9062 146.192 70.0622 145.752 70.0622 145.16V144.884C69.5742 145.42 68.8942 145.688 68.0222 145.688C67.4302 145.688 66.8862 145.56 66.3902 145.304C65.9022 145.04 65.5142 144.672 65.2262 144.2C64.9382 143.728 64.7942 143.184 64.7942 142.568C64.7942 141.952 64.9382 141.408 65.2262 140.936C65.5142 140.464 65.9022 140.1 66.3902 139.844C66.8862 139.58 67.4302 139.448 68.0222 139.448C68.9582 139.448 69.6702 139.756 70.1582 140.372V139.544H71.9342ZM68.3942 144.152C68.8902 144.152 69.2942 144.008 69.6062 143.72C69.9262 143.424 70.0862 143.04 70.0862 142.568C70.0862 142.096 69.9262 141.716 69.6062 141.428C69.2942 141.132 68.8902 140.984 68.3942 140.984C67.8982 140.984 67.4902 141.132 67.1702 141.428C66.8502 141.716 66.6902 142.096 66.6902 142.568C66.6902 143.04 66.8502 143.424 67.1702 143.72C67.4902 144.008 67.8982 144.152 68.3942 144.152ZM79.2469 146.096C78.7109 146.096 78.1869 146.032 77.6749 145.904C77.1629 145.768 76.7549 145.6 76.4509 145.4L77.0749 144.056C77.3629 144.24 77.7109 144.392 78.1189 144.512C78.5269 144.624 78.9269 144.68 79.3189 144.68C80.1109 144.68 80.5069 144.484 80.5069 144.092C80.5069 143.908 80.3989 143.776 80.1829 143.696C79.9669 143.616 79.6349 143.548 79.1869 143.492C78.6589 143.412 78.2229 143.32 77.8789 143.216C77.5349 143.112 77.2349 142.928 76.9789 142.664C76.7309 142.4 76.6069 142.024 76.6069 141.536C76.6069 141.128 76.7229 140.768 76.9549 140.456C77.1949 140.136 77.5389 139.888 77.9869 139.712C78.4429 139.536 78.9789 139.448 79.5949 139.448C80.0509 139.448 80.5029 139.5 80.9509 139.604C81.4069 139.7 81.7829 139.836 82.0789 140.012L81.4549 141.344C80.8869 141.024 80.2669 140.864 79.5949 140.864C79.1949 140.864 78.8949 140.92 78.6949 141.032C78.4949 141.144 78.3949 141.288 78.3949 141.464C78.3949 141.664 78.5029 141.804 78.7189 141.884C78.9349 141.964 79.2789 142.04 79.7509 142.112C80.2789 142.2 80.7109 142.296 81.0469 142.4C81.3829 142.496 81.6749 142.676 81.9229 142.94C82.1709 143.204 82.2949 143.572 82.2949 144.044C82.2949 144.444 82.1749 144.8 81.9349 145.112C81.6949 145.424 81.3429 145.668 80.8789 145.844C80.4229 146.012 79.8789 146.096 79.2469 146.096ZM86.0539 139.448C87.0539 139.448 87.8219 139.688 88.3579 140.168C88.8939 140.64 89.1619 141.356 89.1619 142.316V146H87.4099V145.196C87.0579 145.796 86.4019 146.096 85.4419 146.096C84.9459 146.096 84.5139 146.012 84.1459 145.844C83.7859 145.676 83.5099 145.444 83.3179 145.148C83.1259 144.852 83.0299 144.516 83.0299 144.14C83.0299 143.54 83.2539 143.068 83.7019 142.724C84.1579 142.38 84.8579 142.208 85.8019 142.208H87.2899C87.2899 141.8 87.1659 141.488 86.9179 141.272C86.6699 141.048 86.2979 140.936 85.8019 140.936C85.4579 140.936 85.1179 140.992 84.7819 141.104C84.4539 141.208 84.1739 141.352 83.9419 141.536L83.2699 140.228C83.6219 139.98 84.0419 139.788 84.5299 139.652C85.0259 139.516 85.5339 139.448 86.0539 139.448ZM85.9099 144.836C86.2299 144.836 86.5139 144.764 86.7619 144.62C87.0099 144.468 87.1859 144.248 87.2899 143.96V143.3H86.0059C85.2379 143.3 84.8539 143.552 84.8539 144.056C84.8539 144.296 84.9459 144.488 85.1299 144.632C85.3219 144.768 85.5819 144.836 85.9099 144.836ZM94.7802 139.448C95.5802 139.448 96.2242 139.688 96.7122 140.168C97.2082 140.648 97.4562 141.36 97.4562 142.304V146H95.5842V142.592C95.5842 142.08 95.4722 141.7 95.2482 141.452C95.0242 141.196 94.7002 141.068 94.2762 141.068C93.8042 141.068 93.4282 141.216 93.1482 141.512C92.8682 141.8 92.7282 142.232 92.7282 142.808V146H90.8562V139.544H92.6442V140.3C92.8922 140.028 93.2002 139.82 93.5682 139.676C93.9362 139.524 94.3402 139.448 94.7802 139.448ZM105.883 139.544V144.92C105.883 146.104 105.575 146.984 104.959 147.56C104.343 148.136 103.443 148.424 102.259 148.424C101.635 148.424 101.043 148.348 100.483 148.196C99.9234 148.044 99.4594 147.824 99.0914 147.536L99.8354 146.192C100.107 146.416 100.451 146.592 100.867 146.72C101.283 146.856 101.699 146.924 102.115 146.924C102.763 146.924 103.239 146.776 103.543 146.48C103.855 146.192 104.011 145.752 104.011 145.16V144.884C103.523 145.42 102.843 145.688 101.971 145.688C101.379 145.688 100.835 145.56 100.339 145.304C99.8514 145.04 99.4634 144.672 99.1754 144.2C98.8874 143.728 98.7434 143.184 98.7434 142.568C98.7434 141.952 98.8874 141.408 99.1754 140.936C99.4634 140.464 99.8514 140.1 100.339 139.844C100.835 139.58 101.379 139.448 101.971 139.448C102.907 139.448 103.619 139.756 104.107 140.372V139.544H105.883ZM102.343 144.152C102.839 144.152 103.243 144.008 103.555 143.72C103.875 143.424 104.035 143.04 104.035 142.568C104.035 142.096 103.875 141.716 103.555 141.428C103.243 141.132 102.839 140.984 102.343 140.984C101.847 140.984 101.439 141.132 101.119 141.428C100.799 141.716 100.639 142.096 100.639 142.568C100.639 143.04 100.799 143.424 101.119 143.72C101.439 144.008 101.847 144.152 102.343 144.152ZM114.286 139.544V144.92C114.286 146.104 113.978 146.984 113.362 147.56C112.746 148.136 111.846 148.424 110.662 148.424C110.038 148.424 109.446 148.348 108.886 148.196C108.326 148.044 107.862 147.824 107.494 147.536L108.238 146.192C108.51 146.416 108.854 146.592 109.27 146.72C109.686 146.856 110.102 146.924 110.518 146.924C111.166 146.924 111.642 146.776 111.946 146.48C112.258 146.192 112.414 145.752 112.414 145.16V144.884C111.926 145.42 111.246 145.688 110.374 145.688C109.782 145.688 109.238 145.56 108.742 145.304C108.254 145.04 107.866 144.672 107.578 144.2C107.29 143.728 107.146 143.184 107.146 142.568C107.146 141.952 107.29 141.408 107.578 140.936C107.866 140.464 108.254 140.1 108.742 139.844C109.238 139.58 109.782 139.448 110.374 139.448C111.31 139.448 112.022 139.756 112.51 140.372V139.544H114.286ZM110.746 144.152C111.242 144.152 111.646 144.008 111.958 143.72C112.278 143.424 112.438 143.04 112.438 142.568C112.438 142.096 112.278 141.716 111.958 141.428C111.646 141.132 111.242 140.984 110.746 140.984C110.25 140.984 109.842 141.132 109.522 141.428C109.202 141.716 109.042 142.096 109.042 142.568C109.042 143.04 109.202 143.424 109.522 143.72C109.842 144.008 110.25 144.152 110.746 144.152ZM122.532 139.544V146H120.756V145.232C120.508 145.512 120.212 145.728 119.868 145.88C119.524 146.024 119.152 146.096 118.752 146.096C117.904 146.096 117.232 145.852 116.736 145.364C116.24 144.876 115.992 144.152 115.992 143.192V139.544H117.864V142.916C117.864 143.956 118.3 144.476 119.172 144.476C119.62 144.476 119.98 144.332 120.252 144.044C120.524 143.748 120.66 143.312 120.66 142.736V139.544H122.532ZM128.082 139.448C128.682 139.448 129.226 139.588 129.714 139.868C130.21 140.14 130.598 140.528 130.878 141.032C131.158 141.528 131.298 142.108 131.298 142.772C131.298 143.436 131.158 144.02 130.878 144.524C130.598 145.02 130.21 145.408 129.714 145.688C129.226 145.96 128.682 146.096 128.082 146.096C127.258 146.096 126.61 145.836 126.138 145.316V148.328H124.266V139.544H126.054V140.288C126.518 139.728 127.194 139.448 128.082 139.448ZM127.758 144.56C128.238 144.56 128.63 144.4 128.934 144.08C129.246 143.752 129.402 143.316 129.402 142.772C129.402 142.228 129.246 141.796 128.934 141.476C128.63 141.148 128.238 140.984 127.758 140.984C127.278 140.984 126.882 141.148 126.57 141.476C126.266 141.796 126.114 142.228 126.114 142.772C126.114 143.316 126.266 143.752 126.57 144.08C126.882 144.4 127.278 144.56 127.758 144.56ZM137.69 143.084C137.69 142.668 137.782 142.324 137.966 142.052C138.158 141.78 138.434 141.48 138.794 141.152C139.058 140.912 139.25 140.712 139.37 140.552C139.498 140.384 139.562 140.196 139.562 139.988C139.562 139.692 139.442 139.46 139.202 139.292C138.97 139.116 138.658 139.028 138.266 139.028C137.89 139.028 137.554 139.108 137.258 139.268C136.97 139.42 136.726 139.636 136.526 139.916L135.074 139.064C135.41 138.552 135.862 138.156 136.43 137.876C137.006 137.596 137.686 137.456 138.47 137.456C139.39 137.456 140.126 137.652 140.678 138.044C141.238 138.436 141.518 138.98 141.518 139.676C141.518 140.004 141.462 140.292 141.35 140.54C141.246 140.788 141.114 141 140.954 141.176C140.802 141.344 140.602 141.54 140.354 141.764C140.058 142.028 139.842 142.252 139.706 142.436C139.57 142.612 139.502 142.828 139.502 143.084H137.69ZM138.602 146.096C138.274 146.096 137.998 145.992 137.774 145.784C137.558 145.568 137.45 145.308 137.45 145.004C137.45 144.7 137.558 144.448 137.774 144.248C137.99 144.04 138.266 143.936 138.602 143.936C138.938 143.936 139.214 144.04 139.43 144.248C139.646 144.448 139.754 144.7 139.754 145.004C139.754 145.308 139.642 145.568 139.418 145.784C139.202 145.992 138.93 146.096 138.602 146.096Z" fill="black"/>
<defs>
<filter id="filter0_d_39_102" x="329.018" y="0.0703125" width="129.162" height="86.9414" filterUnits="userSpaceOnUse" color-interpolation-filters="sRGB">
<feFlood flood-opacity="0" result="BackgroundImageFix"/>
<feColorMatrix in="SourceAlpha" type="matrix" values="0 0 0 0 0 0 0 0 0 0 0 0 0 0 0 0 0 0 127 0" result="hardAlpha"/>
<feOffset dy="7"/>
<feGaussianBlur stdDeviation="3.5"/>
<feComposite in2="hardAlpha" operator="out"/>
<feColorMatrix type="matrix" values="0 0 0 0 0 0 0 0 0 0 0 0 0 0 0 0 0 0 0.25 0"/>
<feBlend mode="normal" in2="BackgroundImageFix" result="effect1_dropShadow_39_102"/>
<feBlend mode="normal" in="SourceGraphic" in2="effect1_dropShadow_39_102" result="shape"/>
</filter>
<filter id="filter1_d_39_102" x="0.104736" y="109" width="165.895" height="94.1328" filterUnits="userSpaceOnUse" color-interpolation-filters="sRGB">
<feFlood flood-opacity="0" result="BackgroundImageFix"/>
<feColorMatrix in="SourceAlpha" type="matrix" values="0 0 0 0 0 0 0 0 0 0 0 0 0 0 0 0 0 0 127 0" result="hardAlpha"/>
<feOffset dy="7"/>
<feGaussianBlur stdDeviation="3.5"/>
<feComposite in2="hardAlpha" operator="out"/>
<feColorMatrix type="matrix" values="0 0 0 0 0 0 0 0 0 0 0 0 0 0 0 0 0 0 0.25 0"/>
<feBlend mode="normal" in2="BackgroundImageFix" result="effect1_dropShadow_39_102"/>
<feBlend mode="normal" in="SourceGraphic" in2="effect1_dropShadow_39_102" result="shape"/>
</filter>
</defs>
</svg>
