<svg width="120" height="163" viewBox="0 0 120 163" fill="none" xmlns="http://www.w3.org/2000/svg">
<path d="M16.6327 149.264C17.5607 149.568 18.2967 150.08 18.8407 150.8C19.3847 151.504 19.6567 152.384 19.6567 153.44C19.6567 154.896 19.0967 156.024 17.9767 156.824C16.8567 157.608 15.2247 158 13.0807 158H4.72866V141.2H12.6007C14.5847 141.2 16.1127 141.592 17.1847 142.376C18.2567 143.144 18.7927 144.208 18.7927 145.568C18.7927 146.4 18.6007 147.136 18.2167 147.776C17.8327 148.416 17.3047 148.912 16.6327 149.264ZM7.84866 143.648V148.28H12.2647C13.3527 148.28 14.1847 148.088 14.7607 147.704C15.3527 147.304 15.6487 146.728 15.6487 145.976C15.6487 145.208 15.3527 144.632 14.7607 144.248C14.1847 143.848 13.3527 143.648 12.2647 143.648H7.84866ZM12.8887 155.552C15.3047 155.552 16.5127 154.744 16.5127 153.128C16.5127 151.512 15.3047 150.704 12.8887 150.704H7.84866V155.552H12.8887ZM34.7465 151.664C34.7465 151.872 34.7305 152.168 34.6985 152.552H24.6425C24.8185 153.496 25.2745 154.248 26.0105 154.808C26.7625 155.352 27.6905 155.624 28.7945 155.624C30.2025 155.624 31.3625 155.16 32.2745 154.232L33.8825 156.08C33.3065 156.768 32.5785 157.288 31.6985 157.64C30.8185 157.992 29.8265 158.168 28.7225 158.168C27.3145 158.168 26.0745 157.888 25.0025 157.328C23.9305 156.768 23.0985 155.992 22.5065 155C21.9305 153.992 21.6425 152.856 21.6425 151.592C21.6425 150.344 21.9225 149.224 22.4825 148.232C23.0585 147.224 23.8505 146.44 24.8585 145.88C25.8665 145.32 27.0025 145.04 28.2665 145.04C29.5145 145.04 30.6265 145.32 31.6025 145.88C32.5945 146.424 33.3625 147.2 33.9065 148.208C34.4665 149.2 34.7465 150.352 34.7465 151.664ZM28.2665 147.44C27.3065 147.44 26.4905 147.728 25.8185 148.304C25.1625 148.864 24.7625 149.616 24.6185 150.56H31.8905C31.7625 149.632 31.3705 148.88 30.7145 148.304C30.0585 147.728 29.2425 147.44 28.2665 147.44ZM42.1726 145.04C44.0606 145.04 45.5006 145.496 46.4926 146.408C47.5006 147.304 48.0046 148.664 48.0046 150.488V158H45.1726V156.44C44.8046 157 44.2766 157.432 43.5886 157.736C42.9166 158.024 42.1006 158.168 41.1406 158.168C40.1806 158.168 39.3406 158.008 38.6206 157.688C37.9006 157.352 37.3406 156.896 36.9406 156.32C36.5566 155.728 36.3646 155.064 36.3646 154.328C36.3646 153.176 36.7886 152.256 37.6366 151.568C38.5006 150.864 39.8526 150.512 41.6926 150.512H45.0046V150.32C45.0046 149.424 44.7326 148.736 44.1886 148.256C43.6606 147.776 42.8686 147.536 41.8126 147.536C41.0926 147.536 40.3806 147.648 39.6766 147.872C38.9886 148.096 38.4046 148.408 37.9246 148.808L36.7486 146.624C37.4206 146.112 38.2286 145.72 39.1726 145.448C40.1166 145.176 41.1166 145.04 42.1726 145.04ZM41.7646 155.984C42.5166 155.984 43.1806 155.816 43.7566 155.48C44.3486 155.128 44.7646 154.632 45.0046 153.992V152.504H41.9086C40.1806 152.504 39.3166 153.072 39.3166 154.208C39.3166 154.752 39.5326 155.184 39.9646 155.504C40.3966 155.824 40.9966 155.984 41.7646 155.984ZM55.8147 158.168C54.7747 158.168 53.7587 158.032 52.7667 157.76C51.7747 157.488 50.9827 157.144 50.3907 156.728L51.5427 154.448C52.1187 154.832 52.8067 155.144 53.6067 155.384C54.4227 155.608 55.2227 155.72 56.0067 155.72C57.7987 155.72 58.6947 155.248 58.6947 154.304C58.6947 153.856 58.4627 153.544 57.9987 153.368C57.5507 153.192 56.8227 153.024 55.8147 152.864C54.7587 152.704 53.8947 152.52 53.2227 152.312C52.5667 152.104 51.9907 151.744 51.4947 151.232C51.0147 150.704 50.7747 149.976 50.7747 149.048C50.7747 147.832 51.2787 146.864 52.2867 146.144C53.3107 145.408 54.6867 145.04 56.4147 145.04C57.2947 145.04 58.1747 145.144 59.0547 145.352C59.9347 145.544 60.6547 145.808 61.2147 146.144L60.0627 148.424C58.9747 147.784 57.7507 147.464 56.3907 147.464C55.5107 147.464 54.8387 147.6 54.3747 147.872C53.9267 148.128 53.7027 148.472 53.7027 148.904C53.7027 149.384 53.9427 149.728 54.4227 149.936C54.9187 150.128 55.6787 150.312 56.7027 150.488C57.7267 150.648 58.5667 150.832 59.2227 151.04C59.8787 151.248 60.4387 151.6 60.9027 152.096C61.3827 152.592 61.6227 153.296 61.6227 154.208C61.6227 155.408 61.1027 156.368 60.0627 157.088C59.0227 157.808 57.6067 158.168 55.8147 158.168ZM64.2063 145.184H67.2063V158H64.2063V145.184ZM65.7183 143.072C65.1743 143.072 64.7183 142.904 64.3503 142.568C63.9823 142.216 63.7983 141.784 63.7983 141.272C63.7983 140.76 63.9823 140.336 64.3503 140C64.7183 139.648 65.1743 139.472 65.7183 139.472C66.2623 139.472 66.7183 139.64 67.0863 139.976C67.4543 140.296 67.6383 140.704 67.6383 141.2C67.6383 141.728 67.4543 142.176 67.0863 142.544C66.7343 142.896 66.2783 143.072 65.7183 143.072ZM75.1038 158.168C74.0638 158.168 73.0478 158.032 72.0558 157.76C71.0638 157.488 70.2718 157.144 69.6798 156.728L70.8318 154.448C71.4078 154.832 72.0958 155.144 72.8958 155.384C73.7118 155.608 74.5118 155.72 75.2958 155.72C77.0878 155.72 77.9838 155.248 77.9838 154.304C77.9838 153.856 77.7518 153.544 77.2878 153.368C76.8398 153.192 76.1118 153.024 75.1038 152.864C74.0478 152.704 73.1838 152.52 72.5118 152.312C71.8558 152.104 71.2798 151.744 70.7838 151.232C70.3038 150.704 70.0638 149.976 70.0638 149.048C70.0638 147.832 70.5678 146.864 71.5758 146.144C72.5998 145.408 73.9758 145.04 75.7038 145.04C76.5838 145.04 77.4638 145.144 78.3438 145.352C79.2238 145.544 79.9438 145.808 80.5038 146.144L79.3518 148.424C78.2638 147.784 77.0398 147.464 75.6798 147.464C74.7998 147.464 74.1278 147.6 73.6638 147.872C73.2158 148.128 72.9918 148.472 72.9918 148.904C72.9918 149.384 73.2318 149.728 73.7118 149.936C74.2078 150.128 74.9678 150.312 75.9918 150.488C77.0158 150.648 77.8558 150.832 78.5118 151.04C79.1678 151.248 79.7278 151.6 80.1918 152.096C80.6718 152.592 80.9118 153.296 80.9118 154.208C80.9118 155.408 80.3918 156.368 79.3518 157.088C78.3118 157.808 76.8958 158.168 75.1038 158.168ZM103.253 145.184L98.525 158H95.645L92.333 149.168L88.973 158H86.093L81.389 145.184H84.221L87.605 154.64L91.133 145.184H93.653L97.109 154.688L100.589 145.184H103.253ZM109.813 145.04C111.701 145.04 113.141 145.496 114.133 146.408C115.141 147.304 115.645 148.664 115.645 150.488V158H112.813V156.44C112.445 157 111.917 157.432 111.229 157.736C110.557 158.024 109.741 158.168 108.781 158.168C107.821 158.168 106.981 158.008 106.261 157.688C105.541 157.352 104.981 156.896 104.581 156.32C104.197 155.728 104.005 155.064 104.005 154.328C104.005 153.176 104.429 152.256 105.277 151.568C106.141 150.864 107.493 150.512 109.333 150.512H112.645V150.32C112.645 149.424 112.373 148.736 111.829 148.256C111.301 147.776 110.509 147.536 109.453 147.536C108.733 147.536 108.021 147.648 107.317 147.872C106.629 148.096 106.045 148.408 105.565 148.808L104.389 146.624C105.061 146.112 105.869 145.72 106.813 145.448C107.757 145.176 108.757 145.04 109.813 145.04ZM109.405 155.984C110.157 155.984 110.821 155.816 111.397 155.48C111.989 155.128 112.405 154.632 112.645 153.992V152.504H109.549C107.821 152.504 106.957 153.072 106.957 154.208C106.957 154.752 107.173 155.184 107.605 155.504C108.037 155.824 108.637 155.984 109.405 155.984Z" fill="black"/>
<path fill-rule="evenodd" clip-rule="evenodd" d="M115 55.4711C115 86.1412 90.1534 111 59.4928 111C28.8466 111 4 86.1412 4 55.4711C4 24.8661 28.8466 0 59.4855 0C90.1534 0 115 24.8661 115 55.4711Z" fill="#DD5E7C"/>
<path fill-rule="evenodd" clip-rule="evenodd" d="M87.1018 51.4256L87.7815 67.1008C73.0008 82.1608 46.3969 80.5398 34.1182 67.5712L34.0532 52.2289L59.4928 62.8961L87.1018 51.4256Z" fill="#23384E"/>
<path fill-rule="evenodd" clip-rule="evenodd" d="M15.3386 48.5743L59.4855 33.1741L103.64 48.5743L59.4855 63.9817L15.3386 48.5743Z" fill="#2A475E"/>
<path fill-rule="evenodd" clip-rule="evenodd" d="M60.0424 44.3913L30.3435 52.4315C30.0543 52.4967 29.9313 52.6342 29.9313 52.9671L29.7867 66.2179C30.7268 66.5435 31.4065 67.5712 31.4065 68.7219C31.4065 70.1982 30.3435 71.3489 28.9045 71.3489C27.5739 71.3489 26.4242 70.1982 26.4242 68.7219C26.4242 67.6363 27.0171 66.6883 27.8994 66.283L28.1018 51.8236C28.0367 51.3532 28.2248 51.0203 28.7816 50.8177L58.8926 42.7702C59.9628 42.4446 61.0475 43.6531 60.0424 44.3913Z" fill="#EB6B4F"/>
</svg>
