<svg width="9" height="7" viewBox="0 0 9 7" fill="none" xmlns="http://www.w3.org/2000/svg">
<path fill-rule="evenodd" clip-rule="evenodd" d="M7.83694 0H0.713358C0.497427 0 0.275146 0.226415 0.275146 0.433962V0.440252V0.559748C0.275146 0.637317 0.287848 0.666667 0.359825 0.786164L1.43312 2.63522C1.51145 2.77149 1.58343 2.90356 1.67234 3.04612L2.62709 4.68553C2.71177 4.8218 2.7901 4.95807 2.86631 5.09644C3.00391 5.33333 3.80836 6.73166 3.88668 6.826C4.07933 7.04612 4.40957 7.0587 4.60645 6.8805C4.67843 6.8218 4.55141 6.93501 4.6255 6.86792C4.76311 6.73166 5.8978 4.71698 6.15607 4.28302L6.63027 3.4696C6.71495 3.32704 6.78692 3.19706 6.86948 3.0587L8.18412 0.796646C8.25609 0.666667 8.27515 0.641509 8.27515 0.553459V0.450734V0.446541V0.433962C8.27515 0.226415 8.04651 0 7.83694 0Z" fill="white"/>
</svg>
