<svg width="158" height="42" viewBox="0 0 158 42" fill="none" xmlns="http://www.w3.org/2000/svg">
<path d="M56.156 14.852C57.34 14.852 58.216 15.084 58.784 15.548C59.352 16.004 59.636 16.628 59.636 17.42C59.636 17.924 59.512 18.38 59.264 18.788C59.016 19.196 58.644 19.52 58.148 19.76C57.652 20 57.04 20.12 56.312 20.12C55.712 20.12 55.132 20.036 54.572 19.868C54.012 19.692 53.54 19.452 53.156 19.148L53.816 17.936C54.128 18.192 54.5 18.396 54.932 18.548C55.372 18.692 55.824 18.764 56.288 18.764C56.84 18.764 57.272 18.652 57.584 18.428C57.904 18.196 58.064 17.88 58.064 17.48C58.064 17.048 57.892 16.724 57.548 16.508C57.212 16.284 56.632 16.172 55.808 16.172H53.78L54.212 11.6H59.144V12.908H55.532L55.352 14.852H56.156ZM61.4718 20.084C61.1998 20.084 60.9678 19.992 60.7758 19.808C60.5838 19.616 60.4878 19.376 60.4878 19.088C60.4878 18.792 60.5798 18.552 60.7638 18.368C60.9558 18.184 61.1918 18.092 61.4718 18.092C61.7518 18.092 61.9838 18.184 62.1678 18.368C62.3598 18.552 62.4558 18.792 62.4558 19.088C62.4558 19.376 62.3598 19.616 62.1678 19.808C61.9758 19.992 61.7438 20.084 61.4718 20.084ZM70.8949 18.092H69.4069V20H67.8949V18.092H63.2869V17.012L67.4269 11.6H69.0949L65.1949 16.772H67.9429V15.08H69.4069V16.772H70.8949V18.092ZM75.3674 14.816C75.9194 14.816 76.4154 14.924 76.8554 15.14C77.2954 15.348 77.6394 15.648 77.8874 16.04C78.1354 16.432 78.2594 16.884 78.2594 17.396C78.2594 17.94 78.1234 18.42 77.8514 18.836C77.5794 19.244 77.2114 19.56 76.7474 19.784C76.2834 20.008 75.7634 20.12 75.1874 20.12C74.0354 20.12 73.1394 19.76 72.4994 19.04C71.8674 18.32 71.5514 17.288 71.5514 15.944C71.5514 15 71.7234 14.196 72.0674 13.532C72.4114 12.86 72.8914 12.352 73.5074 12.008C74.1314 11.656 74.8514 11.48 75.6674 11.48C76.0994 11.48 76.5034 11.528 76.8794 11.624C77.2634 11.712 77.5954 11.844 77.8754 12.02L77.2994 13.196C76.8834 12.924 76.3514 12.788 75.7034 12.788C74.8954 12.788 74.2634 13.036 73.8074 13.532C73.3514 14.028 73.1234 14.744 73.1234 15.68V15.692C73.3714 15.404 73.6874 15.188 74.0714 15.044C74.4554 14.892 74.8874 14.816 75.3674 14.816ZM75.1034 18.896C75.5914 18.896 75.9874 18.768 76.2914 18.512C76.5954 18.248 76.7474 17.9 76.7474 17.468C76.7474 17.028 76.5954 16.68 76.2914 16.424C75.9874 16.168 75.5794 16.04 75.0674 16.04C74.5634 16.04 74.1514 16.176 73.8314 16.448C73.5194 16.72 73.3634 17.064 73.3634 17.48C73.3634 17.888 73.5154 18.228 73.8194 18.5C74.1314 18.764 74.5594 18.896 75.1034 18.896ZM84.5229 15.584C84.9629 15.784 85.2989 16.056 85.5309 16.4C85.7709 16.736 85.8909 17.132 85.8909 17.588C85.8909 18.1 85.7469 18.548 85.4589 18.932C85.1789 19.316 84.7789 19.612 84.2589 19.82C83.7389 20.02 83.1349 20.12 82.4469 20.12C81.7589 20.12 81.1549 20.02 80.6349 19.82C80.1229 19.612 79.7269 19.316 79.4469 18.932C79.1669 18.548 79.0269 18.1 79.0269 17.588C79.0269 17.132 79.1429 16.736 79.3749 16.4C79.6069 16.056 79.9389 15.784 80.3709 15.584C80.0349 15.4 79.7749 15.16 79.5909 14.864C79.4149 14.56 79.3269 14.212 79.3269 13.82C79.3269 13.348 79.4549 12.936 79.7109 12.584C79.9749 12.232 80.3429 11.96 80.8149 11.768C81.2869 11.576 81.8309 11.48 82.4469 11.48C83.0709 11.48 83.6189 11.576 84.0909 11.768C84.5629 11.96 84.9309 12.232 85.1949 12.584C85.4589 12.936 85.5909 13.348 85.5909 13.82C85.5909 14.212 85.4989 14.556 85.3149 14.852C85.1309 15.148 84.8669 15.392 84.5229 15.584ZM82.4469 12.704C81.9589 12.704 81.5709 12.808 81.2829 13.016C81.0029 13.224 80.8629 13.516 80.8629 13.892C80.8629 14.252 81.0029 14.54 81.2829 14.756C81.5709 14.964 81.9589 15.068 82.4469 15.068C82.9429 15.068 83.3349 14.964 83.6229 14.756C83.9109 14.54 84.0549 14.252 84.0549 13.892C84.0549 13.516 83.9069 13.224 83.6109 13.016C83.3229 12.808 82.9349 12.704 82.4469 12.704ZM82.4469 18.896C83.0229 18.896 83.4789 18.776 83.8149 18.536C84.1509 18.296 84.3189 17.964 84.3189 17.54C84.3189 17.124 84.1509 16.796 83.8149 16.556C83.4789 16.316 83.0229 16.196 82.4469 16.196C81.8709 16.196 81.4189 16.316 81.0909 16.556C80.7629 16.796 80.5989 17.124 80.5989 17.54C80.5989 17.964 80.7629 18.296 81.0909 18.536C81.4189 18.776 81.8709 18.896 82.4469 18.896ZM60.428 33.692V35H54.128V26.6H60.26V27.908H55.688V30.092H59.744V31.376H55.688V33.692H60.428ZM67.941 28.592L65.193 35H63.645L60.897 28.592H62.457L64.449 33.344L66.501 28.592H67.941ZM74.7268 31.832C74.7268 31.936 74.7188 32.084 74.7028 32.276H69.6748C69.7628 32.748 69.9908 33.124 70.3588 33.404C70.7348 33.676 71.1988 33.812 71.7508 33.812C72.4548 33.812 73.0348 33.58 73.4908 33.116L74.2948 34.04C74.0068 34.384 73.6428 34.644 73.2028 34.82C72.7628 34.996 72.2668 35.084 71.7148 35.084C71.0108 35.084 70.3908 34.944 69.8548 34.664C69.3188 34.384 68.9028 33.996 68.6068 33.5C68.3188 32.996 68.1748 32.428 68.1748 31.796C68.1748 31.172 68.3148 30.612 68.5948 30.116C68.8828 29.612 69.2788 29.22 69.7828 28.94C70.2868 28.66 70.8548 28.52 71.4868 28.52C72.1108 28.52 72.6668 28.66 73.1548 28.94C73.6508 29.212 74.0348 29.6 74.3068 30.104C74.5868 30.6 74.7268 31.176 74.7268 31.832ZM71.4868 29.72C71.0068 29.72 70.5988 29.864 70.2628 30.152C69.9348 30.432 69.7348 30.808 69.6628 31.28H73.2988C73.2348 30.816 73.0388 30.44 72.7108 30.152C72.3828 29.864 71.9748 29.72 71.4868 29.72ZM79.8036 28.52C80.6116 28.52 81.2596 28.756 81.7476 29.228C82.2356 29.7 82.4796 30.4 82.4796 31.328V35H80.9796V31.52C80.9796 30.96 80.8476 30.54 80.5836 30.26C80.3196 29.972 79.9436 29.828 79.4556 29.828C78.9036 29.828 78.4676 29.996 78.1476 30.332C77.8276 30.66 77.6676 31.136 77.6676 31.76V35H76.1676V28.592H77.5956V29.42C77.8436 29.124 78.1556 28.9 78.5316 28.748C78.9076 28.596 79.3316 28.52 79.8036 28.52ZM88.2344 34.652C88.0584 34.796 87.8424 34.904 87.5864 34.976C87.3384 35.048 87.0744 35.084 86.7944 35.084C86.0904 35.084 85.5464 34.9 85.1624 34.532C84.7784 34.164 84.5864 33.628 84.5864 32.924V29.84H83.5304V28.64H84.5864V27.176H86.0864V28.64H87.8024V29.84H86.0864V32.888C86.0864 33.2 86.1624 33.44 86.3144 33.608C86.4664 33.768 86.6864 33.848 86.9744 33.848C87.3104 33.848 87.5904 33.76 87.8144 33.584L88.2344 34.652ZM99.0608 26.096V35H97.6208V34.172C97.3728 34.476 97.0648 34.704 96.6968 34.856C96.3368 35.008 95.9368 35.084 95.4968 35.084C94.8808 35.084 94.3248 34.948 93.8288 34.676C93.3408 34.404 92.9568 34.02 92.6768 33.524C92.3968 33.02 92.2568 32.444 92.2568 31.796C92.2568 31.148 92.3968 30.576 92.6768 30.08C92.9568 29.584 93.3408 29.2 93.8288 28.928C94.3248 28.656 94.8808 28.52 95.4968 28.52C95.9208 28.52 96.3088 28.592 96.6608 28.736C97.0128 28.88 97.3128 29.096 97.5608 29.384V26.096H99.0608ZM95.6768 33.8C96.0368 33.8 96.3608 33.72 96.6488 33.56C96.9368 33.392 97.1648 33.156 97.3328 32.852C97.5008 32.548 97.5848 32.196 97.5848 31.796C97.5848 31.396 97.5008 31.044 97.3328 30.74C97.1648 30.436 96.9368 30.204 96.6488 30.044C96.3608 29.876 96.0368 29.792 95.6768 29.792C95.3168 29.792 94.9928 29.876 94.7048 30.044C94.4168 30.204 94.1888 30.436 94.0208 30.74C93.8528 31.044 93.7688 31.396 93.7688 31.796C93.7688 32.196 93.8528 32.548 94.0208 32.852C94.1888 33.156 94.4168 33.392 94.7048 33.56C94.9928 33.72 95.3168 33.8 95.6768 33.8ZM101.023 28.592H102.523V35H101.023V28.592ZM101.779 27.536C101.507 27.536 101.279 27.452 101.095 27.284C100.911 27.108 100.819 26.892 100.819 26.636C100.819 26.38 100.911 26.168 101.095 26C101.279 25.824 101.507 25.736 101.779 25.736C102.051 25.736 102.279 25.82 102.463 25.988C102.647 26.148 102.739 26.352 102.739 26.6C102.739 26.864 102.647 27.088 102.463 27.272C102.287 27.448 102.059 27.536 101.779 27.536ZM110.256 28.52C111.2 28.52 111.92 28.748 112.416 29.204C112.92 29.652 113.172 30.332 113.172 31.244V35H111.756V34.22C111.572 34.5 111.308 34.716 110.964 34.868C110.628 35.012 110.22 35.084 109.74 35.084C109.26 35.084 108.84 35.004 108.48 34.844C108.12 34.676 107.84 34.448 107.64 34.16C107.448 33.864 107.352 33.532 107.352 33.164C107.352 32.588 107.564 32.128 107.988 31.784C108.42 31.432 109.096 31.256 110.016 31.256H111.672V31.16C111.672 30.712 111.536 30.368 111.264 30.128C111 29.888 110.604 29.768 110.076 29.768C109.716 29.768 109.36 29.824 109.008 29.936C108.664 30.048 108.372 30.204 108.132 30.404L107.544 29.312C107.88 29.056 108.284 28.86 108.756 28.724C109.228 28.588 109.728 28.52 110.256 28.52ZM110.052 33.992C110.428 33.992 110.76 33.908 111.048 33.74C111.344 33.564 111.552 33.316 111.672 32.996V32.252H110.124C109.26 32.252 108.828 32.536 108.828 33.104C108.828 33.376 108.936 33.592 109.152 33.752C109.368 33.912 109.668 33.992 110.052 33.992ZM118.649 28.52C119.273 28.52 119.829 28.656 120.317 28.928C120.813 29.2 121.201 29.584 121.481 30.08C121.761 30.576 121.901 31.148 121.901 31.796C121.901 32.444 121.761 33.02 121.481 33.524C121.201 34.02 120.813 34.404 120.317 34.676C119.829 34.948 119.273 35.084 118.649 35.084C117.785 35.084 117.101 34.796 116.597 34.22V37.328H115.097V28.592H116.525V29.432C116.773 29.128 117.077 28.9 117.437 28.748C117.805 28.596 118.209 28.52 118.649 28.52ZM118.481 33.8C119.033 33.8 119.485 33.616 119.837 33.248C120.197 32.88 120.377 32.396 120.377 31.796C120.377 31.196 120.197 30.712 119.837 30.344C119.485 29.976 119.033 29.792 118.481 29.792C118.121 29.792 117.797 29.876 117.509 30.044C117.221 30.204 116.993 30.436 116.825 30.74C116.657 31.044 116.573 31.396 116.573 31.796C116.573 32.196 116.657 32.548 116.825 32.852C116.993 33.156 117.221 33.392 117.509 33.56C117.797 33.72 118.121 33.8 118.481 33.8ZM123.324 26.096H124.824V35H123.324V26.096ZM126.793 28.592H128.293V35H126.793V28.592ZM127.549 27.536C127.277 27.536 127.049 27.452 126.865 27.284C126.681 27.108 126.589 26.892 126.589 26.636C126.589 26.38 126.681 26.168 126.865 26C127.049 25.824 127.277 25.736 127.549 25.736C127.821 25.736 128.049 25.82 128.233 25.988C128.417 26.148 128.509 26.352 128.509 26.6C128.509 26.864 128.417 27.088 128.233 27.272C128.057 27.448 127.829 27.536 127.549 27.536ZM132.877 32.252L131.761 33.308V35H130.261V26.096H131.761V31.472L134.869 28.592H136.669L133.993 31.28L136.921 35H135.097L132.877 32.252ZM140.221 28.52C141.165 28.52 141.885 28.748 142.381 29.204C142.885 29.652 143.137 30.332 143.137 31.244V35H141.721V34.22C141.537 34.5 141.273 34.716 140.929 34.868C140.593 35.012 140.185 35.084 139.705 35.084C139.225 35.084 138.805 35.004 138.445 34.844C138.085 34.676 137.805 34.448 137.605 34.16C137.413 33.864 137.317 33.532 137.317 33.164C137.317 32.588 137.529 32.128 137.953 31.784C138.385 31.432 139.061 31.256 139.981 31.256H141.637V31.16C141.637 30.712 141.501 30.368 141.229 30.128C140.965 29.888 140.569 29.768 140.041 29.768C139.681 29.768 139.325 29.824 138.973 29.936C138.629 30.048 138.337 30.204 138.097 30.404L137.509 29.312C137.845 29.056 138.249 28.86 138.721 28.724C139.193 28.588 139.693 28.52 140.221 28.52ZM140.017 33.992C140.393 33.992 140.725 33.908 141.013 33.74C141.309 33.564 141.517 33.316 141.637 32.996V32.252H140.089C139.225 32.252 138.793 32.536 138.793 33.104C138.793 33.376 138.901 33.592 139.117 33.752C139.333 33.912 139.633 33.992 140.017 33.992ZM147.042 35.084C146.522 35.084 146.014 35.016 145.518 34.88C145.022 34.744 144.626 34.572 144.33 34.364L144.906 33.224C145.194 33.416 145.538 33.572 145.938 33.692C146.346 33.804 146.746 33.86 147.138 33.86C148.034 33.86 148.482 33.624 148.482 33.152C148.482 32.928 148.366 32.772 148.134 32.684C147.91 32.596 147.546 32.512 147.042 32.432C146.514 32.352 146.082 32.26 145.746 32.156C145.418 32.052 145.13 31.872 144.882 31.616C144.642 31.352 144.522 30.988 144.522 30.524C144.522 29.916 144.774 29.432 145.278 29.072C145.79 28.704 146.478 28.52 147.342 28.52C147.782 28.52 148.222 28.572 148.662 28.676C149.102 28.772 149.462 28.904 149.742 29.072L149.166 30.212C148.622 29.892 148.01 29.732 147.33 29.732C146.89 29.732 146.554 29.8 146.322 29.936C146.098 30.064 145.986 30.236 145.986 30.452C145.986 30.692 146.106 30.864 146.346 30.968C146.594 31.064 146.974 31.156 147.486 31.244C147.998 31.324 148.418 31.416 148.746 31.52C149.074 31.624 149.354 31.8 149.586 32.048C149.826 32.296 149.946 32.648 149.946 33.104C149.946 33.704 149.686 34.184 149.166 34.544C148.646 34.904 147.938 35.084 147.042 35.084ZM151.238 28.592H152.738V35H151.238V28.592ZM151.994 27.536C151.722 27.536 151.494 27.452 151.31 27.284C151.126 27.108 151.034 26.892 151.034 26.636C151.034 26.38 151.126 26.168 151.31 26C151.494 25.824 151.722 25.736 151.994 25.736C152.266 25.736 152.494 25.82 152.678 25.988C152.862 26.148 152.954 26.352 152.954 26.6C152.954 26.864 152.862 27.088 152.678 27.272C152.502 27.448 152.274 27.536 151.994 27.536Z" fill="white"/>
<path fill-rule="evenodd" clip-rule="evenodd" d="M0 19.4065C0.346785 19.6439 0.520777 19.5695 0.935958 19.6235C1.21795 19.6606 1.62593 19.7589 1.96311 19.8441C3.89503 20.3332 5.30616 21.2203 6.92609 22.1854C7.48047 22.515 7.84165 22.7932 8.35163 23.1636C8.61322 23.3578 8.80401 23.4765 9.0824 23.6839C10.1779 24.5099 11.3719 25.6248 12.3307 26.5862C14.511 28.7609 17.2288 32.0708 18.4468 35.0751C18.9124 36.2163 19.4235 37.42 19.4235 39H19.5183C19.5183 36.3158 21.6446 32.5983 23.1854 30.5591L24.2845 29.1625C24.6649 28.6794 24.9781 28.3029 25.4065 27.8809C25.89 27.405 26.454 26.6546 27.186 26.0084L29.7647 23.7786C31.9246 22.1674 35.1488 20.0479 37.9183 19.6331C38.1463 19.6019 38.2519 19.6163 38.4595 19.5959C38.7991 19.5587 38.7283 19.5887 38.9395 19.4053C34.8513 19.4053 29.5307 15.3341 26.562 12.367C25.0249 10.8313 23.4254 8.8401 22.211 7.01429C21.2139 5.51577 19.5207 2.41682 19.5207 0H19.4259C19.4259 3.21763 17.0344 6.75175 15.2765 9.11463C15.0689 9.39275 14.9165 9.53901 14.7149 9.79795C14.1402 10.5388 11.9431 12.9449 11.1571 13.5467L9.23479 15.1807C8.9936 15.3641 8.78961 15.5103 8.52082 15.7141C8.24483 15.9179 8.06484 16.057 7.80685 16.2512C7.53806 16.4514 7.32687 16.5497 7.04129 16.7343C6.53131 17.0604 6.11973 17.3601 5.54855 17.6454C3.77503 18.5302 2.2379 19.4065 0 19.4065Z" fill="#FCD63F"/>
<path fill-rule="evenodd" clip-rule="evenodd" d="M12.2743 19.5359C13.1143 19.9507 13.4142 19.7937 14.7678 20.718C16.2137 21.7034 17.4245 22.9502 18.394 24.3947C19.0228 25.3322 19.156 25.7986 19.4824 26.9602C19.666 25.934 20.0403 25.186 20.5503 24.4223L21.7035 22.8794C22.8194 21.7813 23.8502 20.7527 25.3153 20.0526C25.7641 19.838 26.3053 19.7265 26.6629 19.5359C26.6389 19.5227 26.6017 19.482 26.5909 19.5024L26.0029 19.295C25.2073 19.0192 24.8461 18.7819 24.1694 18.3395L22.6526 17.1635C22.4762 16.9836 22.3838 16.8134 22.2074 16.6468C22.0203 16.4669 21.9183 16.4358 21.7479 16.2464C20.7375 15.1111 19.7716 13.6401 19.4584 12.0433C19.2412 14.0309 17.6585 15.7309 16.7477 16.6815C14.4402 19.0876 13.1071 19.0396 12.2743 19.5359Z" fill="#F2C337"/>
<path fill-rule="evenodd" clip-rule="evenodd" d="M0.769165 33.6221C1.79632 33.7072 3.15346 34.6962 3.80023 35.3963L4.86458 36.7354C5.37096 37.4835 5.32056 37.595 5.52455 38.2855L5.57615 38.4246C5.73214 36.5832 8.53882 33.7755 10.3855 33.6233C9.99435 33.3751 9.14359 33.5861 7.37847 31.8227C6.50371 30.9463 5.90254 30.2222 5.57615 28.822C5.49096 28.9575 4.89938 31.8059 1.70152 33.3044C1.46993 33.4135 1.55513 33.3859 1.28274 33.4639L0.908359 33.5693C0.88796 33.5765 0.854361 33.5897 0.836362 33.5969C0.823163 33.5981 0.789564 33.6077 0.769165 33.6221Z" fill="#FCD63F"/>
<path fill-rule="evenodd" clip-rule="evenodd" d="M29.3837 7.1336C30.4108 7.21872 31.768 8.20774 32.4147 8.90785L33.4791 10.2469C33.9855 10.995 33.9351 11.1065 34.1391 11.797L34.1907 11.9361C34.3466 10.0947 37.1533 7.28705 39 7.1348C38.6089 6.88664 37.7581 7.09764 35.993 5.33417C35.1182 4.45783 34.517 3.73375 34.1907 2.33353C34.1055 2.46899 33.5139 5.31739 30.316 6.81591C30.0844 6.925 30.1696 6.89743 29.8972 6.97536L29.5229 7.08085C29.5025 7.08805 29.4689 7.10123 29.4509 7.10842C29.4377 7.10962 29.4041 7.11922 29.3837 7.1336Z" fill="#FCD63F"/>
</svg>
