<svg width="111" height="167" viewBox="0 0 111 167" fill="none" xmlns="http://www.w3.org/2000/svg">
<path d="M14.8302 145.2H17.9502V159.36H26.7342V162H14.8302V145.2ZM34.5522 162.168C33.2562 162.168 32.0882 161.888 31.0482 161.328C30.0082 160.768 29.1922 159.992 28.6002 159C28.0242 157.992 27.7362 156.856 27.7362 155.592C27.7362 154.328 28.0242 153.2 28.6002 152.208C29.1922 151.216 30.0082 150.44 31.0482 149.88C32.0882 149.32 33.2562 149.04 34.5522 149.04C35.8642 149.04 37.0402 149.32 38.0802 149.88C39.1202 150.44 39.9282 151.216 40.5042 152.208C41.0962 153.2 41.3922 154.328 41.3922 155.592C41.3922 156.856 41.0962 157.992 40.5042 159C39.9282 159.992 39.1202 160.768 38.0802 161.328C37.0402 161.888 35.8642 162.168 34.5522 162.168ZM34.5522 159.6C35.6562 159.6 36.5682 159.232 37.2882 158.496C38.0082 157.76 38.3682 156.792 38.3682 155.592C38.3682 154.392 38.0082 153.424 37.2882 152.688C36.5682 151.952 35.6562 151.584 34.5522 151.584C33.4482 151.584 32.5362 151.952 31.8162 152.688C31.1122 153.424 30.7602 154.392 30.7602 155.592C30.7602 156.792 31.1122 157.76 31.8162 158.496C32.5362 159.232 33.4482 159.6 34.5522 159.6ZM60.437 149.04C62.053 149.04 63.333 149.512 64.277 150.456C65.221 151.384 65.693 152.784 65.693 154.656V162H62.693V155.04C62.693 153.92 62.445 153.08 61.949 152.52C61.453 151.944 60.741 151.656 59.813 151.656C58.805 151.656 57.997 151.992 57.389 152.664C56.781 153.32 56.477 154.264 56.477 155.496V162H53.477V155.04C53.477 153.92 53.229 153.08 52.733 152.52C52.237 151.944 51.525 151.656 50.597 151.656C49.573 151.656 48.757 151.984 48.149 152.64C47.557 153.296 47.261 154.248 47.261 155.496V162H44.261V149.184H47.117V150.816C47.597 150.24 48.197 149.8 48.917 149.496C49.637 149.192 50.437 149.04 51.317 149.04C52.277 149.04 53.125 149.224 53.861 149.592C54.613 149.944 55.205 150.472 55.637 151.176C56.165 150.504 56.845 149.984 57.677 149.616C58.509 149.232 59.429 149.04 60.437 149.04ZM76.6306 149.04C77.8786 149.04 78.9906 149.312 79.9666 149.856C80.9586 150.4 81.7346 151.168 82.2946 152.16C82.8546 153.152 83.1346 154.296 83.1346 155.592C83.1346 156.888 82.8546 158.04 82.2946 159.048C81.7346 160.04 80.9586 160.808 79.9666 161.352C78.9906 161.896 77.8786 162.168 76.6306 162.168C75.7506 162.168 74.9426 162.016 74.2066 161.712C73.4866 161.408 72.8786 160.952 72.3826 160.344V162H69.5266V144.192H72.5266V150.744C73.0386 150.184 73.6386 149.76 74.3266 149.472C75.0306 149.184 75.7986 149.04 76.6306 149.04ZM76.2946 159.6C77.3986 159.6 78.3026 159.232 79.0066 158.496C79.7266 157.76 80.0866 156.792 80.0866 155.592C80.0866 154.392 79.7266 153.424 79.0066 152.688C78.3026 151.952 77.3986 151.584 76.2946 151.584C75.5746 151.584 74.9266 151.752 74.3506 152.088C73.7746 152.408 73.3186 152.872 72.9826 153.48C72.6466 154.088 72.4786 154.792 72.4786 155.592C72.4786 156.392 72.6466 157.096 72.9826 157.704C73.3186 158.312 73.7746 158.784 74.3506 159.12C74.9266 159.44 75.5746 159.6 76.2946 159.6ZM90.7117 149.04C92.5997 149.04 94.0397 149.496 95.0317 150.408C96.0397 151.304 96.5437 152.664 96.5437 154.488V162H93.7117V160.44C93.3437 161 92.8157 161.432 92.1277 161.736C91.4557 162.024 90.6397 162.168 89.6797 162.168C88.7197 162.168 87.8797 162.008 87.1597 161.688C86.4397 161.352 85.8797 160.896 85.4797 160.32C85.0957 159.728 84.9037 159.064 84.9037 158.328C84.9037 157.176 85.3277 156.256 86.1757 155.568C87.0397 154.864 88.3917 154.512 90.2317 154.512H93.5437V154.32C93.5437 153.424 93.2717 152.736 92.7277 152.256C92.1997 151.776 91.4077 151.536 90.3517 151.536C89.6317 151.536 88.9197 151.648 88.2157 151.872C87.5277 152.096 86.9437 152.408 86.4637 152.808L85.2877 150.624C85.9597 150.112 86.7677 149.72 87.7117 149.448C88.6557 149.176 89.6557 149.04 90.7117 149.04ZM90.3037 159.984C91.0557 159.984 91.7197 159.816 92.2957 159.48C92.8877 159.128 93.3037 158.632 93.5437 157.992V156.504H90.4477C88.7197 156.504 87.8557 157.072 87.8557 158.208C87.8557 158.752 88.0717 159.184 88.5037 159.504C88.9357 159.824 89.5357 159.984 90.3037 159.984Z" fill="black"/>
<path fill-rule="evenodd" clip-rule="evenodd" d="M111 55.4965C111 24.9324 86.0676 0 55.4965 0C24.9255 0 0 24.9324 0 55.4965C0 86.0606 24.9324 110.993 55.4965 110.993C86.0606 110.993 111 86.0676 111 55.4965Z" fill="#0080E6"/>
<path fill-rule="evenodd" clip-rule="evenodd" d="M45.5681 71.5434H65.571C62.4562 68.0323 60.8988 63.4852 60.1131 59.5222C59.1467 54.989 59.2649 51.3458 59.2649 51.3458H51.7907C51.7907 51.3458 51.9298 54.989 51.019 59.5222C50.3168 63.4782 48.7593 68.0323 45.5681 71.5434Z" fill="#F6BA40"/>
<path fill-rule="evenodd" clip-rule="evenodd" d="M44.6573 53.6262C44.4626 53.6262 44.261 53.6262 44.0871 53.4872L35.8899 49.2669C32.2606 47.3758 29.6046 44.0037 28.5617 40.1241L26.2395 30.8978C25.8432 29.3404 26.1631 27.644 27.206 26.3438C28.2489 25.0437 29.7507 24.2719 31.4263 24.2719H44.6712C45.3803 24.2719 45.9713 24.8629 45.9713 25.6346C45.9713 26.3438 45.3803 26.9348 44.6712 26.9348H31.4123C30.5641 26.9348 29.7993 27.3311 29.2848 27.9777C28.7495 28.6313 28.5548 29.4586 28.7495 30.2443L31.0925 39.4705C31.9408 42.641 34.0683 45.3664 37.0649 46.9169L45.3039 51.1372C45.8948 51.4709 46.1521 52.3191 45.8184 52.8893C45.6445 53.3481 45.1718 53.6262 44.6573 53.6262Z" fill="#F6BA40"/>
<path fill-rule="evenodd" clip-rule="evenodd" d="M66.3358 53.6263C65.8839 53.6263 65.4319 53.3481 65.1747 52.8962C64.841 52.3261 65.1121 51.4779 65.7448 51.1441L73.9421 46.9238C76.9178 45.3664 79.1288 42.6479 79.8936 39.4775L82.2366 30.2512C82.4313 29.4656 82.2992 28.6382 81.7847 27.9847C81.2702 27.3311 80.4845 26.9418 79.6363 26.9418H66.3358C65.6266 26.9418 65.0356 26.3508 65.0356 25.6416C65.0356 24.8699 65.6266 24.2789 66.3358 24.2789H79.6363C81.2702 24.2789 82.8276 25.0506 83.8566 26.3508C84.8439 27.6509 85.2193 29.3474 84.7605 30.9048L82.4383 40.131C81.4718 44.0107 78.8089 47.3827 75.1657 49.2739L66.9893 53.4942C66.7947 53.6263 66.5374 53.6263 66.3358 53.6263Z" fill="#F6BA40"/>
<path fill-rule="evenodd" clip-rule="evenodd" d="M55.4965 60.9614C46.6666 60.9614 39.4705 53.8071 39.394 44.998L39.1994 20.0656H55.5591H71.8006L71.606 44.998C71.606 45.1162 71.606 45.2552 71.606 45.3734V45.4499C71.606 45.5681 71.606 45.7071 71.606 45.8253C71.606 45.9644 71.606 46.1035 71.5434 46.2216C71.5434 46.3607 71.5434 46.4789 71.5434 46.618C71.5434 46.7361 71.4669 46.8752 71.4669 47.0143C71.4669 47.2715 71.4043 47.5288 71.3487 47.786V47.8486C71.3487 47.9876 71.2861 48.1267 71.2861 48.2449C71.2096 48.6412 71.0915 48.9541 71.008 49.3504H70.9454C70.9454 49.4894 70.8829 49.6076 70.8829 49.7467C68.804 56.2892 62.7134 60.9614 55.4965 60.9614Z" fill="#FCD451"/>
<path d="M66.3358 70.8898H44.6573V73.4137H66.3358V70.8898Z" fill="#FCE684"/>
<path fill-rule="evenodd" clip-rule="evenodd" d="M39.1994 76.5841H71.8006C71.8006 74.5122 70.1042 72.7601 67.9558 72.7601H43.0998C40.9515 72.7671 39.1994 74.5192 39.1994 76.5841Z" fill="#FCD451"/>
<path d="M76.8622 76.4103H34.2143V90.7398H76.8622V76.4103Z" fill="#EDEFF3"/>
<path d="M64.6672 80.4915H46.4163V86.6029H64.6672V80.4915Z" fill="#C07D50"/>
<path fill-rule="evenodd" clip-rule="evenodd" d="M47.9737 84.1973C48.3074 84.1973 48.5647 83.8636 48.5647 83.5437C48.5647 83.21 48.3074 82.9528 47.9737 82.9528C47.6608 82.9528 47.3201 83.21 47.3201 83.5437C47.3201 83.8566 47.6539 84.1973 47.9737 84.1973Z" fill="#FEFEFE"/>
<path fill-rule="evenodd" clip-rule="evenodd" d="M63.2836 84.1973C63.6173 84.1973 63.8745 83.8636 63.8745 83.5437C63.8745 83.21 63.6173 82.9528 63.2836 82.9528C62.9707 82.9528 62.7134 83.21 62.7134 83.5437C62.7134 83.8566 62.9707 84.1973 63.2836 84.1973Z" fill="#FEFEFE"/>
</svg>
