<svg width="254" height="39" viewBox="0 0 254 39" fill="none" xmlns="http://www.w3.org/2000/svg">
<path d="M63.612 14.68V16H57.42V14.956L60.756 11.788C61.132 11.428 61.384 11.116 61.512 10.852C61.648 10.58 61.716 10.312 61.716 10.048C61.716 9.656 61.584 9.356 61.32 9.148C61.056 8.94 60.668 8.836 60.156 8.836C59.3 8.836 58.644 9.128 58.188 9.712L57.096 8.872C57.424 8.432 57.864 8.092 58.416 7.852C58.976 7.604 59.6 7.48 60.288 7.48C61.2 7.48 61.928 7.696 62.472 8.128C63.016 8.56 63.288 9.148 63.288 9.892C63.288 10.348 63.192 10.776 63 11.176C62.808 11.576 62.44 12.032 61.896 12.544L59.652 14.68H63.612ZM65.5656 16.084C65.2936 16.084 65.0616 15.992 64.8696 15.808C64.6776 15.616 64.5816 15.376 64.5816 15.088C64.5816 14.792 64.6736 14.552 64.8576 14.368C65.0496 14.184 65.2856 14.092 65.5656 14.092C65.8456 14.092 66.0776 14.184 66.2616 14.368C66.4536 14.552 66.5496 14.792 66.5496 15.088C66.5496 15.376 66.4536 15.616 66.2616 15.808C66.0696 15.992 65.8376 16.084 65.5656 16.084ZM74.9887 14.092H73.5007V16H71.9887V14.092H67.3807V13.012L71.5207 7.6H73.1887L69.2887 12.772H72.0367V11.08H73.5007V12.772H74.9887V14.092ZM79.4612 10.816C80.0132 10.816 80.5092 10.924 80.9492 11.14C81.3892 11.348 81.7332 11.648 81.9812 12.04C82.2292 12.432 82.3532 12.884 82.3532 13.396C82.3532 13.94 82.2172 14.42 81.9452 14.836C81.6732 15.244 81.3052 15.56 80.8412 15.784C80.3772 16.008 79.8572 16.12 79.2812 16.12C78.1292 16.12 77.2332 15.76 76.5932 15.04C75.9612 14.32 75.6452 13.288 75.6452 11.944C75.6452 11 75.8172 10.196 76.1612 9.532C76.5052 8.86 76.9852 8.352 77.6012 8.008C78.2252 7.656 78.9452 7.48 79.7612 7.48C80.1932 7.48 80.5972 7.528 80.9732 7.624C81.3572 7.712 81.6892 7.844 81.9692 8.02L81.3932 9.196C80.9772 8.924 80.4452 8.788 79.7972 8.788C78.9892 8.788 78.3572 9.036 77.9012 9.532C77.4452 10.028 77.2172 10.744 77.2172 11.68V11.692C77.4652 11.404 77.7812 11.188 78.1652 11.044C78.5492 10.892 78.9812 10.816 79.4612 10.816ZM79.1972 14.896C79.6852 14.896 80.0812 14.768 80.3852 14.512C80.6892 14.248 80.8412 13.9 80.8412 13.468C80.8412 13.028 80.6892 12.68 80.3852 12.424C80.0812 12.168 79.6732 12.04 79.1612 12.04C78.6572 12.04 78.2452 12.176 77.9252 12.448C77.6132 12.72 77.4572 13.064 77.4572 13.48C77.4572 13.888 77.6092 14.228 77.9132 14.5C78.2252 14.764 78.6532 14.896 79.1972 14.896ZM88.6166 11.584C89.0566 11.784 89.3926 12.056 89.6246 12.4C89.8646 12.736 89.9846 13.132 89.9846 13.588C89.9846 14.1 89.8406 14.548 89.5526 14.932C89.2726 15.316 88.8726 15.612 88.3526 15.82C87.8326 16.02 87.2286 16.12 86.5406 16.12C85.8526 16.12 85.2486 16.02 84.7286 15.82C84.2166 15.612 83.8206 15.316 83.5406 14.932C83.2606 14.548 83.1206 14.1 83.1206 13.588C83.1206 13.132 83.2366 12.736 83.4686 12.4C83.7006 12.056 84.0326 11.784 84.4646 11.584C84.1286 11.4 83.8686 11.16 83.6846 10.864C83.5086 10.56 83.4206 10.212 83.4206 9.82C83.4206 9.348 83.5486 8.936 83.8046 8.584C84.0686 8.232 84.4366 7.96 84.9086 7.768C85.3806 7.576 85.9246 7.48 86.5406 7.48C87.1646 7.48 87.7126 7.576 88.1846 7.768C88.6566 7.96 89.0246 8.232 89.2886 8.584C89.5526 8.936 89.6846 9.348 89.6846 9.82C89.6846 10.212 89.5926 10.556 89.4086 10.852C89.2246 11.148 88.9606 11.392 88.6166 11.584ZM86.5406 8.704C86.0526 8.704 85.6646 8.808 85.3766 9.016C85.0966 9.224 84.9566 9.516 84.9566 9.892C84.9566 10.252 85.0966 10.54 85.3766 10.756C85.6646 10.964 86.0526 11.068 86.5406 11.068C87.0366 11.068 87.4286 10.964 87.7166 10.756C88.0046 10.54 88.1486 10.252 88.1486 9.892C88.1486 9.516 88.0006 9.224 87.7046 9.016C87.4166 8.808 87.0286 8.704 86.5406 8.704ZM86.5406 14.896C87.1166 14.896 87.5726 14.776 87.9086 14.536C88.2446 14.296 88.4126 13.964 88.4126 13.54C88.4126 13.124 88.2446 12.796 87.9086 12.556C87.5726 12.316 87.1166 12.196 86.5406 12.196C85.9646 12.196 85.5126 12.316 85.1846 12.556C84.8566 12.796 84.6926 13.124 84.6926 13.54C84.6926 13.964 84.8566 14.296 85.1846 14.536C85.5126 14.776 85.9646 14.896 86.5406 14.896ZM92.0499 16.084C91.7779 16.084 91.5459 15.992 91.3539 15.808C91.1619 15.616 91.0659 15.376 91.0659 15.088C91.0659 14.792 91.1579 14.552 91.3419 14.368C91.5339 14.184 91.7699 14.092 92.0499 14.092C92.3299 14.092 92.5619 14.184 92.7459 14.368C92.9379 14.552 93.0339 14.792 93.0339 15.088C93.0339 15.376 92.9379 15.616 92.7459 15.808C92.5539 15.992 92.3219 16.084 92.0499 16.084ZM97.719 10.816C98.271 10.816 98.767 10.924 99.207 11.14C99.647 11.348 99.991 11.648 100.239 12.04C100.487 12.432 100.611 12.884 100.611 13.396C100.611 13.94 100.475 14.42 100.203 14.836C99.931 15.244 99.563 15.56 99.099 15.784C98.635 16.008 98.115 16.12 97.539 16.12C96.387 16.12 95.491 15.76 94.851 15.04C94.219 14.32 93.903 13.288 93.903 11.944C93.903 11 94.075 10.196 94.419 9.532C94.763 8.86 95.243 8.352 95.859 8.008C96.483 7.656 97.203 7.48 98.019 7.48C98.451 7.48 98.855 7.528 99.231 7.624C99.615 7.712 99.947 7.844 100.227 8.02L99.651 9.196C99.235 8.924 98.703 8.788 98.055 8.788C97.247 8.788 96.615 9.036 96.159 9.532C95.703 10.028 95.475 10.744 95.475 11.68V11.692C95.723 11.404 96.039 11.188 96.423 11.044C96.807 10.892 97.239 10.816 97.719 10.816ZM97.455 14.896C97.943 14.896 98.339 14.768 98.643 14.512C98.947 14.248 99.099 13.9 99.099 13.468C99.099 13.028 98.947 12.68 98.643 12.424C98.339 12.168 97.931 12.04 97.419 12.04C96.915 12.04 96.503 12.176 96.183 12.448C95.871 12.72 95.715 13.064 95.715 13.48C95.715 13.888 95.867 14.228 96.171 14.5C96.483 14.764 96.911 14.896 97.455 14.896ZM107.704 7.6V8.644L104.44 16H102.772L105.928 8.92H102.628V10.348H101.176V7.6H107.704ZM114.753 14.68V16H108.561V14.956L111.897 11.788C112.273 11.428 112.525 11.116 112.653 10.852C112.789 10.58 112.857 10.312 112.857 10.048C112.857 9.656 112.725 9.356 112.461 9.148C112.197 8.94 111.809 8.836 111.297 8.836C110.441 8.836 109.785 9.128 109.329 9.712L108.237 8.872C108.565 8.432 109.005 8.092 109.557 7.852C110.117 7.604 110.741 7.48 111.429 7.48C112.341 7.48 113.069 7.696 113.613 8.128C114.157 8.56 114.429 9.148 114.429 9.892C114.429 10.348 114.333 10.776 114.141 11.176C113.949 11.576 113.581 12.032 113.037 12.544L110.793 14.68H114.753ZM65.844 31L65.832 25.432L63.072 30.04H62.376L59.616 25.504V31H58.128V22.6H59.412L62.748 28.168L66.024 22.6H67.308L67.32 31H65.844ZM71.8929 24.52C72.8369 24.52 73.5569 24.748 74.0529 25.204C74.5569 25.652 74.8089 26.332 74.8089 27.244V31H73.3929V30.22C73.2089 30.5 72.9449 30.716 72.6009 30.868C72.2649 31.012 71.8569 31.084 71.3769 31.084C70.8969 31.084 70.4769 31.004 70.1169 30.844C69.7569 30.676 69.4769 30.448 69.2769 30.16C69.0849 29.864 68.9889 29.532 68.9889 29.164C68.9889 28.588 69.2009 28.128 69.6249 27.784C70.0569 27.432 70.7329 27.256 71.6529 27.256H73.3089V27.16C73.3089 26.712 73.1729 26.368 72.9009 26.128C72.6369 25.888 72.2409 25.768 71.7129 25.768C71.3529 25.768 70.9969 25.824 70.6449 25.936C70.3009 26.048 70.0089 26.204 69.7689 26.404L69.1809 25.312C69.5169 25.056 69.9209 24.86 70.3929 24.724C70.8649 24.588 71.3649 24.52 71.8929 24.52ZM71.6889 29.992C72.0649 29.992 72.3969 29.908 72.6849 29.74C72.9809 29.564 73.1889 29.316 73.3089 28.996V28.252H71.7609C70.8969 28.252 70.4649 28.536 70.4649 29.104C70.4649 29.376 70.5729 29.592 70.7889 29.752C71.0049 29.912 71.3049 29.992 71.6889 29.992ZM80.37 24.52C81.178 24.52 81.826 24.756 82.314 25.228C82.802 25.7 83.046 26.4 83.046 27.328V31H81.546V27.52C81.546 26.96 81.414 26.54 81.15 26.26C80.886 25.972 80.51 25.828 80.022 25.828C79.47 25.828 79.034 25.996 78.714 26.332C78.394 26.66 78.234 27.136 78.234 27.76V31H76.734V22.096H78.234V25.336C78.482 25.072 78.786 24.872 79.146 24.736C79.514 24.592 79.922 24.52 80.37 24.52ZM87.3968 24.52C88.3408 24.52 89.0608 24.748 89.5568 25.204C90.0608 25.652 90.3128 26.332 90.3128 27.244V31H88.8968V30.22C88.7128 30.5 88.4488 30.716 88.1048 30.868C87.7688 31.012 87.3608 31.084 86.8808 31.084C86.4008 31.084 85.9808 31.004 85.6208 30.844C85.2608 30.676 84.9808 30.448 84.7808 30.16C84.5888 29.864 84.4928 29.532 84.4928 29.164C84.4928 28.588 84.7048 28.128 85.1288 27.784C85.5608 27.432 86.2368 27.256 87.1568 27.256H88.8128V27.16C88.8128 26.712 88.6768 26.368 88.4048 26.128C88.1408 25.888 87.7448 25.768 87.2168 25.768C86.8568 25.768 86.5008 25.824 86.1488 25.936C85.8048 26.048 85.5128 26.204 85.2728 26.404L84.6848 25.312C85.0208 25.056 85.4248 24.86 85.8968 24.724C86.3688 24.588 86.8688 24.52 87.3968 24.52ZM87.1928 29.992C87.5688 29.992 87.9008 29.908 88.1888 29.74C88.4848 29.564 88.6928 29.316 88.8128 28.996V28.252H87.2648C86.4008 28.252 85.9688 28.536 85.9688 29.104C85.9688 29.376 86.0768 29.592 86.2928 29.752C86.5088 29.912 86.8088 29.992 87.1928 29.992ZM94.2179 31.084C93.6979 31.084 93.1899 31.016 92.6939 30.88C92.1979 30.744 91.8019 30.572 91.5059 30.364L92.0819 29.224C92.3699 29.416 92.7139 29.572 93.1139 29.692C93.5219 29.804 93.9219 29.86 94.3139 29.86C95.2099 29.86 95.6579 29.624 95.6579 29.152C95.6579 28.928 95.5419 28.772 95.3099 28.684C95.0859 28.596 94.7219 28.512 94.2179 28.432C93.6899 28.352 93.2579 28.26 92.9219 28.156C92.5939 28.052 92.3059 27.872 92.0579 27.616C91.8179 27.352 91.6979 26.988 91.6979 26.524C91.6979 25.916 91.9499 25.432 92.4539 25.072C92.9659 24.704 93.6539 24.52 94.5179 24.52C94.9579 24.52 95.3979 24.572 95.8379 24.676C96.2779 24.772 96.6379 24.904 96.9179 25.072L96.3419 26.212C95.7979 25.892 95.1859 25.732 94.5059 25.732C94.0659 25.732 93.7299 25.8 93.4979 25.936C93.2739 26.064 93.1619 26.236 93.1619 26.452C93.1619 26.692 93.2819 26.864 93.5219 26.968C93.7699 27.064 94.1499 27.156 94.6619 27.244C95.1739 27.324 95.5939 27.416 95.9219 27.52C96.2499 27.624 96.5299 27.8 96.7619 28.048C97.0019 28.296 97.1219 28.648 97.1219 29.104C97.1219 29.704 96.8619 30.184 96.3419 30.544C95.8219 30.904 95.1139 31.084 94.2179 31.084ZM98.4137 24.592H99.9137V31H98.4137V24.592ZM99.1697 23.536C98.8977 23.536 98.6697 23.452 98.4857 23.284C98.3017 23.108 98.2097 22.892 98.2097 22.636C98.2097 22.38 98.3017 22.168 98.4857 22C98.6697 21.824 98.8977 21.736 99.1697 21.736C99.4417 21.736 99.6697 21.82 99.8537 21.988C100.038 22.148 100.13 22.352 100.13 22.6C100.13 22.864 100.038 23.088 99.8537 23.272C99.6777 23.448 99.4497 23.536 99.1697 23.536ZM111.878 24.592L109.514 31H108.074L106.418 26.584L104.738 31H103.298L100.946 24.592H102.362L104.054 29.32L105.818 24.592H107.078L108.806 29.344L110.546 24.592H111.878ZM115.159 24.52C116.103 24.52 116.823 24.748 117.319 25.204C117.823 25.652 118.075 26.332 118.075 27.244V31H116.659V30.22C116.475 30.5 116.211 30.716 115.867 30.868C115.531 31.012 115.123 31.084 114.643 31.084C114.163 31.084 113.743 31.004 113.383 30.844C113.023 30.676 112.743 30.448 112.543 30.16C112.351 29.864 112.255 29.532 112.255 29.164C112.255 28.588 112.467 28.128 112.891 27.784C113.323 27.432 113.999 27.256 114.919 27.256H116.575V27.16C116.575 26.712 116.439 26.368 116.167 26.128C115.903 25.888 115.507 25.768 114.979 25.768C114.619 25.768 114.263 25.824 113.911 25.936C113.567 26.048 113.275 26.204 113.035 26.404L112.447 25.312C112.783 25.056 113.187 24.86 113.659 24.724C114.131 24.588 114.631 24.52 115.159 24.52ZM114.955 29.992C115.331 29.992 115.663 29.908 115.951 29.74C116.247 29.564 116.455 29.316 116.575 28.996V28.252H115.027C114.163 28.252 113.731 28.536 113.731 29.104C113.731 29.376 113.839 29.592 114.055 29.752C114.271 29.912 114.571 29.992 114.955 29.992ZM129.592 22.096V31H128.152V30.172C127.904 30.476 127.596 30.704 127.228 30.856C126.868 31.008 126.468 31.084 126.028 31.084C125.412 31.084 124.856 30.948 124.36 30.676C123.872 30.404 123.488 30.02 123.208 29.524C122.928 29.02 122.788 28.444 122.788 27.796C122.788 27.148 122.928 26.576 123.208 26.08C123.488 25.584 123.872 25.2 124.36 24.928C124.856 24.656 125.412 24.52 126.028 24.52C126.452 24.52 126.84 24.592 127.192 24.736C127.544 24.88 127.844 25.096 128.092 25.384V22.096H129.592ZM126.208 29.8C126.568 29.8 126.892 29.72 127.18 29.56C127.468 29.392 127.696 29.156 127.864 28.852C128.032 28.548 128.116 28.196 128.116 27.796C128.116 27.396 128.032 27.044 127.864 26.74C127.696 26.436 127.468 26.204 127.18 26.044C126.892 25.876 126.568 25.792 126.208 25.792C125.848 25.792 125.524 25.876 125.236 26.044C124.948 26.204 124.72 26.436 124.552 26.74C124.384 27.044 124.3 27.396 124.3 27.796C124.3 28.196 124.384 28.548 124.552 28.852C124.72 29.156 124.948 29.392 125.236 29.56C125.524 29.72 125.848 29.8 126.208 29.8ZM134.002 24.52C134.946 24.52 135.666 24.748 136.162 25.204C136.666 25.652 136.918 26.332 136.918 27.244V31H135.502V30.22C135.318 30.5 135.054 30.716 134.71 30.868C134.374 31.012 133.966 31.084 133.486 31.084C133.006 31.084 132.586 31.004 132.226 30.844C131.866 30.676 131.586 30.448 131.386 30.16C131.194 29.864 131.098 29.532 131.098 29.164C131.098 28.588 131.31 28.128 131.734 27.784C132.166 27.432 132.842 27.256 133.762 27.256H135.418V27.16C135.418 26.712 135.282 26.368 135.01 26.128C134.746 25.888 134.35 25.768 133.822 25.768C133.462 25.768 133.106 25.824 132.754 25.936C132.41 26.048 132.118 26.204 131.878 26.404L131.29 25.312C131.626 25.056 132.03 24.86 132.502 24.724C132.974 24.588 133.474 24.52 134.002 24.52ZM133.798 29.992C134.174 29.992 134.506 29.908 134.794 29.74C135.09 29.564 135.298 29.316 135.418 28.996V28.252H133.87C133.006 28.252 132.574 28.536 132.574 29.104C132.574 29.376 132.682 29.592 132.898 29.752C133.114 29.912 133.414 29.992 133.798 29.992ZM142.479 24.52C143.287 24.52 143.935 24.756 144.423 25.228C144.911 25.7 145.155 26.4 145.155 27.328V31H143.655V27.52C143.655 26.96 143.523 26.54 143.259 26.26C142.995 25.972 142.619 25.828 142.131 25.828C141.579 25.828 141.143 25.996 140.823 26.332C140.503 26.66 140.343 27.136 140.343 27.76V31H138.843V24.592H140.271V25.42C140.519 25.124 140.831 24.9 141.207 24.748C141.583 24.596 142.007 24.52 142.479 24.52ZM153.927 24.52C154.551 24.52 155.107 24.656 155.595 24.928C156.091 25.2 156.479 25.584 156.759 26.08C157.039 26.576 157.179 27.148 157.179 27.796C157.179 28.444 157.039 29.02 156.759 29.524C156.479 30.02 156.091 30.404 155.595 30.676C155.107 30.948 154.551 31.084 153.927 31.084C153.063 31.084 152.379 30.796 151.875 30.22V33.328H150.375V24.592H151.803V25.432C152.051 25.128 152.355 24.9 152.715 24.748C153.083 24.596 153.487 24.52 153.927 24.52ZM153.759 29.8C154.311 29.8 154.763 29.616 155.115 29.248C155.475 28.88 155.655 28.396 155.655 27.796C155.655 27.196 155.475 26.712 155.115 26.344C154.763 25.976 154.311 25.792 153.759 25.792C153.399 25.792 153.075 25.876 152.787 26.044C152.499 26.204 152.271 26.436 152.103 26.74C151.935 27.044 151.851 27.396 151.851 27.796C151.851 28.196 151.935 28.548 152.103 28.852C152.271 29.156 152.499 29.392 152.787 29.56C153.075 29.72 153.399 29.8 153.759 29.8ZM164.625 27.832C164.625 27.936 164.617 28.084 164.601 28.276H159.573C159.661 28.748 159.889 29.124 160.257 29.404C160.633 29.676 161.097 29.812 161.649 29.812C162.353 29.812 162.933 29.58 163.389 29.116L164.193 30.04C163.905 30.384 163.541 30.644 163.101 30.82C162.661 30.996 162.165 31.084 161.613 31.084C160.909 31.084 160.289 30.944 159.753 30.664C159.217 30.384 158.801 29.996 158.505 29.5C158.217 28.996 158.073 28.428 158.073 27.796C158.073 27.172 158.213 26.612 158.493 26.116C158.781 25.612 159.177 25.22 159.681 24.94C160.185 24.66 160.753 24.52 161.385 24.52C162.009 24.52 162.565 24.66 163.053 24.94C163.549 25.212 163.933 25.6 164.205 26.104C164.485 26.6 164.625 27.176 164.625 27.832ZM161.385 25.72C160.905 25.72 160.497 25.864 160.161 26.152C159.833 26.432 159.633 26.808 159.561 27.28H163.197C163.133 26.816 162.937 26.44 162.609 26.152C162.281 25.864 161.873 25.72 161.385 25.72ZM166.066 22.096H167.566V31H166.066V22.096ZM171.983 24.52C172.927 24.52 173.647 24.748 174.143 25.204C174.647 25.652 174.899 26.332 174.899 27.244V31H173.483V30.22C173.299 30.5 173.035 30.716 172.691 30.868C172.355 31.012 171.947 31.084 171.467 31.084C170.987 31.084 170.567 31.004 170.207 30.844C169.847 30.676 169.567 30.448 169.367 30.16C169.175 29.864 169.079 29.532 169.079 29.164C169.079 28.588 169.291 28.128 169.715 27.784C170.147 27.432 170.823 27.256 171.743 27.256H173.399V27.16C173.399 26.712 173.263 26.368 172.991 26.128C172.727 25.888 172.331 25.768 171.803 25.768C171.443 25.768 171.087 25.824 170.735 25.936C170.391 26.048 170.099 26.204 169.859 26.404L169.271 25.312C169.607 25.056 170.011 24.86 170.483 24.724C170.955 24.588 171.455 24.52 171.983 24.52ZM171.779 29.992C172.155 29.992 172.487 29.908 172.775 29.74C173.071 29.564 173.279 29.316 173.399 28.996V28.252H171.851C170.987 28.252 170.555 28.536 170.555 29.104C170.555 29.376 170.663 29.592 170.879 29.752C171.095 29.912 171.395 29.992 171.779 29.992ZM176.164 33.412C175.532 33.412 175.052 33.288 174.724 33.04L175.156 31.924C175.38 32.092 175.672 32.176 176.032 32.176C176.312 32.176 176.524 32.088 176.668 31.912C176.82 31.744 176.896 31.492 176.896 31.156V24.592H178.396V31.12C178.396 31.832 178.2 32.392 177.808 32.8C177.416 33.208 176.868 33.412 176.164 33.412ZM177.64 23.536C177.368 23.536 177.14 23.452 176.956 23.284C176.772 23.108 176.68 22.892 176.68 22.636C176.68 22.38 176.772 22.168 176.956 22C177.14 21.824 177.368 21.736 177.64 21.736C177.912 21.736 178.14 21.82 178.324 21.988C178.508 22.148 178.6 22.352 178.6 22.6C178.6 22.864 178.508 23.088 178.324 23.272C178.148 23.448 177.92 23.536 177.64 23.536ZM182.811 24.52C183.755 24.52 184.475 24.748 184.971 25.204C185.475 25.652 185.727 26.332 185.727 27.244V31H184.311V30.22C184.127 30.5 183.863 30.716 183.519 30.868C183.183 31.012 182.775 31.084 182.295 31.084C181.815 31.084 181.395 31.004 181.035 30.844C180.675 30.676 180.395 30.448 180.195 30.16C180.003 29.864 179.907 29.532 179.907 29.164C179.907 28.588 180.119 28.128 180.543 27.784C180.975 27.432 181.651 27.256 182.571 27.256H184.227V27.16C184.227 26.712 184.091 26.368 183.819 26.128C183.555 25.888 183.159 25.768 182.631 25.768C182.271 25.768 181.915 25.824 181.563 25.936C181.219 26.048 180.927 26.204 180.687 26.404L180.099 25.312C180.435 25.056 180.839 24.86 181.311 24.724C181.783 24.588 182.283 24.52 182.811 24.52ZM182.607 29.992C182.983 29.992 183.315 29.908 183.603 29.74C183.899 29.564 184.107 29.316 184.227 28.996V28.252H182.679C181.815 28.252 181.383 28.536 181.383 29.104C181.383 29.376 181.491 29.592 181.707 29.752C181.923 29.912 182.223 29.992 182.607 29.992ZM189.08 25.528C189.512 24.856 190.272 24.52 191.36 24.52V25.948C191.232 25.924 191.116 25.912 191.012 25.912C190.428 25.912 189.972 26.084 189.644 26.428C189.316 26.764 189.152 27.252 189.152 27.892V31H187.652V24.592H189.08V25.528ZM199.859 30.652C199.683 30.796 199.467 30.904 199.211 30.976C198.963 31.048 198.699 31.084 198.419 31.084C197.715 31.084 197.171 30.9 196.787 30.532C196.403 30.164 196.211 29.628 196.211 28.924V25.84H195.155V24.64H196.211V23.176H197.711V24.64H199.427V25.84H197.711V28.888C197.711 29.2 197.787 29.44 197.939 29.608C198.091 29.768 198.311 29.848 198.599 29.848C198.935 29.848 199.215 29.76 199.439 29.584L199.859 30.652ZM206.906 27.832C206.906 27.936 206.898 28.084 206.882 28.276H201.854C201.942 28.748 202.17 29.124 202.538 29.404C202.914 29.676 203.378 29.812 203.93 29.812C204.634 29.812 205.214 29.58 205.67 29.116L206.474 30.04C206.186 30.384 205.822 30.644 205.382 30.82C204.942 30.996 204.446 31.084 203.894 31.084C203.19 31.084 202.57 30.944 202.034 30.664C201.498 30.384 201.082 29.996 200.786 29.5C200.498 28.996 200.354 28.428 200.354 27.796C200.354 27.172 200.494 26.612 200.774 26.116C201.062 25.612 201.458 25.22 201.962 24.94C202.466 24.66 203.034 24.52 203.666 24.52C204.29 24.52 204.846 24.66 205.334 24.94C205.83 25.212 206.214 25.6 206.486 26.104C206.766 26.6 206.906 27.176 206.906 27.832ZM203.666 25.72C203.186 25.72 202.778 25.864 202.442 26.152C202.114 26.432 201.914 26.808 201.842 27.28H205.478C205.414 26.816 205.218 26.44 204.89 26.152C204.562 25.864 204.154 25.72 203.666 25.72ZM209.775 25.528C210.207 24.856 210.967 24.52 212.055 24.52V25.948C211.927 25.924 211.811 25.912 211.707 25.912C211.123 25.912 210.667 26.084 210.339 26.428C210.011 26.764 209.847 27.252 209.847 27.892V31H208.347V24.592H209.775V25.528ZM219.545 22.096V31H218.105V30.172C217.857 30.476 217.549 30.704 217.181 30.856C216.821 31.008 216.421 31.084 215.981 31.084C215.365 31.084 214.809 30.948 214.313 30.676C213.825 30.404 213.441 30.02 213.161 29.524C212.881 29.02 212.741 28.444 212.741 27.796C212.741 27.148 212.881 26.576 213.161 26.08C213.441 25.584 213.825 25.2 214.313 24.928C214.809 24.656 215.365 24.52 215.981 24.52C216.405 24.52 216.793 24.592 217.145 24.736C217.497 24.88 217.797 25.096 218.045 25.384V22.096H219.545ZM216.161 29.8C216.521 29.8 216.845 29.72 217.133 29.56C217.421 29.392 217.649 29.156 217.817 28.852C217.985 28.548 218.069 28.196 218.069 27.796C218.069 27.396 217.985 27.044 217.817 26.74C217.649 26.436 217.421 26.204 217.133 26.044C216.845 25.876 216.521 25.792 216.161 25.792C215.801 25.792 215.477 25.876 215.189 26.044C214.901 26.204 214.673 26.436 214.505 26.74C214.337 27.044 214.253 27.396 214.253 27.796C214.253 28.196 214.337 28.548 214.505 28.852C214.673 29.156 214.901 29.392 215.189 29.56C215.477 29.72 215.801 29.8 216.161 29.8ZM223.955 24.52C224.899 24.52 225.619 24.748 226.115 25.204C226.619 25.652 226.871 26.332 226.871 27.244V31H225.455V30.22C225.271 30.5 225.007 30.716 224.663 30.868C224.327 31.012 223.919 31.084 223.439 31.084C222.959 31.084 222.539 31.004 222.179 30.844C221.819 30.676 221.539 30.448 221.339 30.16C221.147 29.864 221.051 29.532 221.051 29.164C221.051 28.588 221.263 28.128 221.687 27.784C222.119 27.432 222.795 27.256 223.715 27.256H225.371V27.16C225.371 26.712 225.235 26.368 224.963 26.128C224.699 25.888 224.303 25.768 223.775 25.768C223.415 25.768 223.059 25.824 222.707 25.936C222.363 26.048 222.071 26.204 221.831 26.404L221.243 25.312C221.579 25.056 221.983 24.86 222.455 24.724C222.927 24.588 223.427 24.52 223.955 24.52ZM223.751 29.992C224.127 29.992 224.459 29.908 224.747 29.74C225.043 29.564 225.251 29.316 225.371 28.996V28.252H223.823C222.959 28.252 222.527 28.536 222.527 29.104C222.527 29.376 222.635 29.592 222.851 29.752C223.067 29.912 223.367 29.992 223.751 29.992ZM231.401 23.224C230.769 23.224 230.453 23.568 230.453 24.256V24.64H232.217V25.84H230.501V31H229.001V25.84H227.945V24.64H229.001V24.232C229.001 23.544 229.201 23.004 229.601 22.612C230.001 22.212 230.565 22.012 231.293 22.012C231.869 22.012 232.321 22.128 232.649 22.36L232.229 23.488C231.973 23.312 231.697 23.224 231.401 23.224ZM237.078 30.652C236.902 30.796 236.686 30.904 236.43 30.976C236.182 31.048 235.918 31.084 235.638 31.084C234.934 31.084 234.39 30.9 234.006 30.532C233.622 30.164 233.43 29.628 233.43 28.924V25.84H232.374V24.64H233.43V23.176H234.93V24.64H236.646V25.84H234.93V28.888C234.93 29.2 235.006 29.44 235.158 29.608C235.31 29.768 235.53 29.848 235.818 29.848C236.154 29.848 236.434 29.76 236.658 29.584L237.078 30.652ZM240.76 24.52C241.704 24.52 242.424 24.748 242.92 25.204C243.424 25.652 243.676 26.332 243.676 27.244V31H242.26V30.22C242.076 30.5 241.812 30.716 241.468 30.868C241.132 31.012 240.724 31.084 240.244 31.084C239.764 31.084 239.344 31.004 238.984 30.844C238.624 30.676 238.344 30.448 238.144 30.16C237.952 29.864 237.856 29.532 237.856 29.164C237.856 28.588 238.068 28.128 238.492 27.784C238.924 27.432 239.6 27.256 240.52 27.256H242.176V27.16C242.176 26.712 242.04 26.368 241.768 26.128C241.504 25.888 241.108 25.768 240.58 25.768C240.22 25.768 239.864 25.824 239.512 25.936C239.168 26.048 238.876 26.204 238.636 26.404L238.048 25.312C238.384 25.056 238.788 24.86 239.26 24.724C239.732 24.588 240.232 24.52 240.76 24.52ZM240.556 29.992C240.932 29.992 241.264 29.908 241.552 29.74C241.848 29.564 242.056 29.316 242.176 28.996V28.252H240.628C239.764 28.252 239.332 28.536 239.332 29.104C239.332 29.376 239.44 29.592 239.656 29.752C239.872 29.912 240.172 29.992 240.556 29.992ZM247.029 25.528C247.461 24.856 248.221 24.52 249.309 24.52V25.948C249.181 25.924 249.065 25.912 248.961 25.912C248.377 25.912 247.921 26.084 247.593 26.428C247.265 26.764 247.101 27.252 247.101 27.892V31H245.601V24.592H247.029V25.528Z" fill="white"/>
<path fill-rule="evenodd" clip-rule="evenodd" d="M4.88368 25.2704H4.74083C2.86748 27.2737 2.96001 28.9027 2.96001 31.5659C2.96001 34.0436 2.96001 36.5223 2.96001 39H5.89665V32.6086H7.83331V39H31.2144V32.6086H33.1511V39H39C39 36.0138 39 33.0318 39 30.0456C39 28.1266 38.8669 27.601 38.0114 26.2193C37.4822 25.3611 36.1754 24.1585 35.1072 23.6414C34.8166 23.9527 34.2793 25.1649 33.9757 25.6265C32.2826 28.2343 30.4044 30.036 27.4969 32.003L25.4223 33.2749C24.1382 34.0244 22.3672 34.792 20.6497 35.421C19.411 35.8773 19.7162 35.9381 17.9305 35.2483C16.2098 34.5831 13.5085 33.3389 12.1741 32.3954C11.2683 31.7578 11.0751 31.7429 10.2002 31.0478L7.58169 28.7748C6.79274 28.0178 5.33822 26.2715 4.88368 25.2704Z" fill="#4B4B4B"/>
<path fill-rule="evenodd" clip-rule="evenodd" d="M12.4339 9.84887C11.6742 10.1932 11.7018 13.2061 11.8771 13.8799C12.4939 16.2435 15.14 18.2073 18.6091 18.8939C21.4029 19.4472 22.2032 18.8662 24.3931 18.3406C25.497 17.9141 25.9158 17.6604 26.8005 17.074C27.3298 16.7233 28.2908 15.7957 28.4758 15.333C29.1982 13.8405 29.4288 13.2029 29.1528 11.4854L28.6512 9.65057C25.7843 9.79877 22.9077 10.1527 20.3591 10.6868C18.9874 10.9736 18.7861 10.6293 16.5994 10.2966C15.5637 10.1421 13.4598 9.76785 12.4339 9.84887Z" fill="#F1B7A1"/>
<path fill-rule="evenodd" clip-rule="evenodd" d="M1.01688 5.11634L2.90321 5.66007C3.56067 5.83811 4.15969 5.99803 4.84474 6.18567C5.51681 6.37011 6.16615 6.594 6.86094 6.69954V9.57382L10.382 9.61966C10.9891 9.70709 12.0102 9.65591 12.4339 9.84888C13.4599 9.76679 15.5637 10.1421 16.5978 10.2988C18.7828 10.6314 18.9857 10.9758 20.3575 10.689C22.9061 10.1538 25.7827 9.80091 28.6495 9.65271L32.0586 9.59195L32.1836 8.9608C29.6528 9.01517 27.2729 9.24226 24.8947 9.59195C20.0166 10.3084 23.385 10.4022 18.4289 9.74014C14.9728 9.27424 11.6368 9.53757 9.69044 7.47995C9.09142 6.85093 8.85766 6.25603 8.80247 5.40633C10.6839 5.15899 12.3787 4.84981 14.3835 4.67817C18.5474 4.32208 22.6383 4.4063 26.7616 4.89566C28.6122 5.11634 30.4612 5.5428 32.1868 5.72723V6.70061C33.3378 6.51937 37.2988 5.22296 38.026 5.18031V5.02359C37.4968 4.99374 36.2728 4.58861 35.7436 4.44042L19.5214 0L5.61096 3.79861C5.25545 3.90096 1.3448 4.9415 1.01688 5.11634Z" fill="#1F1F1F"/>
<path fill-rule="evenodd" clip-rule="evenodd" d="M32.1852 8.96078L32.1901 6.70059V5.72721C30.4644 5.54277 28.6138 5.11632 26.7648 4.89563C22.6415 4.40628 18.5507 4.32099 14.3868 4.67814C12.3803 4.85085 10.6872 5.15896 8.80569 5.40631C8.86089 6.25601 9.09627 6.85091 9.69367 7.47993C11.6401 9.53755 14.976 9.27529 18.4322 9.74012C23.3883 10.4022 20.0198 10.3084 24.898 9.59193C27.2746 9.24117 29.6528 9.01515 32.1852 8.96078Z" fill="#363636"/>
<path fill-rule="evenodd" clip-rule="evenodd" d="M21.8347 32.3154C21.6642 32.5211 21.1448 32.6629 20.7081 32.8229C19.4938 33.2674 19.7227 33.3762 18.2552 32.7951C17.8591 32.6406 17.3721 32.502 17.2114 32.3111C16.1302 31.9604 14.6384 31.0659 13.8381 30.5829C11.2975 29.0477 9.20826 26.941 7.9664 24.7651C7.81868 24.5017 7.36414 23.4868 7.20667 23.3663C6.88525 23.8407 5.29761 24.442 4.88366 25.2704C5.33982 26.2704 6.79272 28.0178 7.58004 28.7758L10.1985 31.0488C11.0735 31.7439 11.2667 31.7589 12.1725 32.3964C13.5069 33.3389 16.2081 34.5841 17.9289 35.2494C19.7146 35.9381 19.411 35.8784 20.648 35.4221C22.3639 34.7931 24.1366 34.0255 25.4207 33.276L27.4953 32.0041C30.4027 30.0371 32.2809 28.2353 33.9741 25.6276C34.2777 25.1649 34.8166 23.9537 35.1056 23.6424C34.7143 23.2864 32.8231 22.4249 32.1056 22.2917C32.1835 22.7693 30.979 24.9751 30.6608 25.4495C29.9888 26.4442 29.2534 27.3291 28.3557 28.1724C26.9206 29.5232 24.0619 31.5659 21.8347 32.3154Z" fill="#FFD88C"/>
<path fill-rule="evenodd" clip-rule="evenodd" d="M6.89336 22.3695L7.20667 23.3663C7.36251 23.4868 7.81867 24.5028 7.96639 24.7651C9.20826 26.941 11.2975 29.0477 13.838 30.5829C14.6384 31.0669 16.1302 31.9614 17.2114 32.3111L18.5279 27.4848L16.9078 25.8834C16.3088 26.1884 16.2812 26.3792 15.7715 26.7054L11.7634 21.7255L12.3705 21.411C11.6887 21.411 8.9193 21.7885 8.09626 21.9793L7.14823 22.2362C6.9031 22.3332 7.00375 22.2938 6.89336 22.3695Z" fill="#D7E0EF"/>
<path fill-rule="evenodd" clip-rule="evenodd" d="M22.1107 25.9687L20.523 27.4858L21.8347 32.3154C24.0619 31.5659 26.919 29.5232 28.3557 28.1724C29.2534 27.3291 29.9888 26.4442 30.6608 25.4495C30.979 24.9751 32.1835 22.7693 32.1056 22.2917C31.203 22.0347 30.6284 21.9143 29.6024 21.7479C29.0002 21.6477 27.3525 21.3577 26.8281 21.491L27.3151 21.7298L23.4191 26.7822C23.2811 26.7182 23.359 26.7577 23.2162 26.6639C23.2113 26.6607 23.0555 26.5434 23.0409 26.5338C22.5441 26.1564 22.5263 25.9389 22.1107 25.9687Z" fill="#D7E0EF"/>
<path fill-rule="evenodd" clip-rule="evenodd" d="M12.3705 21.411L11.7634 21.7255L15.7715 26.7054C16.2828 26.3792 16.3104 26.1883 16.9078 25.8834C17.036 25.6329 17.8234 25.055 18.1269 24.8109C18.5409 24.4751 19.0328 23.974 19.5214 23.7053C20.0181 23.9687 20.437 24.4154 20.8704 24.7661C21.3266 25.1382 21.984 25.4943 22.1123 25.9687C22.5262 25.9389 22.5441 26.1564 23.0424 26.5338C23.0571 26.5434 23.2129 26.6606 23.2178 26.6638C23.3606 26.7576 23.2827 26.7182 23.4207 26.7822L27.3183 21.7287L26.8313 21.4899L24.3557 20.4504C23.5879 21.4473 21.6999 22.5934 20.3103 23.2853C19.9191 23.4814 19.6334 23.6872 19.1042 23.4548C18.0782 23.007 16.5588 22.1125 15.8559 21.4569C15.5523 21.3151 14.8754 20.6743 14.7017 20.4504L12.3705 21.411Z" fill="#A5BADA"/>
<path fill-rule="evenodd" clip-rule="evenodd" d="M2.95904 39C2.95904 36.5223 2.95904 34.0436 2.95904 31.5659C2.95904 28.9038 2.86651 27.2747 4.73986 25.2704C4.75447 24.7811 4.20091 24.1158 4.00286 23.5689C3.11975 24.1339 2.33243 24.6446 1.71069 25.3824C0.256164 27.1052 0.0451279 27.9059 0.0451279 29.9667C0.0451279 32.9764 0.0451279 35.9871 0.0451279 39H2.95904Z" fill="#363636"/>
<path fill-rule="evenodd" clip-rule="evenodd" d="M7.59303 11.6474C6.85603 11.9342 6.50214 12.0952 6.1304 12.6144C5.44859 13.5547 6.0752 14.7808 7.75861 15.2254C8.49561 15.4215 9.69202 15.3341 10.6352 15.3341C10.6725 15.6156 11.0913 16.0196 11.317 16.2467C11.9842 16.9141 13.5166 18.0932 14.653 18.2926L14.6984 20.4505C14.8738 20.6743 15.5491 21.3151 15.8526 21.4569C16.239 20.4931 17.6481 19.8492 19.5198 19.8097C21.9905 19.7553 22.5473 19.4536 24.3931 18.9696V18.3406C22.2032 18.8662 21.4012 19.4462 18.6091 18.8939C15.14 18.2084 12.4939 16.2435 11.877 13.8799C11.7017 13.2061 11.6741 10.1932 12.4339 9.84888C12.0102 9.65591 10.9891 9.70708 10.3819 9.61966L9.89819 11.496C8.86736 11.496 8.53133 11.4811 7.59303 11.6474Z" fill="#CF8C77"/>
<path fill-rule="evenodd" clip-rule="evenodd" d="M15.8526 21.4569C16.5572 22.1125 18.075 23.007 19.101 23.4548C19.6302 23.6872 19.9159 23.4825 20.3071 23.2853C21.6967 22.5934 23.583 21.4483 24.3525 20.4505L24.3947 18.9696C22.549 19.4536 21.9921 19.7553 19.5214 19.8097C17.6481 19.8492 16.239 20.4931 15.8526 21.4569Z" fill="#F1B7A1"/>
<path fill-rule="evenodd" clip-rule="evenodd" d="M17.2114 32.3122C17.3721 32.503 17.8607 32.6416 18.2552 32.7962C19.7227 33.3762 19.4938 33.2674 20.7081 32.8239C21.1447 32.664 21.6658 32.5222 21.8347 32.3164L20.523 27.4869H18.5263L17.2114 32.3122Z" fill="#096BDA"/>
<path fill-rule="evenodd" clip-rule="evenodd" d="M28.4758 15.3341C30.2193 15.3341 31.8816 15.5516 32.8751 14.2701C33.6202 13.3117 33.0731 12.2391 31.453 11.6528C30.4953 11.4651 30.169 11.5195 29.1528 11.4865C29.4287 13.204 29.1982 13.8415 28.4758 15.3341Z" fill="#CF8C77"/>
<path d="M7.83164 32.6086H5.89499V39H7.83164V32.6086Z" fill="#363636"/>
<path d="M33.1494 32.6086H31.2128V39H33.1494V32.6086Z" fill="#363636"/>
<path fill-rule="evenodd" clip-rule="evenodd" d="M16.9078 25.8845L18.5279 27.4858H20.5246L22.1123 25.9687C21.984 25.4943 21.325 25.1371 20.8704 24.7661C20.4386 24.4154 20.0198 23.9687 19.5214 23.7053C19.0344 23.974 18.5409 24.4761 18.127 24.8109C17.8234 25.0561 17.0361 25.6329 16.9078 25.8845Z" fill="#0659BD"/>
<path fill-rule="evenodd" clip-rule="evenodd" d="M1.01688 9.7284C1.84966 9.56528 2.14348 9.56208 2.96815 9.7316L2.90321 5.66112L1.01688 5.11633V9.7284Z" fill="#C1CFE6"/>
<path fill-rule="evenodd" clip-rule="evenodd" d="M1.01685 9.72839C-0.999352 10.7199 0.331796 12.1464 1.99248 12.1464C2.93078 12.1464 3.69051 11.7167 3.89343 11.2242C4.20673 10.4502 3.54441 10.0067 2.96812 9.73159C2.14508 9.56208 1.85125 9.56528 1.01685 9.72839Z" fill="#F6CA5F"/>
<path fill-rule="evenodd" clip-rule="evenodd" d="M7.59306 11.6474C8.53136 11.4811 8.86739 11.496 9.89822 11.496L10.382 9.61964L6.86093 9.57379L7.59306 11.6474Z" fill="#363636"/>
<path fill-rule="evenodd" clip-rule="evenodd" d="M28.6511 9.65272L29.1528 11.4875C30.169 11.5206 30.4969 11.4662 31.4531 11.6538C31.6738 11.0408 31.9725 10.2604 32.0602 9.59302L28.6511 9.65272Z" fill="#4B4B4B"/>
<path fill-rule="evenodd" clip-rule="evenodd" d="M4.0038 23.5689C4.20185 24.1158 4.75379 24.7811 4.7408 25.2704H4.88365C5.29761 24.442 6.88524 23.8408 7.20667 23.3663L6.89336 22.3695C6.02 22.49 4.58821 23.1798 4.0038 23.5689Z" fill="#F6CA5F"/>
</svg>
