<svg width="1440" height="626" viewBox="0 0 1440 626" fill="none" xmlns="http://www.w3.org/2000/svg">
<rect width="1440" height="626" fill="white"/>
<path fill-rule="evenodd" clip-rule="evenodd" d="M0 531.798L60 516.58C120 500.639 240 469.479 360 474.552C480 479.624 600 521.653 720 547.74C840 573.826 960 583.971 1080 578.899C1200 573.826 1320 552.812 1380 542.667L1440 531.798V626H1380C1320 626 1200 626 1080 626C960 626 840 626 720 626C600 626 480 626 360 626C240 626 120 626 60 626H0V531.798Z" fill="#C7E4FF"/>
</svg>
