<svg width="253" height="40" viewBox="0 0 253 40" fill="none" xmlns="http://www.w3.org/2000/svg">
<path fill-rule="evenodd" clip-rule="evenodd" d="M29.8013 11.0549C30.2989 11.6484 30.3376 11.3071 31.2622 12.6201C33.0686 15.1813 32.2936 17.445 32.4894 20.25C32.4701 21.6579 31.7296 21.8395 30.462 21.8487C30.462 22.4901 30.5124 23.2542 30.388 23.8552C30.2401 24.5772 29.9568 24.8033 29.7753 25.2993L29.7778 29.3643C30.7663 29.5021 31.8313 29.9384 32.5516 30.3721C37.0503 33.0905 36.4114 37.6515 36.5569 37.9751C37.1141 38.1062 50.5857 38.018 52.0205 38.0205C52.7115 38.023 53.0687 38.0398 53.4831 37.7322C53.7781 37.5128 53.9714 37.1816 54 36.7025V8.99386C54.0025 6.79912 53.2183 7.01851 50.8026 7.01851C49.6283 7.01851 48.4557 7.01851 47.2832 7.01851L47.2739 9.07035L36.5182 9.03672L36.5064 7.01851C34.7715 7.01851 32.8584 6.9395 31.1479 7.01599C30.3973 7.04709 29.8324 7.59767 29.7778 8.31215C29.7341 8.9056 29.7324 10.4884 29.8013 11.0549Z" fill="#E6E7E8"/>
<path fill-rule="evenodd" clip-rule="evenodd" d="M15 40H36.556V37.9751C36.4106 37.6506 37.0494 33.0905 32.5508 30.3721C31.8312 29.9384 30.7663 29.5021 29.7769 29.3643C29.46 29.2903 29.5533 29.2667 29.1692 29.2592C28.812 29.2541 28.7405 29.3046 28.4732 29.1852L28.4615 29.2592L28.5808 29.4668C29.3382 30.6747 29.9148 30.963 29.5718 31.7969L28.7212 33.9176C28.664 34.0605 28.6262 34.1841 28.5733 34.3009C28.5304 34.3942 28.5396 34.3749 28.4926 34.4514C28.4135 34.5733 28.4732 34.4993 28.3808 34.585C27.9588 34.137 26.1104 32.9888 25.812 32.5862L25.6784 32.534C25.6095 32.7627 25.633 32.6963 25.3926 32.8745L23.0668 34.5825C22.6591 33.6966 22.3254 32.6786 21.9371 31.7658C21.6345 31.053 21.9295 30.958 22.2758 30.441C22.4876 30.1191 22.8382 29.5072 23.1122 29.3071L23.0643 29.1852C22.8045 29.3189 22.4162 29.2373 22.0371 29.2903C20.9721 29.4424 20.2501 29.6736 19.3137 30.1477C16.4012 31.6279 15 34.4514 15 37.6388C15 38.4281 15 39.2141 15 40Z" fill="#3D9AE1"/>
<path fill-rule="evenodd" clip-rule="evenodd" d="M19.0363 20.2214C19.0363 21.7176 19.792 21.8723 21.0184 21.8723C21.0184 23.3567 20.9637 24.5722 22.0623 25.6254C22.4053 25.9541 22.66 26.0709 23.0752 26.2903L23.066 29.1852L23.1139 29.3071L25.6801 32.5332L25.8137 32.5853L28.4632 29.2592L28.4749 29.1852L28.4842 26.2903C28.7868 26.1306 28.9154 26.0617 29.1801 25.8448C29.4088 25.659 29.5374 25.4632 29.7761 25.2993C29.9568 24.8033 30.2409 24.5772 30.3889 23.8552C30.5124 23.255 30.4628 22.4901 30.4628 21.8487C31.7304 21.8395 32.4718 21.6579 32.4902 20.2499C32.1591 19.29 31.6446 19.1732 30.4696 19.1538C30.4696 17.1718 30.5124 18.0628 29.8164 17.3382C29.576 17.086 29.4399 16.9381 29.2592 16.6784C28.9397 16.2236 28.5161 15.2872 28.3917 15.1628C27.3007 16.8162 24.1772 17.8787 22.1018 18.3032C21.8018 18.3654 21.263 18.3511 21.0579 18.5965C21.0579 19.6187 20.8292 18.9588 19.9214 19.2539C19.365 19.4354 19.2742 19.8616 19.0363 20.2214Z" fill="#F9D5A6"/>
<path fill-rule="evenodd" clip-rule="evenodd" d="M19.0364 20.2214C19.2742 19.8616 19.365 19.4354 19.9206 19.2539C20.8284 18.9588 21.057 19.6187 21.057 18.5965C21.2621 18.3511 21.8001 18.3654 22.101 18.3032C24.1763 17.8787 27.2998 16.8162 28.3909 15.1628C28.5144 15.2864 28.9389 16.2228 29.2583 16.6783C29.439 16.9381 29.5752 17.086 29.8156 17.3382C30.5116 18.0628 30.4687 17.1718 30.4687 19.1538C31.643 19.1732 32.1582 19.29 32.4894 20.2499C32.2944 17.4458 33.0686 15.1821 31.2622 12.6201C30.3376 11.3071 30.2998 11.6475 29.8013 11.0549C28.195 10.1639 27.8765 9.77305 25.5103 9.75876C22.5583 9.74195 19.8584 12.0964 19.2347 14.7551C18.9313 16.0471 19.0364 18.7277 19.0364 20.2214Z" fill="#77757F"/>
<path fill-rule="evenodd" clip-rule="evenodd" d="M36.5064 7.01849L36.5182 9.03671L47.2739 9.07033L47.2831 7.01849C47.3622 5.92995 46.4401 4.77669 45.365 4.45727C44.8859 4.31437 44.5219 4.3522 43.9453 4.3522C43.9453 3.09891 44.2714 1.65481 43.1518 1.10927C43.0425 1.05716 42.7946 1.01849 42.4945 1H41.2959C41.0193 1.01933 40.7932 1.05043 40.6907 1.09498C39.5635 1.59765 39.8333 2.96273 39.8333 4.3522C38.7919 4.3522 38.0967 4.34968 37.289 5.15747L36.8098 5.82236C36.6468 6.14934 36.4795 6.58476 36.5064 7.01849Z" fill="#FFA636"/>
<path fill-rule="evenodd" clip-rule="evenodd" d="M35.1716 15.7941H48.5936L48.6171 11.7602H35.1859L35.1716 15.7941Z" fill="#FED32A"/>
<path fill-rule="evenodd" clip-rule="evenodd" d="M34.5 28.5707H49.2769L49.2887 27.2242H34.5378L34.5 28.5707Z" fill="#ABAAB0"/>
<path fill-rule="evenodd" clip-rule="evenodd" d="M38.5363 32.6047H49.287L49.2887 31.2606H38.538L38.5363 32.6047Z" fill="#88878F"/>
<path fill-rule="evenodd" clip-rule="evenodd" d="M38.5313 20.5004H49.2937L49.287 19.1564H38.5767L38.5313 20.5004Z" fill="#ABAAB0"/>
<path fill-rule="evenodd" clip-rule="evenodd" d="M34.4975 24.5368H42.5676L42.5651 23.1928L34.5236 23.1902L34.4975 24.5368Z" fill="#C6C4C9"/>
<path fill-rule="evenodd" clip-rule="evenodd" d="M25.6792 32.5332L23.113 29.3071C22.839 29.5072 22.4885 30.1199 22.2767 30.441C21.9312 30.958 21.6353 31.0538 21.9379 31.7658C22.3262 32.6786 22.6599 33.6957 23.0676 34.5825L25.3934 32.8745C25.6338 32.6946 25.6103 32.7618 25.6792 32.5332Z" fill="#1F81CD"/>
<path fill-rule="evenodd" clip-rule="evenodd" d="M25.8129 32.5853C26.1104 32.988 27.9596 34.1362 28.3816 34.5842C28.4749 34.4985 28.4152 34.5724 28.4934 34.4505C28.5413 34.3741 28.5312 34.3934 28.5741 34.3001C28.6262 34.1832 28.6649 34.0597 28.722 33.9168L29.5727 31.796C29.9156 30.9622 29.339 30.6739 28.5817 29.466L28.4623 29.2583L25.8129 32.5853Z" fill="#1F81CD"/>
<path fill-rule="evenodd" clip-rule="evenodd" d="M43.9134 24.4914C44.5135 24.6537 48.3616 24.5368 49.2937 24.5368V24.4629L49.2862 23.1902L43.9226 23.1928L43.9134 24.4914Z" fill="#ABAAB0"/>
<path fill-rule="evenodd" clip-rule="evenodd" d="M34.4975 20.5004H37.1898L37.1805 19.1564H34.5286L34.4975 20.5004Z" fill="#88878F"/>
<path fill-rule="evenodd" clip-rule="evenodd" d="M41.6195 2.45839C41.2648 2.64416 41.0908 2.92995 41.3388 3.37546C41.4892 3.64696 41.9271 3.76885 42.2608 3.58056C42.882 3.23004 42.4701 2.01541 41.6195 2.45839Z" fill="#CA7306"/>
<path fill-rule="evenodd" clip-rule="evenodd" d="M23.4299 19.2513C22.7533 19.633 23.1677 20.7593 23.999 20.4357C24.7765 20.1331 24.2755 18.7731 23.4299 19.2513Z" fill="#5F3712"/>
<path fill-rule="evenodd" clip-rule="evenodd" d="M27.4637 19.2496C26.7636 19.6313 27.2301 20.7534 28.0353 20.4365C28.8027 20.1306 28.3169 18.7848 27.4637 19.2496Z" fill="#5F3712"/>
<path d="M80.612 16.68V18H74.42V16.956L77.756 13.788C78.132 13.428 78.384 13.116 78.512 12.852C78.648 12.58 78.716 12.312 78.716 12.048C78.716 11.656 78.584 11.356 78.32 11.148C78.056 10.94 77.668 10.836 77.156 10.836C76.3 10.836 75.644 11.128 75.188 11.712L74.096 10.872C74.424 10.432 74.864 10.092 75.416 9.852C75.976 9.604 76.6 9.48 77.288 9.48C78.2 9.48 78.928 9.696 79.472 10.128C80.016 10.56 80.288 11.148 80.288 11.892C80.288 12.348 80.192 12.776 80 13.176C79.808 13.576 79.44 14.032 78.896 14.544L76.652 16.68H80.612ZM82.5656 18.084C82.2936 18.084 82.0616 17.992 81.8696 17.808C81.6776 17.616 81.5816 17.376 81.5816 17.088C81.5816 16.792 81.6736 16.552 81.8576 16.368C82.0496 16.184 82.2856 16.092 82.5656 16.092C82.8456 16.092 83.0776 16.184 83.2616 16.368C83.4536 16.552 83.5496 16.792 83.5496 17.088C83.5496 17.376 83.4536 17.616 83.2616 17.808C83.0696 17.992 82.8376 18.084 82.5656 18.084ZM88.2524 13.068C89.0284 13.164 89.6204 13.428 90.0284 13.86C90.4364 14.292 90.6404 14.832 90.6404 15.48C90.6404 15.968 90.5164 16.412 90.2684 16.812C90.0204 17.212 89.6444 17.532 89.1404 17.772C88.6444 18.004 88.0364 18.12 87.3164 18.12C86.7164 18.12 86.1364 18.036 85.5764 17.868C85.0244 17.692 84.5524 17.452 84.1604 17.148L84.8324 15.936C85.1364 16.192 85.5044 16.396 85.9364 16.548C86.3764 16.692 86.8284 16.764 87.2924 16.764C87.8444 16.764 88.2764 16.652 88.5884 16.428C88.9084 16.196 89.0684 15.884 89.0684 15.492C89.0684 15.1 88.9164 14.796 88.6124 14.58C88.3164 14.356 87.8604 14.244 87.2444 14.244H86.4764V13.176L88.3844 10.908H84.5684V9.6H90.2924V10.644L88.2524 13.068ZM94.4928 9.48C95.6448 9.48 96.5368 9.84 97.1688 10.56C97.8088 11.28 98.1288 12.312 98.1288 13.656C98.1288 14.6 97.9568 15.408 97.6128 16.08C97.2688 16.744 96.7848 17.252 96.1608 17.604C95.5448 17.948 94.8288 18.12 94.0128 18.12C93.5808 18.12 93.1728 18.076 92.7888 17.988C92.4128 17.892 92.0848 17.756 91.8048 17.58L92.3808 16.404C92.7968 16.676 93.3288 16.812 93.9768 16.812C94.7848 16.812 95.4168 16.564 95.8728 16.068C96.3288 15.572 96.5568 14.856 96.5568 13.92V13.908C96.3088 14.196 95.9928 14.416 95.6088 14.568C95.2248 14.712 94.7928 14.784 94.3128 14.784C93.7608 14.784 93.2648 14.68 92.8248 14.472C92.3848 14.256 92.0408 13.952 91.7928 13.56C91.5448 13.168 91.4208 12.716 91.4208 12.204C91.4208 11.66 91.5568 11.184 91.8288 10.776C92.1008 10.36 92.4688 10.04 92.9328 9.816C93.3968 9.592 93.9168 9.48 94.4928 9.48ZM94.6128 13.56C95.1168 13.56 95.5248 13.424 95.8368 13.152C96.1568 12.88 96.3168 12.536 96.3168 12.12C96.3168 11.712 96.1608 11.376 95.8488 11.112C95.5448 10.84 95.1208 10.704 94.5768 10.704C94.0888 10.704 93.6928 10.836 93.3888 11.1C93.0848 11.356 92.9328 11.7 92.9328 12.132C92.9328 12.572 93.0848 12.92 93.3888 13.176C93.6928 13.432 94.1008 13.56 94.6128 13.56ZM102.643 13.068C103.419 13.164 104.011 13.428 104.419 13.86C104.827 14.292 105.031 14.832 105.031 15.48C105.031 15.968 104.907 16.412 104.659 16.812C104.411 17.212 104.035 17.532 103.531 17.772C103.035 18.004 102.427 18.12 101.707 18.12C101.107 18.12 100.527 18.036 99.9671 17.868C99.4151 17.692 98.9431 17.452 98.5511 17.148L99.2231 15.936C99.5271 16.192 99.8951 16.396 100.327 16.548C100.767 16.692 101.219 16.764 101.683 16.764C102.235 16.764 102.667 16.652 102.979 16.428C103.299 16.196 103.459 15.884 103.459 15.492C103.459 15.1 103.307 14.796 103.003 14.58C102.707 14.356 102.251 14.244 101.635 14.244H100.867V13.176L102.775 10.908H98.9591V9.6H104.683V10.644L102.643 13.068ZM81.428 31.692V33H75.128V24.6H81.26V25.908H76.688V28.092H80.744V29.376H76.688V31.692H81.428ZM88.941 26.592L86.193 33H84.645L81.897 26.592H83.457L85.449 31.344L87.501 26.592H88.941ZM95.7268 29.832C95.7268 29.936 95.7188 30.084 95.7028 30.276H90.6748C90.7628 30.748 90.9908 31.124 91.3588 31.404C91.7348 31.676 92.1988 31.812 92.7508 31.812C93.4548 31.812 94.0348 31.58 94.4908 31.116L95.2948 32.04C95.0068 32.384 94.6428 32.644 94.2028 32.82C93.7628 32.996 93.2668 33.084 92.7148 33.084C92.0108 33.084 91.3908 32.944 90.8548 32.664C90.3188 32.384 89.9028 31.996 89.6068 31.5C89.3188 30.996 89.1748 30.428 89.1748 29.796C89.1748 29.172 89.3148 28.612 89.5948 28.116C89.8828 27.612 90.2788 27.22 90.7828 26.94C91.2868 26.66 91.8548 26.52 92.4868 26.52C93.1108 26.52 93.6668 26.66 94.1548 26.94C94.6508 27.212 95.0348 27.6 95.3068 28.104C95.5868 28.6 95.7268 29.176 95.7268 29.832ZM92.4868 27.72C92.0068 27.72 91.5988 27.864 91.2628 28.152C90.9348 28.432 90.7348 28.808 90.6628 29.28H94.2988C94.2348 28.816 94.0388 28.44 93.7108 28.152C93.3828 27.864 92.9748 27.72 92.4868 27.72ZM100.804 26.52C101.612 26.52 102.26 26.756 102.748 27.228C103.236 27.7 103.48 28.4 103.48 29.328V33H101.98V29.52C101.98 28.96 101.848 28.54 101.584 28.26C101.32 27.972 100.944 27.828 100.456 27.828C99.9036 27.828 99.4676 27.996 99.1476 28.332C98.8276 28.66 98.6676 29.136 98.6676 29.76V33H97.1676V26.592H98.5956V27.42C98.8436 27.124 99.1556 26.9 99.5316 26.748C99.9076 26.596 100.332 26.52 100.804 26.52ZM109.234 32.652C109.058 32.796 108.842 32.904 108.586 32.976C108.338 33.048 108.074 33.084 107.794 33.084C107.09 33.084 106.546 32.9 106.162 32.532C105.778 32.164 105.586 31.628 105.586 30.924V27.84H104.53V26.64H105.586V25.176H107.086V26.64H108.802V27.84H107.086V30.888C107.086 31.2 107.162 31.44 107.314 31.608C107.466 31.768 107.686 31.848 107.974 31.848C108.31 31.848 108.59 31.76 108.814 31.584L109.234 32.652ZM116.665 33.084C116.017 33.084 115.433 32.944 114.913 32.664C114.393 32.384 113.985 31.996 113.689 31.5C113.401 30.996 113.257 30.428 113.257 29.796C113.257 29.164 113.401 28.6 113.689 28.104C113.985 27.608 114.393 27.22 114.913 26.94C115.433 26.66 116.017 26.52 116.665 26.52C117.321 26.52 117.909 26.66 118.429 26.94C118.949 27.22 119.353 27.608 119.641 28.104C119.937 28.6 120.085 29.164 120.085 29.796C120.085 30.428 119.937 30.996 119.641 31.5C119.353 31.996 118.949 32.384 118.429 32.664C117.909 32.944 117.321 33.084 116.665 33.084ZM116.665 31.8C117.217 31.8 117.673 31.616 118.033 31.248C118.393 30.88 118.573 30.396 118.573 29.796C118.573 29.196 118.393 28.712 118.033 28.344C117.673 27.976 117.217 27.792 116.665 27.792C116.113 27.792 115.657 27.976 115.297 28.344C114.945 28.712 114.769 29.196 114.769 29.796C114.769 30.396 114.945 30.88 115.297 31.248C115.657 31.616 116.113 31.8 116.665 31.8ZM122.947 27.528C123.379 26.856 124.139 26.52 125.227 26.52V27.948C125.099 27.924 124.983 27.912 124.879 27.912C124.295 27.912 123.839 28.084 123.511 28.428C123.183 28.764 123.019 29.252 123.019 29.892V33H121.519V26.592H122.947V27.528ZM132.801 26.592V32.028C132.801 34.284 131.649 35.412 129.345 35.412C128.729 35.412 128.145 35.332 127.593 35.172C127.041 35.02 126.585 34.796 126.225 34.5L126.897 33.372C127.177 33.604 127.529 33.788 127.953 33.924C128.385 34.068 128.821 34.14 129.261 34.14C129.965 34.14 130.481 33.98 130.809 33.66C131.137 33.34 131.301 32.852 131.301 32.196V31.86C131.045 32.14 130.733 32.352 130.365 32.496C129.997 32.64 129.593 32.712 129.153 32.712C128.545 32.712 127.993 32.584 127.497 32.328C127.009 32.064 126.621 31.696 126.333 31.224C126.053 30.752 125.913 30.212 125.913 29.604C125.913 28.996 126.053 28.46 126.333 27.996C126.621 27.524 127.009 27.16 127.497 26.904C127.993 26.648 128.545 26.52 129.153 26.52C129.617 26.52 130.037 26.596 130.413 26.748C130.797 26.9 131.117 27.132 131.373 27.444V26.592H132.801ZM129.381 31.44C129.949 31.44 130.413 31.272 130.773 30.936C131.141 30.592 131.325 30.148 131.325 29.604C131.325 29.068 131.141 28.632 130.773 28.296C130.413 27.96 129.949 27.792 129.381 27.792C128.805 27.792 128.333 27.96 127.965 28.296C127.605 28.632 127.425 29.068 127.425 29.604C127.425 30.148 127.605 30.592 127.965 30.936C128.333 31.272 128.805 31.44 129.381 31.44ZM137.221 26.52C138.165 26.52 138.885 26.748 139.381 27.204C139.885 27.652 140.137 28.332 140.137 29.244V33H138.721V32.22C138.537 32.5 138.273 32.716 137.929 32.868C137.593 33.012 137.185 33.084 136.705 33.084C136.225 33.084 135.805 33.004 135.445 32.844C135.085 32.676 134.805 32.448 134.605 32.16C134.413 31.864 134.317 31.532 134.317 31.164C134.317 30.588 134.529 30.128 134.953 29.784C135.385 29.432 136.061 29.256 136.981 29.256H138.637V29.16C138.637 28.712 138.501 28.368 138.229 28.128C137.965 27.888 137.569 27.768 137.041 27.768C136.681 27.768 136.325 27.824 135.973 27.936C135.629 28.048 135.337 28.204 135.097 28.404L134.509 27.312C134.845 27.056 135.249 26.86 135.721 26.724C136.193 26.588 136.693 26.52 137.221 26.52ZM137.017 31.992C137.393 31.992 137.725 31.908 138.013 31.74C138.309 31.564 138.517 31.316 138.637 30.996V30.252H137.089C136.225 30.252 135.793 30.536 135.793 31.104C135.793 31.376 135.901 31.592 136.117 31.752C136.333 31.912 136.633 31.992 137.017 31.992ZM145.698 26.52C146.506 26.52 147.154 26.756 147.642 27.228C148.13 27.7 148.374 28.4 148.374 29.328V33H146.874V29.52C146.874 28.96 146.742 28.54 146.478 28.26C146.214 27.972 145.838 27.828 145.35 27.828C144.798 27.828 144.362 27.996 144.042 28.332C143.722 28.66 143.562 29.136 143.562 29.76V33H142.062V26.592H143.49V27.42C143.738 27.124 144.05 26.9 144.426 26.748C144.802 26.596 145.226 26.52 145.698 26.52ZM150.277 26.592H151.777V33H150.277V26.592ZM151.033 25.536C150.761 25.536 150.533 25.452 150.349 25.284C150.165 25.108 150.073 24.892 150.073 24.636C150.073 24.38 150.165 24.168 150.349 24C150.533 23.824 150.761 23.736 151.033 23.736C151.305 23.736 151.533 23.82 151.717 23.988C151.901 24.148 151.993 24.352 151.993 24.6C151.993 24.864 151.901 25.088 151.717 25.272C151.541 25.448 151.313 25.536 151.033 25.536ZM158.75 31.8V33H153.218V32.052L156.734 27.792H153.29V26.592H158.654V27.54L155.126 31.8H158.75ZM166.063 29.832C166.063 29.936 166.055 30.084 166.039 30.276H161.011C161.099 30.748 161.327 31.124 161.695 31.404C162.071 31.676 162.535 31.812 163.087 31.812C163.791 31.812 164.371 31.58 164.827 31.116L165.631 32.04C165.343 32.384 164.979 32.644 164.539 32.82C164.099 32.996 163.603 33.084 163.051 33.084C162.347 33.084 161.727 32.944 161.191 32.664C160.655 32.384 160.239 31.996 159.943 31.5C159.655 30.996 159.511 30.428 159.511 29.796C159.511 29.172 159.651 28.612 159.931 28.116C160.219 27.612 160.615 27.22 161.119 26.94C161.623 26.66 162.191 26.52 162.823 26.52C163.447 26.52 164.003 26.66 164.491 26.94C164.987 27.212 165.371 27.6 165.643 28.104C165.923 28.6 166.063 29.176 166.063 29.832ZM162.823 27.72C162.343 27.72 161.935 27.864 161.599 28.152C161.271 28.432 161.071 28.808 160.999 29.28H164.635C164.571 28.816 164.375 28.44 164.047 28.152C163.719 27.864 163.311 27.72 162.823 27.72ZM168.932 27.528C169.364 26.856 170.124 26.52 171.212 26.52V27.948C171.084 27.924 170.968 27.912 170.864 27.912C170.28 27.912 169.824 28.084 169.496 28.428C169.168 28.764 169.004 29.252 169.004 29.892V33H167.504V26.592H168.932V27.528ZM179.411 26.52C180.035 26.52 180.591 26.656 181.079 26.928C181.575 27.2 181.963 27.584 182.243 28.08C182.523 28.576 182.663 29.148 182.663 29.796C182.663 30.444 182.523 31.02 182.243 31.524C181.963 32.02 181.575 32.404 181.079 32.676C180.591 32.948 180.035 33.084 179.411 33.084C178.971 33.084 178.567 33.008 178.199 32.856C177.839 32.704 177.535 32.476 177.287 32.172V33H175.859V24.096H177.359V27.372C177.615 27.092 177.915 26.88 178.259 26.736C178.611 26.592 178.995 26.52 179.411 26.52ZM179.243 31.8C179.795 31.8 180.247 31.616 180.599 31.248C180.959 30.88 181.139 30.396 181.139 29.796C181.139 29.196 180.959 28.712 180.599 28.344C180.247 27.976 179.795 27.792 179.243 27.792C178.883 27.792 178.559 27.876 178.271 28.044C177.983 28.204 177.755 28.436 177.587 28.74C177.419 29.044 177.335 29.396 177.335 29.796C177.335 30.196 177.419 30.548 177.587 30.852C177.755 31.156 177.983 31.392 178.271 31.56C178.559 31.72 178.883 31.8 179.243 31.8ZM190.11 29.832C190.11 29.936 190.102 30.084 190.086 30.276H185.058C185.146 30.748 185.374 31.124 185.742 31.404C186.118 31.676 186.582 31.812 187.134 31.812C187.838 31.812 188.418 31.58 188.874 31.116L189.678 32.04C189.39 32.384 189.026 32.644 188.586 32.82C188.146 32.996 187.65 33.084 187.098 33.084C186.394 33.084 185.774 32.944 185.238 32.664C184.702 32.384 184.286 31.996 183.99 31.5C183.702 30.996 183.558 30.428 183.558 29.796C183.558 29.172 183.698 28.612 183.978 28.116C184.266 27.612 184.662 27.22 185.166 26.94C185.67 26.66 186.238 26.52 186.87 26.52C187.494 26.52 188.05 26.66 188.538 26.94C189.034 27.212 189.418 27.6 189.69 28.104C189.97 28.6 190.11 29.176 190.11 29.832ZM186.87 27.72C186.39 27.72 185.982 27.864 185.646 28.152C185.318 28.432 185.118 28.808 185.046 29.28H188.682C188.618 28.816 188.422 28.44 188.094 28.152C187.766 27.864 187.358 27.72 186.87 27.72ZM192.978 27.528C193.41 26.856 194.17 26.52 195.258 26.52V27.948C195.13 27.924 195.014 27.912 194.91 27.912C194.326 27.912 193.87 28.084 193.542 28.428C193.214 28.764 193.05 29.252 193.05 29.892V33H191.55V26.592H192.978V27.528ZM202.832 26.592V32.028C202.832 34.284 201.68 35.412 199.376 35.412C198.76 35.412 198.176 35.332 197.624 35.172C197.072 35.02 196.616 34.796 196.256 34.5L196.928 33.372C197.208 33.604 197.56 33.788 197.984 33.924C198.416 34.068 198.852 34.14 199.292 34.14C199.996 34.14 200.512 33.98 200.84 33.66C201.168 33.34 201.332 32.852 201.332 32.196V31.86C201.076 32.14 200.764 32.352 200.396 32.496C200.028 32.64 199.624 32.712 199.184 32.712C198.576 32.712 198.024 32.584 197.528 32.328C197.04 32.064 196.652 31.696 196.364 31.224C196.084 30.752 195.944 30.212 195.944 29.604C195.944 28.996 196.084 28.46 196.364 27.996C196.652 27.524 197.04 27.16 197.528 26.904C198.024 26.648 198.576 26.52 199.184 26.52C199.648 26.52 200.068 26.596 200.444 26.748C200.828 26.9 201.148 27.132 201.404 27.444V26.592H202.832ZM199.412 31.44C199.98 31.44 200.444 31.272 200.804 30.936C201.172 30.592 201.356 30.148 201.356 29.604C201.356 29.068 201.172 28.632 200.804 28.296C200.444 27.96 199.98 27.792 199.412 27.792C198.836 27.792 198.364 27.96 197.996 28.296C197.636 28.632 197.456 29.068 197.456 29.604C197.456 30.148 197.636 30.592 197.996 30.936C198.364 31.272 198.836 31.44 199.412 31.44ZM207.252 26.52C208.196 26.52 208.916 26.748 209.412 27.204C209.916 27.652 210.168 28.332 210.168 29.244V33H208.752V32.22C208.568 32.5 208.304 32.716 207.96 32.868C207.624 33.012 207.216 33.084 206.736 33.084C206.256 33.084 205.836 33.004 205.476 32.844C205.116 32.676 204.836 32.448 204.636 32.16C204.444 31.864 204.348 31.532 204.348 31.164C204.348 30.588 204.56 30.128 204.984 29.784C205.416 29.432 206.092 29.256 207.012 29.256H208.668V29.16C208.668 28.712 208.532 28.368 208.26 28.128C207.996 27.888 207.6 27.768 207.072 27.768C206.712 27.768 206.356 27.824 206.004 27.936C205.66 28.048 205.368 28.204 205.128 28.404L204.54 27.312C204.876 27.056 205.28 26.86 205.752 26.724C206.224 26.588 206.724 26.52 207.252 26.52ZM207.048 31.992C207.424 31.992 207.756 31.908 208.044 31.74C208.34 31.564 208.548 31.316 208.668 30.996V30.252H207.12C206.256 30.252 205.824 30.536 205.824 31.104C205.824 31.376 205.932 31.592 206.148 31.752C206.364 31.912 206.664 31.992 207.048 31.992ZM215.645 26.52C216.269 26.52 216.825 26.656 217.313 26.928C217.809 27.2 218.197 27.584 218.477 28.08C218.757 28.576 218.897 29.148 218.897 29.796C218.897 30.444 218.757 31.02 218.477 31.524C218.197 32.02 217.809 32.404 217.313 32.676C216.825 32.948 216.269 33.084 215.645 33.084C215.205 33.084 214.801 33.008 214.433 32.856C214.073 32.704 213.769 32.476 213.521 32.172V33H212.093V24.096H213.593V27.372C213.849 27.092 214.149 26.88 214.493 26.736C214.845 26.592 215.229 26.52 215.645 26.52ZM215.477 31.8C216.029 31.8 216.481 31.616 216.833 31.248C217.193 30.88 217.373 30.396 217.373 29.796C217.373 29.196 217.193 28.712 216.833 28.344C216.481 27.976 216.029 27.792 215.477 27.792C215.117 27.792 214.793 27.876 214.505 28.044C214.217 28.204 213.989 28.436 213.821 28.74C213.653 29.044 213.569 29.396 213.569 29.796C213.569 30.196 213.653 30.548 213.821 30.852C213.989 31.156 214.217 31.392 214.505 31.56C214.793 31.72 215.117 31.8 215.477 31.8ZM226.524 26.592V33H225.096V32.184C224.856 32.472 224.556 32.696 224.196 32.856C223.836 33.008 223.448 33.084 223.032 33.084C222.176 33.084 221.5 32.848 221.004 32.376C220.516 31.896 220.272 31.188 220.272 30.252V26.592H221.772V30.048C221.772 30.624 221.9 31.056 222.156 31.344C222.42 31.624 222.792 31.764 223.272 31.764C223.808 31.764 224.232 31.6 224.544 31.272C224.864 30.936 225.024 30.456 225.024 29.832V26.592H226.524ZM232.124 26.52C232.932 26.52 233.58 26.756 234.068 27.228C234.556 27.7 234.8 28.4 234.8 29.328V33H233.3V29.52C233.3 28.96 233.168 28.54 232.904 28.26C232.64 27.972 232.264 27.828 231.776 27.828C231.224 27.828 230.788 27.996 230.468 28.332C230.148 28.66 229.988 29.136 229.988 29.76V33H228.488V26.592H229.916V27.42C230.164 27.124 230.476 26.9 230.852 26.748C231.228 26.596 231.652 26.52 232.124 26.52ZM243.121 26.592V32.028C243.121 34.284 241.969 35.412 239.665 35.412C239.049 35.412 238.465 35.332 237.913 35.172C237.361 35.02 236.905 34.796 236.545 34.5L237.217 33.372C237.497 33.604 237.849 33.788 238.273 33.924C238.705 34.068 239.141 34.14 239.581 34.14C240.285 34.14 240.801 33.98 241.129 33.66C241.457 33.34 241.621 32.852 241.621 32.196V31.86C241.365 32.14 241.053 32.352 240.685 32.496C240.317 32.64 239.913 32.712 239.473 32.712C238.865 32.712 238.313 32.584 237.817 32.328C237.329 32.064 236.941 31.696 236.653 31.224C236.373 30.752 236.233 30.212 236.233 29.604C236.233 28.996 236.373 28.46 236.653 27.996C236.941 27.524 237.329 27.16 237.817 26.904C238.313 26.648 238.865 26.52 239.473 26.52C239.937 26.52 240.357 26.596 240.733 26.748C241.117 26.9 241.437 27.132 241.693 27.444V26.592H243.121ZM239.701 31.44C240.269 31.44 240.733 31.272 241.093 30.936C241.461 30.592 241.645 30.148 241.645 29.604C241.645 29.068 241.461 28.632 241.093 28.296C240.733 27.96 240.269 27.792 239.701 27.792C239.125 27.792 238.653 27.96 238.285 28.296C237.925 28.632 237.745 29.068 237.745 29.604C237.745 30.148 237.925 30.592 238.285 30.936C238.653 31.272 239.125 31.44 239.701 31.44Z" fill="white"/>
</svg>
