<svg width="231" height="232" viewBox="0 0 231 232" fill="none" xmlns="http://www.w3.org/2000/svg">
<g clip-path="url(#clip0_11_38)">
<path fill-rule="evenodd" clip-rule="evenodd" d="M118.778 227.082C119.589 226.145 120.995 226.099 121.873 226.86C122.81 227.671 122.907 229.019 122.095 229.955C121.335 230.833 119.937 230.988 119 230.177C118.122 229.416 118.018 227.96 118.778 227.082Z" fill="white"/>
<path fill-rule="evenodd" clip-rule="evenodd" d="M92.8469 204.618C93.6582 203.682 95.0055 203.585 95.9421 204.396C96.8201 205.157 96.9752 206.555 96.1639 207.492C95.4033 208.37 93.9467 208.474 93.0687 207.713C92.1321 206.902 92.0862 205.496 92.8469 204.618Z" fill="white"/>
<path fill-rule="evenodd" clip-rule="evenodd" d="M66.8569 182.104C67.6682 181.167 69.0741 181.122 69.9522 181.882C70.8887 182.694 70.9853 184.041 70.1739 184.977C69.4133 185.855 68.0153 186.011 67.0787 185.199C66.1812 184.422 66.0963 182.982 66.8569 182.104Z" fill="white"/>
<path fill-rule="evenodd" clip-rule="evenodd" d="M40.9061 159.624C41.7174 158.687 43.0648 158.591 44.0013 159.402C44.8794 160.162 45.0345 161.56 44.2231 162.497C43.4625 163.375 42.006 163.479 41.1279 162.719C40.1913 161.908 40.1455 160.502 40.9061 159.624Z" fill="white"/>
<path fill-rule="evenodd" clip-rule="evenodd" d="M14.9162 137.109C15.7275 136.173 17.1334 136.127 18.0114 136.888C18.948 137.699 19.0446 139.046 18.2332 139.983C17.4726 140.861 16.0746 141.016 15.138 140.205C14.26 139.444 14.1556 137.987 14.9162 137.109Z" fill="white"/>
<path fill-rule="evenodd" clip-rule="evenodd" d="M138.909 203.843C139.67 202.965 141.126 202.861 142.004 203.621C142.941 204.433 142.987 205.838 142.226 206.716C141.415 207.653 140.067 207.75 139.131 206.938C138.253 206.178 138.098 204.78 138.909 203.843Z" fill="white"/>
<path fill-rule="evenodd" clip-rule="evenodd" d="M112.978 181.38C113.738 180.501 115.136 180.346 116.073 181.158C116.951 181.918 117.055 183.375 116.295 184.253C115.483 185.19 114.078 185.235 113.2 184.475C112.263 183.663 112.166 182.316 112.978 181.38Z" fill="white"/>
<path fill-rule="evenodd" clip-rule="evenodd" d="M86.9879 158.865C87.7485 157.987 89.2051 157.883 90.0831 158.643C91.0197 159.455 91.0655 160.861 90.3049 161.739C89.4936 162.675 88.1463 162.772 87.2097 161.961C86.3121 161.183 86.1766 159.802 86.9879 158.865Z" fill="white"/>
<path fill-rule="evenodd" clip-rule="evenodd" d="M61.037 136.385C61.7977 135.507 63.1957 135.352 64.1323 136.163C65.0103 136.924 65.1147 138.38 64.3541 139.258C63.5427 140.195 62.1369 140.241 61.2588 139.48C60.3223 138.669 60.2257 137.321 61.037 136.385Z" fill="white"/>
<path fill-rule="evenodd" clip-rule="evenodd" d="M35.0472 113.871C35.8078 112.993 37.2644 112.888 38.1424 113.649C39.079 114.46 39.1248 115.866 38.3642 116.744C37.5529 117.681 36.2055 117.777 35.269 116.966C34.3909 116.205 34.2358 114.807 35.0472 113.871Z" fill="white"/>
<path fill-rule="evenodd" clip-rule="evenodd" d="M158.989 180.663C159.801 179.726 161.207 179.68 162.085 180.441C163.021 181.252 163.118 182.6 162.306 183.536C161.546 184.414 160.148 184.569 159.211 183.758C158.333 182.997 158.212 181.56 158.989 180.663Z" fill="white"/>
<path fill-rule="evenodd" clip-rule="evenodd" d="M133.058 158.199C133.869 157.263 135.217 157.166 136.153 157.978C137.031 158.738 137.186 160.136 136.375 161.073C135.614 161.951 134.158 162.055 133.28 161.295C132.343 160.483 132.28 159.097 133.058 158.199Z" fill="white"/>
<path fill-rule="evenodd" clip-rule="evenodd" d="M107.068 135.685C107.879 134.749 109.285 134.703 110.163 135.463C111.1 136.275 111.196 137.622 110.385 138.559C109.624 139.437 108.226 139.592 107.29 138.78C106.392 138.003 106.291 136.583 107.068 135.685Z" fill="white"/>
<path fill-rule="evenodd" clip-rule="evenodd" d="M81.1172 113.205C81.9286 112.268 83.2759 112.172 84.2125 112.983C85.0905 113.744 85.2456 115.142 84.4343 116.078C83.6736 116.956 82.2171 117.061 81.339 116.3C80.4025 115.489 80.3397 114.102 81.1172 113.205Z" fill="white"/>
<path fill-rule="evenodd" clip-rule="evenodd" d="M55.1274 90.6906C55.9387 89.754 57.3446 89.7082 58.2226 90.4688C59.1592 91.2801 59.2557 92.6275 58.4444 93.564C57.6838 94.4421 56.2857 94.5972 55.3491 93.7858C54.4711 93.0252 54.3498 91.5882 55.1274 90.6906Z" fill="white"/>
<path fill-rule="evenodd" clip-rule="evenodd" d="M179.103 157.444C179.915 156.507 181.321 156.461 182.199 157.222C183.135 158.033 183.232 159.381 182.42 160.317C181.609 161.254 180.262 161.35 179.325 160.539C178.447 159.778 178.292 158.38 179.103 157.444Z" fill="white"/>
<path fill-rule="evenodd" clip-rule="evenodd" d="M153.172 134.98C153.983 134.044 155.331 133.947 156.267 134.758C157.145 135.519 157.3 136.917 156.489 137.854C155.678 138.79 154.272 138.836 153.394 138.075C152.457 137.264 152.361 135.917 153.172 134.98Z" fill="white"/>
<path fill-rule="evenodd" clip-rule="evenodd" d="M127.182 112.466C127.993 111.529 129.399 111.484 130.277 112.244C131.214 113.056 131.31 114.403 130.499 115.339C129.688 116.276 128.34 116.373 127.404 115.561C126.506 114.784 126.371 113.403 127.182 112.466Z" fill="white"/>
<path fill-rule="evenodd" clip-rule="evenodd" d="M101.231 89.9856C102.043 89.049 103.39 88.9525 104.326 89.7638C105.205 90.5244 105.36 91.9224 104.548 92.859C103.737 93.7956 102.331 93.8414 101.453 93.0808C100.516 92.2695 100.42 90.9222 101.231 89.9856Z" fill="white"/>
<path fill-rule="evenodd" clip-rule="evenodd" d="M75.2414 67.4714C76.0527 66.5348 77.4586 66.489 78.3366 67.2496C79.2732 68.0609 79.3697 69.4083 78.5584 70.3448C77.7471 71.2814 76.3997 71.378 75.4632 70.5666C74.5851 69.806 74.4301 68.408 75.2414 67.4714Z" fill="white"/>
<path fill-rule="evenodd" clip-rule="evenodd" d="M199.234 134.205C199.995 133.327 201.451 133.223 202.329 133.983C203.266 134.794 203.312 136.2 202.551 137.078C201.74 138.015 200.393 138.112 199.456 137.3C198.578 136.54 198.423 135.142 199.234 134.205Z" fill="white"/>
<path fill-rule="evenodd" clip-rule="evenodd" d="M173.303 111.741C174.064 110.863 175.462 110.708 176.398 111.52C177.276 112.28 177.381 113.737 176.62 114.615C175.809 115.551 174.403 115.597 173.525 114.837C172.588 114.025 172.492 112.678 173.303 111.741Z" fill="white"/>
<path fill-rule="evenodd" clip-rule="evenodd" d="M147.313 89.2273C148.074 88.3492 149.53 88.2449 150.408 89.0055C151.345 89.8168 151.391 91.2227 150.63 92.1007C149.819 93.0373 148.471 93.1338 147.535 92.3225C146.637 91.545 146.502 90.1639 147.313 89.2273Z" fill="white"/>
<path fill-rule="evenodd" clip-rule="evenodd" d="M121.362 66.7469C122.123 65.8689 123.521 65.7138 124.457 66.5251C125.335 67.2857 125.44 68.7423 124.679 69.6203C123.868 70.5569 122.462 70.6028 121.584 69.8421C120.647 69.0308 120.551 67.6835 121.362 66.7469Z" fill="white"/>
<path fill-rule="evenodd" clip-rule="evenodd" d="M95.3724 44.2327C96.133 43.3547 97.5896 43.2503 98.4676 44.0109C99.4042 44.8223 99.45 46.2281 98.6894 47.1062C97.8781 48.0427 96.5307 48.1393 95.5942 47.328C94.7161 46.5673 94.561 45.1693 95.3724 44.2327Z" fill="white"/>
<path fill-rule="evenodd" clip-rule="evenodd" d="M219.298 111.044C220.109 110.108 221.515 110.062 222.393 110.823C223.329 111.634 223.426 112.981 222.615 113.918C221.854 114.796 220.456 114.951 219.519 114.14C218.641 113.379 218.537 111.922 219.298 111.044Z" fill="white"/>
<path fill-rule="evenodd" clip-rule="evenodd" d="M193.366 88.5809C194.178 87.6443 195.525 87.5477 196.461 88.3591C197.34 89.1197 197.495 90.5177 196.683 91.4543C195.923 92.3323 194.466 92.4367 193.588 91.6761C192.651 90.8648 192.606 89.4589 193.366 88.5809Z" fill="white"/>
<path fill-rule="evenodd" clip-rule="evenodd" d="M167.376 66.0667C168.188 65.1301 169.594 65.0842 170.472 65.8449C171.408 66.6562 171.505 68.0035 170.693 68.9401C169.933 69.8181 168.535 69.9732 167.598 69.1619C166.701 68.3844 166.616 66.9447 167.376 66.0667Z" fill="white"/>
<path fill-rule="evenodd" clip-rule="evenodd" d="M141.426 43.5863C142.237 42.6497 143.584 42.5531 144.521 43.3645C145.399 44.1251 145.554 45.5231 144.743 46.4597C143.982 47.3377 142.525 47.4421 141.647 46.6815C140.711 45.8702 140.665 44.4643 141.426 43.5863Z" fill="white"/>
<path fill-rule="evenodd" clip-rule="evenodd" d="M115.436 21.0721C116.247 20.1355 117.653 20.0897 118.531 20.8503C119.467 21.6616 119.564 23.0089 118.753 23.9455C117.992 24.8235 116.594 24.9786 115.657 24.1673C114.779 23.4067 114.675 21.9501 115.436 21.0721Z" fill="white"/>
</g>
<defs>
<clipPath id="clip0_11_38">
<rect width="159.097" height="168.313" fill="white" transform="translate(110.631 0.242462) rotate(40.9013)"/>
</clipPath>
</defs>
</svg>
