<svg width="390" height="425" viewBox="0 0 390 425" fill="none" xmlns="http://www.w3.org/2000/svg">
<g clip-path="url(#clip0_68_907)">
<path d="M195.2 424.98C299.046 424.98 383.23 417.458 383.23 408.18C383.23 398.901 299.046 391.38 195.2 391.38C91.3539 391.38 7.16998 398.901 7.16998 408.18C7.16998 417.458 91.3539 424.98 195.2 424.98Z" fill="#EBEBEB"/>
<path d="M254.02 287.79C254.02 287.79 274.32 321.56 274.34 321.58C278.26 328.02 281.58 333.73 283.02 336.85C283.03 336.87 283.04 336.88 283.04 336.9C283.58 338.07 283.86 338.87 283.77 339.18C283.76 339.21 283.77 339.23 283.76 339.24C282.63 341.7 232.1 374.5 229.96 375.05C227.81 375.61 226.07 369.52 227.02 366.69C227.98 363.84 241.7 342.64 241.7 342.64L221.73 308.69L254.02 287.79Z" fill="#AD6359"/>
<path d="M268.28 311.51L234.66 330.67C234.66 330.67 205.56 289.38 199.73 264.46C195.58 246.72 232.66 164.1 232.66 164.1L267.94 165.48C267.94 165.48 236.26 245.47 237.94 253.74C239.98 263.83 268.28 311.51 268.28 311.51Z" fill="#AD6359"/>
<path d="M283.77 339.18C283.77 339.21 283.77 339.23 283.76 339.24C282.63 341.71 232.1 374.51 229.96 375.06C227.81 375.62 226.07 369.53 227.02 366.69C227.54 365.15 231.77 358.27 235.56 352.26C232.04 358.1 224.75 375.16 278.04 327.76C280.28 331.57 282.06 334.79 283.02 336.85C283.03 336.87 283.04 336.88 283.04 336.9C283.58 338.08 283.86 338.87 283.77 339.18Z" fill="#263238"/>
<path d="M304.06 224.78C304.06 224.78 328.11 199.32 328.13 199.3C333.65 194.18 341.52 186.27 342.92 186.19C345.56 186.8 388.42 230.11 389.39 232.1C390.37 234.09 384.75 237.01 381.78 236.65C378.8 236.28 355.28 227.07 355.28 227.07L329.86 252.41L304.06 224.78Z" fill="#AD6359"/>
<path d="M381.8 236.66C380.3 236.47 373.68 234.08 367.42 231.73C374.65 233.11 388.7 232.92 329.14 198.37C334.57 193.28 341.61 186.28 342.93 186.2C345.57 186.81 388.44 230.11 389.4 232.11C390.38 234.1 384.77 237.02 381.8 236.66Z" fill="#263238"/>
<path d="M232.95 164.11C232.95 164.11 235.16 176.49 237.35 186.5C238.94 193.81 240.62 200.25 241.7 200.95C242.92 201.74 248.93 204.68 250.94 205.61C250.94 205.61 259.41 253.53 268.97 269.86C272.25 275.45 289.16 282.51 298.3 277.82C319.74 266.83 347.56 234.77 347.56 234.77L321.58 206.23L293.57 233.73C288.71 221.83 287.85 198.77 287.85 198.77C287.85 198.77 288.88 176.15 281.64 165.97L232.95 164.11Z" fill="#AD6359"/>
<path d="M232.37 164.09C232.37 164.09 197.72 232.72 197.08 260.95C196.87 270.05 201.45 281.65 201.45 281.65C201.45 281.65 234.84 287.74 253.65 279.36C272.46 270.98 280.67 254.13 288.88 239.95C292.51 233.68 295.26 232.1 295.26 232.1C295.26 232.1 288.88 203.03 288.78 199.79C288.78 199.79 290.35 178.59 281.67 165.98L232.37 164.09Z" fill="#263238"/>
<path d="M260.28 76.5599C249.96 87.0399 248.39 113.42 261.8 130.85C273.15 145.61 298.8 147.89 309.59 138.7C321.04 128.95 318.99 113.59 310.3 106.29C301.34 98.7599 290.83 101.07 285.34 94.2999C282.72 91.0599 281.61 84.0999 277.94 79.1499C273.85 73.6299 265.57 71.1799 260.28 76.5599Z" fill="#263238"/>
<path d="M280.57 83.7899C281.41 86.1499 282.39 88.4599 283.62 90.6599C284.88 92.8199 286.41 94.9299 288.54 96.4199C289.6 97.1799 290.86 97.6199 292.06 97.9799C293.27 98.3399 294.49 98.6399 295.7 98.9499C298.12 99.5599 300.52 100.2 302.85 101.05C305.18 101.87 307.43 102.91 309.46 104.29C311.47 105.69 313.25 107.43 314.56 109.5C315.89 111.56 316.75 113.92 317.17 116.35C317.63 118.79 317.68 121.29 317.55 123.79C317.88 121.31 317.93 118.78 317.61 116.28C317.28 113.78 316.48 111.32 315.16 109.12C313.89 106.9 312.01 105.07 309.94 103.59C307.84 102.14 305.53 101.03 303.16 100.17C300.78 99.3199 298.33 98.7099 295.9 98.1199C294.69 97.8299 293.47 97.5399 292.28 97.1999C291.09 96.8599 289.95 96.4699 288.94 95.8099C286.9 94.4999 285.33 92.5099 284.01 90.4199C282.68 88.3299 281.61 86.0699 280.57 83.7899Z" fill="#263238"/>
<path d="M258.31 78.8899C255.33 83.3599 253.12 88.3399 251.63 93.5199C250.15 98.7099 249.55 104.19 250.09 109.59C250.38 112.29 250.98 114.96 251.92 117.51C252.12 118.16 252.4 118.78 252.67 119.4C252.94 120.02 253.19 120.66 253.52 121.25C253.84 121.85 254.14 122.46 254.47 123.05L255.56 124.77C258.56 129.29 262.57 133.05 266.99 136.06C265.97 135.18 264.9 134.38 263.92 133.47C262.95 132.55 261.94 131.67 261.06 130.66C259.19 128.76 257.58 126.61 256.16 124.38C253.36 119.88 251.51 114.78 251.02 109.49C250.42 104.22 251.01 98.8599 252.32 93.6999C252.97 91.1199 253.82 88.5799 254.83 86.1099C255.81 83.6299 256.98 81.2099 258.31 78.8899Z" fill="#263238"/>
<path d="M254.87 119.91C247.68 123.26 215.86 129.61 206.14 122.12C196.23 114.49 188.99 83.75 187.81 79.92C185.06 70.95 212.92 69.84 213.74 72.3C216.66 81.05 219.98 104.06 223.68 105.26C231.46 107.78 238.97 108.14 251.49 110.38C260.21 111.94 262.81 116.21 254.87 119.91Z" fill="#AD6359"/>
<path d="M188.47 81.55C187.18 78.67 182.28 64.78 181.82 60.67C181.36 56.55 180.88 44.6 184 43.93C187.12 43.25 187.54 46.74 187.54 46.74C187.54 46.74 188.14 41.66 191.34 41.27C194.54 40.88 195.01 46.32 195.01 46.32C195.01 46.32 196.01 41.15 199.23 40.99C202.45 40.83 202.01 46.38 202.01 46.38C202.01 46.38 202.7 41.61 205.41 42.59C208.67 43.77 206.41 52.42 207.26 56.93C207.45 57.95 212.66 77.4 212.66 77.4L188.47 81.55Z" fill="#AD6359"/>
<path d="M202.04 45.8899C200.39 52.2499 200.77 55.3199 202.74 61.4899C202.78 61.6099 202.61 61.6899 202.56 61.5699C200.08 55.7099 199.05 51.9299 201.74 45.7899C201.86 45.4999 202.12 45.5899 202.04 45.8899Z" fill="#263238"/>
<path d="M195.15 45.8099C194.01 52.5699 194.4 55.8999 195.98 62.5099C196 62.5999 195.85 62.6499 195.82 62.5599C193.72 56.2099 192.78 52.4099 194.8 45.8099C194.89 45.5099 195.21 45.4999 195.15 45.8099Z" fill="#263238"/>
<path d="M187.63 47.0699C187 53.6899 187.26 57.3699 189.63 63.5799C189.69 63.7299 189.48 63.8199 189.41 63.6799C186.38 57.5699 186.02 52.9899 187.43 47.0699C187.52 46.6599 187.67 46.6499 187.63 47.0699Z" fill="#263238"/>
<path d="M213.99 81.31C213.99 81.31 217.5 73.86 218.31 70.24C219.13 66.63 217.22 52.03 214.04 52.27C209.94 52.57 209.38 61.21 209.66 65.48C209.66 65.48 200.18 66.17 198.43 72.28C196.7 78.4 213.99 81.31 213.99 81.31Z" fill="#AD6359"/>
<path d="M212.95 52.7201C209.41 55.6901 210.14 61.2701 210.1 65.4301C210.1 65.7501 209.84 65.8601 209.6 65.8101C205.64 66.3601 200.23 68.3001 198.32 72.0601C198.26 72.1701 198.1 72.1101 198.14 71.9901C199.64 67.6801 204.81 65.3401 209.18 65.0201C209.15 60.7501 208.67 55.1301 212.92 52.7001C212.95 52.6701 212.97 52.7001 212.95 52.7201Z" fill="#263238"/>
<path d="M215.88 78.1799C215.88 78.1799 221.1 102.93 223.31 104.04C226.98 105.89 248.18 109.19 255.73 110.77C263.28 112.35 268.42 117.17 250.08 123.7C232.37 130 213.04 133.59 203.56 130C192 125.63 181.49 99.0599 181.49 99.0599L215.88 78.1799Z" fill="#FFC727"/>
<path d="M185.88 104.78C199.54 95.72 214.37 87.83 216.94 86.29C217.06 86.22 217.13 86.45 217.01 86.52C214.6 87.94 197.83 98.68 185.96 105.03C185.82 105.1 185.75 104.86 185.88 104.78Z" fill="#263238"/>
<path opacity="0.1" d="M262.37 116.39C261.45 118.44 257.91 120.91 250.08 123.69C232.36 129.99 213.04 133.58 203.56 129.99C202.32 129.52 201.08 128.79 199.88 127.87L262.37 116.39Z" fill="black"/>
<path d="M232.37 164.09L282.09 166.03C282.09 166.03 279.79 131.4 272.35 117.11C268.96 110.61 264.03 110.08 259.1 112.29C257.87 112.84 241.14 125.09 238.56 130.26C236.29 134.84 238.72 141.29 238.72 141.29L232.37 164.09Z" fill="#EBEBEB"/>
<path d="M257.6 112.74C257.6 112.74 250.35 121.1 249.83 124.42C249.31 127.75 249.83 132.4 249.83 132.4C249.83 132.4 258.07 129.13 262.17 126.8C266.27 124.47 269.07 112.56 269.07 112.56C269.07 112.56 274.96 118.13 277.47 129.38C279.41 138.07 283.79 164.66 284.12 165.43C284.45 166.21 291.08 182.61 290.26 199.35C290.26 199.35 295.09 219.97 297.42 222.3C299.75 224.63 303.63 221.73 303.63 221.73C303.63 221.73 290.26 268.02 264.94 275.77C242.47 282.65 194.5 265.58 195.5 256.1C196.5 246.62 212 203.79 230.92 164.1L238.36 141.51C238.36 141.51 235.12 134.89 238.53 129.73C241.93 124.59 254.95 113.94 257.6 112.74Z" fill="#FFC727"/>
<path opacity="0.1" d="M228.37 229.46C226.92 233.64 225.54 237.83 224 241.98C223.22 244.07 222.52 246.2 221.83 248.33C221.13 250.52 220.53 252.73 220.4 255.04C220.4 255.14 220.25 255.14 220.25 255.04C220.2 252.52 220.71 250.03 221.22 247.57C222.14 243.17 223.23 238.68 224.91 234.5C225.75 232.41 226.7 230.35 227.7 228.32C228.7 226.3 229.67 224.23 230.79 222.28C230.87 222.14 231.13 222.22 231.07 222.39C230.17 224.75 229.19 227.07 228.37 229.46Z" fill="black"/>
<path opacity="0.1" d="M266.3 239.86C266.3 236.89 266.29 233.94 266.49 230.98C266.67 228.37 266.88 225.76 267.24 223.17C267.6 220.54 268.16 217.96 268.76 215.38C269.95 210.23 271.32 205.1 272.82 200.03C272.83 200.01 272.86 200.02 272.86 200.04C272.03 202.89 271.27 205.76 270.67 208.67C269.63 213.81 269.09 219 268.33 224.18C267.55 229.37 266.86 234.62 266.46 239.85C266.45 239.95 266.3 239.96 266.3 239.86Z" fill="black"/>
<path opacity="0.1" d="M278.49 267.36C278.15 267.69 277.81 268 277.46 268.31C276.86 267.88 276.27 267.44 275.69 267C270.58 263.1 265 258.62 262.75 252.39C261.67 249.41 261.57 246.17 261.6 243.04C261.64 239.79 262.09 236.54 262.52 233.33C262.53 233.21 262.74 233.23 262.72 233.35C262.37 236.9 262.09 240.44 262.32 244.01C262.53 247.05 263.42 250.16 264.86 252.85C266.31 255.58 268.31 257.9 270.46 260.08C273 262.66 275.73 265.02 278.49 267.36Z" fill="black"/>
<path opacity="0.1" d="M248.04 224.38C246.46 228.76 244.95 233.16 243.68 237.64C243.05 239.85 242.49 242.07 242 244.31C241.51 246.57 241.15 248.85 240.74 251.12C240.33 253.37 240.04 255.61 239.93 257.9C239.87 259.07 239.87 260.24 239.89 261.41C239.91 262.55 239.82 263.68 239.93 264.82C239.94 264.98 239.7 264.98 239.68 264.83C239.57 264.11 239.38 263.42 239.24 262.72C239.12 262.11 239.1 261.46 239.05 260.85C238.94 259.56 238.9 258.27 238.88 256.99C238.84 254.43 238.88 251.84 239.16 249.3C239.66 244.69 240.87 240.11 242.18 235.67C243.5 231.21 245.05 226.82 246.64 222.45C248.3 217.9 249.91 213.33 251.91 208.92C253.95 204.41 255.85 199.83 257.63 195.21C257.67 195.1 257.84 195.14 257.8 195.25C256.89 197.83 256.08 200.45 255.19 203.03C254.3 205.61 253.64 208.27 252.8 210.86C252.06 213.16 251.32 215.43 250.49 217.7C249.67 219.92 248.85 222.15 248.04 224.38Z" fill="black"/>
<path opacity="0.1" d="M229.09 274.22C228.57 274.09 228.06 273.96 227.55 273.83C226.39 270.57 225.52 267.2 225.31 263.78C225.23 262.45 225.42 261.15 225.5 259.83C225.58 258.6 225.73 257.37 225.91 256.15C226.29 253.63 226.94 251.15 227.89 248.78C227.92 248.69 228.07 248.75 228.04 248.84C227.07 251.4 226.49 254.14 226.39 256.88C226.35 258.07 226.35 259.3 226.49 260.48C226.63 261.68 226.9 262.87 227.05 264.08C227.35 266.49 227.75 268.89 228.32 271.25C228.56 272.24 228.82 273.24 229.09 274.22Z" fill="black"/>
<path opacity="0.1" d="M271.6 272.74C269.48 274.03 267.25 275.07 264.93 275.78C261.44 276.85 257.34 277.34 252.91 277.36C252.15 276.31 251.44 275.25 250.76 274.15C248.41 270.36 246.61 266 246.05 261.56C245.4 256.36 246.66 251.1 247.76 246.05C248.89 240.82 256.94 218.11 258.26 219.8C259.86 221.86 255.31 245.92 255.03 248.79C254.76 251.51 255 254.19 256.39 256.59C257.74 258.92 259.68 260.89 261.49 262.85C263.41 264.93 265.39 266.95 267.43 268.92C268.79 270.23 270.2 271.48 271.6 272.74Z" fill="black"/>
<path opacity="0.1" d="M299.58 223.21C299.06 224.2 298.42 225.15 297.81 226.07C296.19 228.52 294.55 230.96 292.92 233.39C291.26 235.87 289.57 238.32 287.91 240.79C286.54 242.83 285.3 244.92 283.19 246.27C282.81 246.51 282.39 246.07 282.58 245.69C283.84 243.14 285.29 240.67 286.65 238.18C288.92 234.02 291.29 229.91 293.12 225.53C294.05 223.3 294.84 221.03 295.48 218.71C295.51 218.62 295.53 218.52 295.56 218.43C296.25 220.35 296.89 221.78 297.41 222.3C298.05 222.94 298.82 223.19 299.58 223.21Z" fill="black"/>
<path opacity="0.1" d="M280.39 162.46C277.29 163.68 274.2 164.93 271.01 165.9C267.92 166.84 264.68 167.51 261.48 168.01C255.82 168.89 250.04 168.8 244.55 167.01C241.35 165.97 238.67 164.12 236.17 161.93C236.09 161.86 236 161.97 236.06 162.04C239.81 166.59 245.28 169.22 251.07 169.98C257.49 170.82 263.72 169.47 269.68 167.11C273.29 165.68 276.87 164.14 280.42 162.59C280.51 162.55 280.47 162.43 280.39 162.46Z" fill="black"/>
<path d="M255.6 142.47C253.49 142.08 251.35 141.75 249.2 141.68C248.13 141.64 247.07 141.65 246 141.69C245.47 141.71 244.94 141.71 244.4 141.7C243.85 141.7 243.27 141.67 242.74 141.53C242.69 141.52 242.67 141.59 242.72 141.6C243.23 141.77 243.72 141.92 244.24 142.02C244.74 142.11 245.26 142.15 245.76 142.17C246.84 142.22 247.93 142.22 249.02 142.26C251.21 142.34 253.4 142.41 255.58 142.65C255.68 142.65 255.7 142.48 255.6 142.47Z" fill="#263238"/>
<path d="M260.15 145.78C258.51 145.11 256.82 144.51 255.12 144.03C254.26 143.79 253.4 143.6 252.53 143.43C252.11 143.35 251.7 143.28 251.28 143.21C250.82 143.14 250.35 143.12 249.89 143.04C249.84 143.03 249.82 143.1 249.87 143.11C250.3 143.2 250.72 143.36 251.14 143.47C251.57 143.59 252 143.7 252.42 143.81C253.28 144.04 254.13 144.28 254.99 144.5C256.71 144.94 258.41 145.4 260.11 145.9C260.2 145.95 260.23 145.82 260.15 145.78Z" fill="#263238"/>
<path d="M270.87 124.65C282.34 141.05 300.11 165.44 310.65 165.23C320.17 165.04 335.37 156.82 351.94 148C355.23 146.25 340.27 121.38 336.95 123.59C330.41 127.95 316.48 139.63 311.98 140.35C310.05 140.66 288.38 124.7 276.17 117.04C265.44 110.29 268.64 121.46 270.87 124.65Z" fill="#AD6359"/>
<path d="M366.41 140.62C361.78 144.44 347.08 150.43 343.68 150.26C340.28 150.09 332.6 129.02 334.47 126.07C336.34 123.11 352.93 111.48 359.05 111.39C365.17 111.3 371.21 136.67 366.41 140.62Z" fill="#AD6359"/>
<path d="M343.6 95.5299C343.6 95.5299 351.34 87.7799 361.11 93.7799C361.11 93.7799 361.53 122.88 361.8 124.65C362.08 126.42 370.01 158.93 370.01 158.93C370.01 158.93 362.66 164.12 351.27 159.88C351.27 159.88 353.12 126.52 352.92 125.54C352.73 124.56 343.6 95.5299 343.6 95.5299Z" fill="#EBEBEB"/>
<path d="M370.02 158.93C370.02 158.93 359.35 152.89 351.28 159.88C351.28 159.88 359.64 164.78 370.02 158.93Z" fill="#DBDBDB"/>
<path d="M361.81 124.65C362.04 124.46 361.82 124.37 361.62 124.32C361.42 124.27 361.22 124.23 361.01 124.21C360.59 124.16 360.17 124.14 359.75 124.13C358.91 124.11 358.07 124.12 357.23 124.2C356.39 124.26 355.55 124.36 354.72 124.49C354.31 124.57 353.9 124.64 353.52 124.78C353.17 124.91 352.67 125.09 352.93 125.53C352.84 125.47 352.74 125.39 352.71 125.25C352.68 125.12 352.72 124.97 352.78 124.86C352.91 124.64 353.1 124.47 353.29 124.34C353.68 124.07 354.1 123.88 354.53 123.73C355.39 123.42 356.27 123.28 357.16 123.2C358.06 123.14 358.96 123.17 359.84 123.36C360.28 123.44 360.72 123.57 361.14 123.74C361.35 123.83 361.56 123.93 361.75 124.07C361.84 124.14 361.95 124.22 362.01 124.35C362.04 124.43 362.02 124.5 361.97 124.56C361.92 124.61 361.85 124.63 361.81 124.65Z" fill="#FFC727"/>
<path d="M361.89 125.1C362.11 124.9 361.88 124.82 361.68 124.79C361.48 124.75 361.27 124.73 361.06 124.73C360.64 124.71 360.21 124.72 359.79 124.74C358.94 124.79 358.1 124.86 357.26 124.99C356.42 125.11 355.57 125.27 354.75 125.45C354.34 125.55 353.93 125.65 353.54 125.8C353.35 125.87 353.16 125.96 353.01 126.08C352.86 126.19 352.79 126.38 352.95 126.57C352.85 126.52 352.75 126.44 352.71 126.3C352.68 126.16 352.73 126.02 352.79 125.91C352.92 125.68 353.11 125.53 353.29 125.38C353.67 125.1 354.08 124.89 354.5 124.72C355.34 124.37 356.21 124.16 357.1 124.01C358 123.88 358.91 123.85 359.81 123.97C360.26 124.02 360.71 124.12 361.14 124.26C361.36 124.34 361.57 124.42 361.78 124.55C361.88 124.62 361.99 124.68 362.06 124.81C362.16 124.97 361.98 125.09 361.89 125.1Z" fill="#FFC727"/>
<path d="M361.97 125.45C362.01 125.41 362.05 125.37 362.06 125.33C362.07 125.28 362.06 125.32 362.01 125.31C361.93 125.3 361.82 125.32 361.71 125.33C361.5 125.36 361.3 125.4 361.09 125.45L359.84 125.71C359.01 125.89 358.17 126.03 357.34 126.18C356.5 126.31 355.66 126.44 354.82 126.54C354.4 126.6 353.98 126.65 353.58 126.73C353.38 126.76 353.18 126.81 353 126.88C352.82 126.94 352.71 127.08 352.88 127.28C352.79 127.23 352.67 127.16 352.66 127C352.66 126.85 352.76 126.73 352.85 126.65C353.03 126.48 353.23 126.37 353.43 126.26C353.83 126.06 354.25 125.9 354.66 125.78C355.49 125.51 356.34 125.34 357.19 125.19C358.04 125.05 358.9 124.95 359.77 124.93C360.2 124.91 360.64 124.92 361.08 124.96C361.3 124.98 361.52 125 361.74 125.06C361.85 125.09 361.96 125.11 362.08 125.17C362.11 125.19 362.14 125.21 362.17 125.26C362.2 125.32 362.16 125.37 362.14 125.38C362.08 125.42 362.03 125.44 361.97 125.45Z" fill="#FFC727"/>
<path d="M349.66 113.41C348.61 116.41 352.74 115.93 352.74 115.93C352.74 115.93 346.95 118.05 347.06 121.56C347.17 124.95 352.15 124.2 352.51 124.15C352.2 124.26 346.93 126.35 347.41 129.87C347.9 133.53 352.77 131.92 353.09 131.81C352.84 132.01 349.52 134.7 350.48 137.29C352.14 141.74 360.82 135.11 364.61 135.77C364.61 135.77 366.05 140.72 366.07 140.91C366.07 140.91 372.62 136.37 373.24 131.2C373.56 128.48 371.09 127.64 371.09 127.64C371.09 127.64 374.01 125.96 373.73 123.18C373.58 121.75 371.16 120.72 371.16 120.72C371.16 120.72 373.44 119.27 373.04 116.82C372.72 114.86 370.35 114.13 370.35 114.13C370.35 114.13 371.9 111.72 370.92 109.83C368.95 105.99 351.92 106.99 349.66 113.41Z" fill="#AD6359"/>
<path d="M369.98 113.96C370.04 113.96 370.05 113.88 369.99 113.87C364.31 112.83 357.75 113.43 352.51 115.94C352.34 116.02 352.4 116.34 352.6 116.28C358.51 114.73 363.86 113.82 369.98 113.96Z" fill="#263238"/>
<path d="M371.24 120.69C371.31 120.69 371.31 120.58 371.24 120.57C365.38 119.53 358.01 120.41 352.31 124.01C352.11 124.13 352.06 124.44 352.3 124.32C356.28 122.2 365.73 120.54 371.24 120.69Z" fill="#263238"/>
<path d="M352.77 132.2C358.37 128.96 364.44 127.84 370.85 127.59C370.93 127.59 370.92 127.47 370.85 127.45C367.68 126.72 363.62 127.31 360.49 128.03C357.5 128.72 354.94 129.95 352.66 132C352.57 132.09 352.65 132.27 352.77 132.2Z" fill="#263238"/>
<path d="M352.74 115.93C351.67 116.45 350.63 117.04 349.68 117.74C348.75 118.44 347.85 119.27 347.44 120.29C347.24 120.79 347.2 121.33 347.38 121.82C347.57 122.32 347.87 122.79 348.27 123.12C349.07 123.8 350.27 123.95 351.29 123.78L353.86 123.36L351.59 124.65C350.6 125.21 349.63 125.95 348.88 126.8C348.13 127.65 347.61 128.69 347.75 129.71C347.87 130.77 348.56 131.58 349.6 131.73C350.63 131.93 351.84 131.69 352.88 131.32L355.79 130.28L353.39 132.2C352.74 132.72 352.11 133.36 351.61 134.04C351.12 134.72 350.73 135.49 350.71 136.25C350.69 136.99 351.07 137.75 351.71 138.06C352.38 138.4 353.28 138.37 354.13 138.25C355.87 138 357.57 137.37 359.29 136.84C360.15 136.56 361.02 136.29 361.89 136.05C362.76 135.83 363.68 135.59 364.58 135.76C363.67 135.69 362.81 136.02 361.96 136.29C361.11 136.59 360.28 136.93 359.44 137.27C357.76 137.95 356.07 138.62 354.24 138.99C353.33 139.14 352.33 139.27 351.33 138.85C350.3 138.41 349.73 137.28 349.75 136.23C349.77 135.16 350.25 134.24 350.79 133.46C351.35 132.68 351.99 132 352.74 131.38L353.25 132.27C352.02 132.72 350.76 133.01 349.38 132.79C348.7 132.68 347.99 132.34 347.5 131.76C347.01 131.19 346.77 130.51 346.69 129.81C346.53 128.36 347.27 127.06 348.12 126.13C349 125.17 350.01 124.43 351.13 123.81L351.43 124.68C350.12 124.85 348.75 124.59 347.73 123.67C347.24 123.21 346.91 122.63 346.71 122C346.51 121.36 346.59 120.63 346.86 120.05C347.43 118.87 348.45 118.11 349.45 117.46C350.53 116.84 351.62 116.33 352.74 115.93Z" fill="#263238"/>
<path d="M336.95 123.59C336.95 123.59 348.65 100.97 355.24 109.88C357.2 112.53 362.1 125.73 359.46 126.76C356.06 128.1 352.99 122.97 351.57 119.44C351.57 119.44 348.68 127.69 342.33 127.39C338.35 127.2 336.95 123.59 336.95 123.59Z" fill="#AD6359"/>
<path d="M354.65 109.17C355.58 110.08 356.25 111.22 356.87 112.35C357.49 113.49 358.01 114.69 358.47 115.9C359.37 118.34 360.18 120.79 360.65 123.4C360.76 124.06 360.84 124.73 360.76 125.47C360.72 125.84 360.61 126.24 360.39 126.59C360.28 126.77 360.17 126.92 359.97 127.09C359.79 127.23 359.6 127.35 359.41 127.41C358.64 127.72 357.84 127.64 357.14 127.42C356.45 127.17 355.85 126.77 355.32 126.32C354.27 125.41 353.49 124.3 352.83 123.16C352.16 122.02 351.64 120.81 351.15 119.6L352 119.57C351.63 120.53 351.18 121.39 350.65 122.24C350.13 123.08 349.52 123.87 348.84 124.59C348.15 125.3 347.36 125.92 346.5 126.39C345.64 126.87 344.69 127.19 343.73 127.31C344.67 127.06 345.55 126.66 346.34 126.12C347.13 125.59 347.81 124.92 348.42 124.2C349.03 123.48 349.57 122.69 350.02 121.86C350.47 121.04 350.87 120.15 351.15 119.29L351.5 118.19L351.99 119.26C352.52 120.41 353.04 121.57 353.71 122.64C354.37 123.7 355.09 124.74 356.01 125.5C356.9 126.25 358.08 126.79 359 126.41C359.84 126.15 359.8 124.74 359.63 123.54C359.46 122.3 359.15 121.06 358.84 119.82C358.53 118.58 358.2 117.34 357.81 116.12C357.01 113.72 356.19 111.24 354.65 109.17Z" fill="#263238"/>
<path d="M333.64 125.77C333.64 125.77 313.74 139.56 311.35 138.94C307.37 137.91 281.78 119.53 275.06 115.75C268.34 111.96 266.06 117.22 269.96 123.81C280.23 141.15 297.11 168.32 311.91 171.17C319.88 172.7 347.87 162.23 347.87 162.23L333.64 125.77Z" fill="#FFC727"/>
<path d="M280.82 140.9C280.48 140.46 280.29 139.91 280 139.44C279.69 138.94 279.38 138.43 279.07 137.94C278.46 136.97 277.84 136 277.24 135.03C276.03 133.08 274.71 131.22 273.44 129.31C273.42 129.28 273.38 129.31 273.4 129.34C274.51 131.36 275.59 133.37 276.84 135.31C276.87 135.35 276.9 135.39 276.92 135.44C276.65 135.17 276.38 134.91 276.12 134.65C275.57 134.1 275.02 133.55 274.47 133C274.44 132.97 274.38 133.02 274.41 133.06C274.91 133.66 275.42 134.23 275.97 134.77C276.25 135.05 276.54 135.32 276.83 135.59C276.97 135.71 277.11 135.83 277.25 135.95C277.72 136.67 278.19 137.4 278.66 138.11C278.98 138.6 279.32 139.09 279.65 139.57C279.98 140.05 280.43 140.47 280.72 140.98C280.75 141.04 280.87 140.96 280.82 140.9Z" fill="#263238"/>
<path d="M328.23 131.73C334.47 145.87 339.41 160.83 340.42 163.46C340.47 163.58 340.24 163.61 340.19 163.48C339.25 161.02 331.95 143.74 327.97 131.75C327.93 131.61 328.17 131.59 328.23 131.73Z" fill="#263238"/>
<path d="M260.05 109.13C266.85 107.64 278.68 112.57 279.55 117.71C280.29 122.09 280.4 155.08 281.37 163.7C282.34 172.32 308.75 208.83 308.75 208.83L296.51 208.03L294.39 219.23C294.39 219.23 271.19 187.31 266.64 172.36C262.1 157.41 270.33 115.12 269.07 112.97C267.82 110.82 262.67 111.13 260.33 111.55C257.99 111.98 254.28 116.53 252.39 121.1C250.51 125.67 243.15 154.98 243.09 165.79C243.03 176.6 257.44 217.35 257.44 217.35L246.83 212.58L239.38 222.82C239.38 222.82 228.26 183.07 227.8 165.49C227.51 154.31 235.77 134.19 244.9 120.76C250.14 113.09 255.96 110.02 260.05 109.13Z" fill="#455A64"/>
<path d="M268.54 113.62C268.08 114.47 262.17 119.22 258.07 117.91C256.73 117.48 258.74 110.09 258.74 110.09L258.76 109.51L259.09 101.4L269.63 98.0299L271.13 97.6099C271.13 97.6099 270.89 99.8199 270.57 102.58C270.56 102.71 270.54 102.84 270.52 102.97C270.51 103.13 270.49 103.27 270.47 103.42C270.43 103.83 270.38 104.25 270.33 104.67C270.29 104.99 270.25 105.3 270.2 105.63C270.15 105.97 270.1 106.29 270.06 106.62C269.53 109.91 268.72 113.25 268.54 113.62Z" fill="#AD6359"/>
<path d="M270.56 102.57C266.74 108.08 261.21 109.27 258.75 109.51L259.08 101.4L269.62 98.0299L271.12 97.6099C271.12 97.5999 270.89 99.8199 270.56 102.57Z" fill="#263238"/>
<path d="M251.71 84.14C244.13 96.21 250.5 102.11 253.1 103.75C255.46 105.23 263.7 109.98 272.49 98.76C281.28 87.54 278.07 80.2 272.84 76.52C267.61 72.84 259.29 72.07 251.71 84.14Z" fill="#AD6359"/>
<path d="M254.72 83.13C255.03 83.27 255.33 83.35 255.65 83.45C256.01 83.57 256.28 83.7 256.66 83.6C256.86 83.54 257.01 83.27 256.98 83.07C256.9 82.6 256.49 82.34 256.07 82.18C255.61 82.01 255.21 81.99 254.74 82.15C254.28 82.29 254.31 82.95 254.72 83.13Z" fill="#263238"/>
<path d="M263.12 88.12C262.85 87.92 262.64 87.68 262.4 87.45C262.13 87.19 261.88 87.01 261.79 86.63C261.74 86.42 261.91 86.16 262.11 86.1C262.57 85.95 262.98 86.18 263.32 86.48C263.69 86.8 263.9 87.15 263.98 87.64C264.07 88.11 263.48 88.39 263.12 88.12Z" fill="#263238"/>
<path d="M259.39 89.96C259.42 89.93 259.43 90.04 259.41 90.07C258.87 90.87 258.38 91.89 258.95 92.63C258.97 92.65 258.94 92.69 258.91 92.67C258.08 91.97 258.74 90.64 259.39 89.96Z" fill="#263238"/>
<path d="M260.66 89.57C262.04 90.3 260.48 93.02 259.2 92.34C257.94 91.67 259.5 88.95 260.66 89.57Z" fill="#263238"/>
<path d="M261.11 90.0199C261.26 90.3099 261.33 90.7199 261.6 90.9099C261.91 91.1299 262.33 90.9899 262.7 90.8399C262.74 90.8199 262.75 90.8599 262.73 90.8999C262.44 91.4199 261.93 91.8399 261.33 91.5999C260.78 91.3799 260.68 90.7099 260.85 90.1099C260.89 89.9899 261.05 89.8999 261.11 90.0199Z" fill="#263238"/>
<path d="M254.82 87.0901C254.83 87.0501 254.73 87.0901 254.71 87.1301C254.26 87.9901 253.6 88.9001 252.67 88.7501C252.64 88.7501 252.62 88.7901 252.65 88.8001C253.66 89.1901 254.53 87.9801 254.82 87.0901Z" fill="#263238"/>
<path d="M254.56 85.7801C253.26 84.9101 251.61 87.5701 252.81 88.3801C254 89.1701 255.65 86.5101 254.56 85.7801Z" fill="#263238"/>
<path d="M253.9 85.61C253.6 85.62 253.24 85.75 252.97 85.61C252.67 85.45 252.63 85.03 252.61 84.64C252.61 84.6 252.57 84.61 252.55 84.64C252.22 85.14 252.06 85.77 252.49 86.18C252.88 86.55 253.48 86.31 253.91 85.88C254 85.79 254.02 85.61 253.9 85.61Z" fill="#263238"/>
<path d="M255.5 96.92C255.19 97.01 254.84 97.19 254.51 97.05C254.2 96.92 253.92 96.6 253.7 96.35C253.68 96.33 253.64 96.34 253.64 96.37C253.69 96.82 254.06 97.27 254.49 97.4C254.92 97.53 255.28 97.3 255.56 96.99C255.61 96.96 255.55 96.9 255.5 96.92Z" fill="#263238"/>
<path d="M253.08 93.64C253.08 93.64 253.13 94.76 253.7 95.55C253.91 95.84 254.18 96.08 254.56 96.21C255.32 96.48 255.74 95.9 255.97 95.31C256.16 94.83 256.21 94.34 256.21 94.34C256.21 94.34 254.66 94.58 253.08 93.64Z" fill="#263238"/>
<path d="M253.7 95.55C253.91 95.84 254.18 96.08 254.56 96.21C255.32 96.48 255.74 95.9 255.97 95.31C255.22 94.91 254.22 94.91 253.7 95.55Z" fill="#FF9BBC"/>
<path d="M253.8 91.83C253.8 91.83 252.89 92.97 252.54 93.56C252.51 93.62 252.63 93.73 252.83 93.86C252.84 93.87 252.84 93.88 252.85 93.87C253.79 94.65 255.05 94.91 256.18 94.44C256.25 94.41 256.22 94.3 256.14 94.31C255.03 94.42 254.08 94.06 253.15 93.53C253.21 93.34 254.78 91.62 254.69 91.56C254.38 91.34 253.62 91.19 253.18 91.07C255.01 88.63 257.21 86.5 259 84.05C259.06 83.96 258.95 83.85 258.87 83.92C256.4 85.99 254.23 88.75 252.28 91.22C252.04 91.52 253.51 91.79 253.8 91.83Z" fill="#263238"/>
<path d="M271.98 99.0999C270.64 98.2299 269.18 92.3799 272.84 85.6099C272.84 85.6099 269.97 91.9199 269.92 93.0499C269.88 94.1899 269.11 89.7599 271.99 84.2599C271.99 84.2599 267.78 84.7299 264.82 84.0099C261.86 83.2899 260.31 82.3799 260.24 82.0899C260.16 81.7999 264.59 82.7399 266.26 82.1399C266.26 82.1399 257.69 81.4699 254.42 79.9399C254.04 79.7599 257.75 73.3599 264.37 72.9299C270.99 72.4999 276.8 78.9399 277.74 82.0899C277.74 82.0899 279.59 83.4299 279.95 88.5199C280.35 93.9999 273.43 100.03 271.98 99.0999Z" fill="#263238"/>
<path d="M269.72 103.22C269.47 103.19 269.25 103.14 269.05 103.07C268.81 103 268.61 102.9 268.44 102.78C268.17 102.61 267.97 102.39 267.83 102.17C267.7 101.97 267.6 101.75 267.54 101.55C267.38 101.03 267.42 100.59 267.42 100.59L269.86 97.5599C269.86 97.5599 274.66 95.0299 275.95 96.9299C277.25 98.8499 272.23 103.52 269.72 103.22Z" fill="#AD6359"/>
<path d="M274.49 98.2399C274.53 98.2499 274.51 98.3099 274.47 98.2999C272.68 98.1399 271.2 99.1099 269.93 100.25C270.65 99.9299 271.4 99.9399 271.87 100.84C271.89 100.89 271.83 100.93 271.79 100.9C271.25 100.46 270.76 100.34 270.1 100.61C269.63 100.8 269.21 101.14 268.8 101.43C268.66 101.53 268.46 101.33 268.59 101.21C268.6 101.2 268.61 101.19 268.62 101.18C269.55 99.2699 272.37 97.3899 274.49 98.2399Z" fill="#263238"/>
<path d="M269.82 102.59C269.59 102.87 269.18 102.92 268.89 102.69C268.6 102.46 268.56 102.05 268.79 101.76C269.02 101.48 269.43 101.43 269.72 101.66C270 101.89 270.04 102.31 269.82 102.59Z" fill="white"/>
<path d="M271.48 102.33C271.32 102.53 271.03 102.56 270.82 102.4C270.62 102.24 270.59 101.95 270.75 101.74C270.91 101.54 271.2 101.51 271.41 101.67C271.61 101.83 271.64 102.13 271.48 102.33Z" fill="white"/>
<path d="M287.19 74.1299C287.19 74.1299 295.84 77.3699 298.08 81.1899C300.32 85.0099 294.17 90.2899 295.17 93.6399C296.17 96.9899 301.27 97.9499 303.62 96.2199" stroke="#263238" stroke-width="0.75" stroke-miterlimit="10"/>
<path d="M303.4 96.1899C303.4 96.1899 303.37 94.9899 304.04 93.8099C304.71 92.6299 307.04 90.6499 307.04 90.6499" stroke="#FFC727" stroke-width="0.75" stroke-miterlimit="10"/>
<path d="M303.75 96.4299C303.75 96.4299 305.27 96.6699 306.29 96.5599C307.31 96.4499 310.06 94.3099 310.06 94.3099" stroke="#FFC727" stroke-width="0.75" stroke-miterlimit="10"/>
<path d="M303.53 96.3098C303.53 96.3098 304.94 93.9998 305.6 93.4298C306.25 92.8598 308.63 90.8398 308.63 90.8398" stroke="#FFC727" stroke-width="0.75" stroke-miterlimit="10"/>
<path d="M303.63 96.3999C303.63 96.3999 306.66 95.1699 307.26 94.6299C307.86 94.0999 309.83 92.7999 309.83 92.7999" stroke="#FFC727" stroke-width="0.75" stroke-miterlimit="10"/>
<path d="M272.13 80.1899L251.23 59.6599L281.34 64.1699L299.8 87.4699L272.13 80.1899Z" fill="#FFC727"/>
<path opacity="0.1" d="M272.13 80.1899L251.23 59.6599L281.34 64.1699L299.8 87.4699L272.13 80.1899Z" fill="black"/>
<path d="M258.23 75.1199L261.64 67.2299C261.64 67.2299 271.14 68.0899 276.97 71.4499C282.8 74.8099 288.25 81.7799 288.25 81.7799L283.18 89.4799C283.18 89.4799 275.67 82.9799 270.9 80.3699C266.14 77.7499 258.23 75.1199 258.23 75.1199Z" fill="#FFC727"/>
<path d="M95.47 350.05C95.47 350.05 95.48 390.16 95.48 390.19C95.44 397.86 95.54 404.59 95.92 408.06C95.92 408.08 95.92 408.1 95.93 408.12C96.07 409.43 96.25 410.27 96.48 410.49C96.5 410.51 96.51 410.53 96.52 410.54C98.8 412.1 160.09 414.2 162.25 413.55C164.42 412.91 162.74 406.69 160.43 404.71C158.1 402.73 135 391.43 135 391.43L134.61 351.34L95.47 350.05Z" fill="#EB9481"/>
<path d="M95.47 381.96C95.47 381.96 95.47 390.17 95.47 390.19C95.43 397.86 95.53 404.59 95.91 408.06C95.91 408.08 95.91 408.1 95.92 408.12C96.14 409.42 96.33 410.27 96.47 410.49C96.49 410.51 96.5 410.53 96.51 410.54C98.79 412.1 160.08 414.2 162.24 413.55C164.41 412.91 162.73 406.69 160.42 404.71C158.09 402.73 134.99 391.43 134.99 391.43L135.1 383.07L95.47 381.96Z" fill="white"/>
<path d="M162.25 413.55C160.08 414.2 98.8 412.1 96.52 410.54C95.64 409.96 95.43 401.01 95.48 390.19C95.48 390.08 95.48 389.96 95.48 389.85L135.03 390.76L134.99 391.43C134.99 391.43 158.09 402.73 160.42 404.71C162.73 406.69 164.41 412.91 162.25 413.55Z" fill="#A6A6A6"/>
<path d="M161.64 411.15C151.32 410.54 109.63 409.07 99.38 409.25C99.3 409.25 99.29 409.31 99.38 409.32C109.6 410.15 151.3 411.28 161.64 411.32C161.85 411.32 161.85 411.16 161.64 411.15Z" fill="#263238"/>
<path d="M138.31 391.67C134.27 390.77 129.28 391.23 126.07 394.02C125.95 394.13 126.1 394.3 126.23 394.27C130.28 393.14 134.06 392.46 138.27 392.19C138.58 392.16 138.6 391.73 138.31 391.67Z" fill="#263238"/>
<path d="M141.19 393.54C137.15 392.64 132.16 393.1 128.95 395.89C128.83 396 128.98 396.17 129.11 396.14C133.16 395.01 136.94 394.33 141.15 394.06C141.45 394.03 141.48 393.6 141.19 393.54Z" fill="#263238"/>
<path d="M144.06 395.4C140.02 394.5 135.03 394.96 131.82 397.75C131.7 397.86 131.85 398.03 131.98 398C136.03 396.87 139.81 396.19 144.02 395.92C144.33 395.9 144.35 395.47 144.06 395.4Z" fill="#263238"/>
<path d="M93.49 321.21L93.5 321.66L94.38 391.88L137.28 391.02L128.47 176.95H92.24L93.49 321.21Z" fill="#263238"/>
<path d="M135.49 383.87C128.79 383.81 130.72 383.73 124.02 383.75C120.74 383.76 99.2 383.83 96.15 384.38C96.08 384.39 96.08 384.51 96.15 384.52C99.22 384.99 120.75 384.54 124.03 384.47C130.73 384.32 128.8 384.29 135.5 384.07C135.62 384.06 135.62 383.87 135.49 383.87Z" fill="#37474F"/>
<path d="M101.66 360.06C101.58 353.64 101.47 347.23 101.35 340.81C101.11 327.98 100.88 315.15 100.64 302.32C100.17 276.79 99.79 251.26 99.41 225.73C99.19 211.33 99.2 196.92 98.83 182.53C98.83 182.49 98.77 182.49 98.77 182.53C98.53 195.36 98.68 208.2 98.7 221.03C98.72 233.86 98.77 246.7 98.9 259.53C99.15 285.06 99.5 310.6 100.11 336.12C100.28 343.32 100.45 350.52 100.7 357.72C100.95 364.92 101.11 372.13 101.62 379.31C101.63 379.42 101.79 379.42 101.79 379.31C101.9 372.89 101.75 366.47 101.66 360.06Z" fill="#37474F"/>
<path d="M92.24 177.38L93.19 286.69L122.24 176.95H92.25L92.24 177.38Z" fill="#37474F"/>
<path d="M28.64 329.99C28.64 329.99 7.94998 363.63 7.92998 363.65C4.56998 370.54 1.73998 376.65 0.579983 379.94C0.569983 379.96 0.559983 379.97 0.559983 379.99C0.119983 381.23 -0.0800175 382.06 0.0299825 382.37C0.0399825 382.4 0.0399825 382.42 0.0499825 382.43C1.41998 384.82 55.74 413.29 57.97 413.64C60.2 414.01 61.39 407.67 60.16 404.88C58.92 402.08 43 381.89 43 381.89L63.35 348.1L28.64 329.99Z" fill="#EB9481"/>
<path d="M0.0399635 382.38C0.0399635 382.4 0.0399635 382.42 0.0499635 382.44C1.42996 384.83 55.75 413.3 57.98 413.66C60.21 414.03 61.39 407.69 60.17 404.9C58.92 402.1 43.01 381.91 43.01 381.91L46.64 375.88C37.76 371.15 21.62 362.84 11.61 357.69C9.42996 361.23 7.93996 363.65 7.93996 363.66C4.57996 370.55 1.74996 376.65 0.589963 379.95C0.579964 379.97 0.569964 379.99 0.569964 380.01C0.119964 381.24 -0.0800365 382.07 0.0399635 382.38Z" fill="white"/>
<path d="M57.98 413.65C55.75 413.3 1.43001 384.83 0.0600095 382.43C-0.479991 381.53 3.21001 373.37 7.94001 363.65C7.99001 363.55 8.04001 363.45 8.09001 363.35L43.34 381.32L43.01 381.91C43.01 381.91 58.93 402.1 60.16 404.9C61.39 407.68 60.2 414.02 57.98 413.65Z" fill="#A6A6A6"/>
<path d="M58.46 411.22C49.42 406.2 12.5 386.79 3.18003 382.51C3.10003 382.48 3.08003 382.53 3.15003 382.57C12 387.74 49.08 406.85 58.38 411.37C58.58 411.47 58.66 411.33 58.46 411.22Z" fill="#263238"/>
<path d="M45.9 383.56C42.65 381 37.95 379.24 33.85 380.37C33.69 380.41 33.76 380.64 33.89 380.66C38.03 381.4 41.73 382.42 45.64 384.01C45.92 384.12 46.13 383.74 45.9 383.56Z" fill="#263238"/>
<path d="M47.68 386.49C44.43 383.93 39.73 382.17 35.64 383.3C35.48 383.34 35.55 383.57 35.68 383.59C39.82 384.33 43.52 385.35 47.43 386.94C47.7 387.05 47.91 386.67 47.68 386.49Z" fill="#263238"/>
<path d="M49.46 389.421C46.21 386.861 41.51 385.101 37.41 386.231C37.25 386.271 37.32 386.5 37.45 386.52C41.59 387.26 45.29 388.281 49.2 389.871C49.48 389.981 49.69 389.601 49.46 389.421Z" fill="#263238"/>
<path d="M123.58 176.91C123.58 176.91 123.58 176.92 123.57 176.95C123.41 177.7 120.88 189.45 118.25 199.55C116.34 206.93 114.38 213.41 113.25 214.08C111.97 214.83 105.75 217.59 103.67 218.46C103.67 218.46 89.68 288.31 82.29 309.97C75.47 329.96 47.27 383.38 47.27 383.38L6.33997 362.7C6.33997 362.7 38.3 308.48 41.66 298.75C46.87 283.67 66.39 210.03 66.39 210.03C66.39 210.03 66.24 186.98 74.01 176.91H123.58Z" fill="#263238"/>
<path d="M46.66 375.4C40.81 372.13 42.54 372.99 36.65 369.79C33.77 368.22 14.84 357.95 11.9 356.96C11.84 356.94 11.78 357.04 11.84 357.08C14.31 358.97 33.41 368.91 36.32 370.42C42.26 373.51 40.59 372.56 46.57 375.58C46.68 375.63 46.77 375.46 46.66 375.4Z" fill="#37474F"/>
<path d="M76.89 203.62C78.01 203.33 79.21 203.24 80.35 203.06C81.27 202.91 82.19 202.75 83.11 202.55C84.83 202.17 86.57 201.6 87.97 200.5C89.55 199.27 90.36 197.4 91.12 195.6C91.57 194.53 92.0399 193.47 92.5199 192.42C92.7499 191.91 92.98 191.4 93.22 190.89C93.5 190.29 93.88 189.67 94.08 189.05C94.11 188.96 94.26 189.01 94.22 189.09C94.04 189.51 93.96 189.98 93.83 190.42C93.67 190.93 93.53 191.45 93.37 191.96C93.09 192.88 92.81 193.8 92.51 194.71C91.97 196.34 91.4799 198.06 90.5599 199.53C88.8699 202.22 85.85 203.3 82.83 203.69C81.96 203.8 81.09 203.86 80.22 203.91C79.14 203.97 77.99 204.07 76.92 203.93C76.75 203.9 76.71 203.66 76.89 203.62Z" fill="#37474F"/>
<path d="M116.56 212.43C112.12 213.96 107.83 216.13 103.73 218.4C103.57 218.49 103.68 218.74 103.85 218.66C108.17 216.8 112.58 215.03 116.79 212.94C117.13 212.78 116.9 212.31 116.56 212.43Z" fill="#37474F"/>
<path d="M117.86 182.83C117.85 182.68 117.59 182.65 117.59 182.81C117.63 187.94 117.3 192.45 116.87 197.25C116.67 199.48 114.88 211.78 111.02 210.88C110.37 210.73 110.04 210.09 109.94 209.12C109.82 207.95 110.26 206.51 110.45 205.35C110.88 202.78 111.22 200.19 111.44 197.59C111.85 192.74 111.87 187.88 111.28 183.04C111.26 182.88 111.03 182.89 111.03 183.05C111.04 189.77 110.86 196.48 109.85 203.14C109.37 206.34 107.76 211.16 111.1 211.65C114.51 212.15 116.71 204.08 117.13 201.88C118.3 195.71 118.35 189.06 117.86 182.83Z" fill="#37474F"/>
<path d="M111.12 211.21C110.77 212.04 110.49 212.9 110.25 213.76C110.06 214.43 109.81 215.16 109.89 215.86C109.9 216 110.08 216.01 110.16 215.92C110.61 215.35 110.8 214.56 111.06 213.88C111.35 213.09 111.66 212.31 111.94 211.51C112.11 210.97 111.33 210.7 111.12 211.21Z" fill="#37474F"/>
<path d="M17.38 355.91C23.21 344.94 29.21 334.08 35.24 323.22C38.21 317.87 41.31 312.58 44.15 307.15C46.95 301.79 48.85 296.16 50.63 290.4C54.2299 278.69 57.6499 266.92 60.8699 255.09C64.09 243.27 67.0999 231.39 69.9499 219.47C70.6599 216.49 71.44 213.51 72.01 210.5C72.61 207.37 72.43 204.45 72 201.31C71.61 198.45 71.49 195.63 71.93 192.76C72.36 189.93 73.07 187.14 73.93 184.4C74.38 182.96 74.87 181.53 75.37 180.1C75.43 179.94 75.67 180.01 75.62 180.18C73.86 185.95 72.0499 191.79 72.43 197.9C72.61 200.84 73.3899 203.73 73.3399 206.68C73.2899 209.62 72.5199 212.51 71.8499 215.36C69.07 227.35 66.07 239.3 62.88 251.19C59.7 263.08 56.32 274.93 52.75 286.71C51.0099 292.44 49.3899 298.26 46.9199 303.73C44.4499 309.21 41.32 314.39 38.38 319.62C32.3 330.43 26.17 341.22 19.9 351.93C19.11 353.29 18.3 354.64 17.5 355.99C17.47 356.08 17.34 356 17.38 355.91Z" fill="#37474F"/>
<path d="M100.63 130.93C108.02 134.24 140.57 140.26 150.38 132.47C160.38 124.54 166.87 91.4901 167.62 87.5601C168.4 83.4801 142.92 77.5201 142.05 81.1101C139.83 90.2601 136 114.24 132.24 115.51C124.34 118.19 116.68 118.67 103.94 121.14C95.05 122.88 92.47 127.28 100.63 130.93Z" fill="#EB9481"/>
<path d="M167.19 88.39C168.72 85.63 174.8 72.22 175.62 68.16C176.44 64.1 177.95 52.23 174.9 51.29C171.85 50.35 171.13 53.79 171.13 53.79C171.13 53.79 170.97 48.68 167.82 48.01C164.67 47.34 163.72 52.73 163.72 52.73C163.72 52.73 163.18 47.49 159.98 47.05C156.79 46.61 156.74 52.18 156.74 52.18C156.74 52.18 156.47 47.37 153.68 48.11C150.33 49 151.84 57.82 150.6 62.23C150.32 63.23 143.44 82.16 143.44 82.16L167.19 88.39Z" fill="#EB9481"/>
<path d="M156.76 51.69C157.85 58.17 157.21 61.2 154.71 67.17C154.66 67.29 154.82 67.39 154.89 67.27C157.87 61.65 159.22 57.97 157.07 51.62C156.97 51.31 156.71 51.39 156.76 51.69Z" fill="#263238"/>
<path d="M163.63 52.21C164.18 59.04 163.51 62.33 161.35 68.78C161.32 68.87 161.47 68.93 161.51 68.84C164.15 62.69 165.42 58.99 163.98 52.24C163.91 51.93 163.6 51.89 163.63 52.21Z" fill="#263238"/>
<path d="M171.01 54.11C171.06 60.76 170.48 64.4 167.59 70.39C167.52 70.53 167.72 70.64 167.8 70.51C171.35 64.69 172.1 60.16 171.21 54.13C171.15 53.72 171.01 53.69 171.01 54.11Z" fill="#263238"/>
<path d="M141.79 85.9401C141.79 85.9401 138.94 78.2101 138.44 74.5401C137.94 70.8701 141.1 56.49 144.25 57C148.31 57.66 148.11 66.31 147.47 70.54C147.47 70.54 156.86 72.0501 158.06 78.2901C159.26 84.5401 141.79 85.9401 141.79 85.9401Z" fill="#EB9481"/>
<path d="M145.3 57.55C148.57 60.82 147.36 66.31 147.04 70.46C147.02 70.78 147.26 70.91 147.51 70.88C151.4 71.77 156.63 74.17 158.21 78.08C158.26 78.19 158.42 78.15 158.39 78.02C157.27 73.6 152.32 70.82 148 70.12C148.4 65.87 149.37 60.31 145.34 57.52C145.31 57.5 145.28 57.53 145.3 57.55Z" fill="#263238"/>
<path d="M140.47 87.2101C140.47 87.2101 134.83 113.11 132.59 114.28C128.87 116.22 107.29 119.9 99.61 121.62C91.93 123.34 85.93 131.68 105.56 134.73C125.19 137.78 143.12 142.53 152.54 138.26C158.41 135.6 176.79 108.78 176.79 108.78L140.47 87.2101Z" fill="#FFC727"/>
<path d="M139.78 96.3601C154.18 104.19 168.1 113.6 170.66 115.15C170.78 115.22 170.61 115.39 170.49 115.32C168.1 113.86 150.76 104.07 139.6 96.5501C139.47 96.4601 139.64 96.2901 139.78 96.3601Z" fill="#263238"/>
<path opacity="0.1" d="M148.43 139.49C138.41 141.32 122.63 137.38 105.56 134.73C93.55 132.86 91.14 129.02 92.82 125.92L148.43 139.49Z" fill="black"/>
<path d="M66.21 193.56C66.38 193.69 130.03 189.25 130.48 188.52C130.71 188.13 129.87 179.46 126.61 169.1C121.17 151.82 109.59 128.52 101.87 121.34C98.78 118.47 90.19 119.7 86.81 123.46C76.77 134.59 65.6 193.07 66.21 193.56Z" fill="#EBEBEB"/>
<path d="M85.45 123.89C85.45 123.89 90.71 133.4 92.35 135.87C96.19 141.67 105.32 149.91 105.32 149.91C105.32 149.91 106.58 139.56 105.83 131.17C105.62 128.83 102.78 121.79 102.78 121.79C102.78 121.79 120.13 140.08 129.33 176.91C138.53 213.74 151.49 320.34 151.49 320.34C151.49 320.34 128.91 338.57 105.33 338.5C67.16 338.39 27.6 312.85 27.6 312.85C27.6 312.85 40.72 291.17 41.66 288.35C42.6 285.53 62.1 209.97 62.31 209.35C62.52 208.72 75.97 135.04 85.45 123.89Z" fill="#FFC727"/>
<path opacity="0.1" d="M111.95 304.33C111 309.06 105.22 327.19 101.6 338.42C94.28 338.09 86.96 336.89 79.93 335.18C86.82 326.63 99.18 307.5 101.05 302.67C103.24 297.01 105.22 269.98 108.38 267.37C111.55 264.76 113.35 297.35 111.95 304.33Z" fill="black"/>
<path opacity="0.1" d="M104.02 248.74C104.01 248.55 103.7 248.5 103.67 248.7C103.48 250.29 103.43 251.9 103.27 253.49C103.11 255.09 102.82 256.68 102.6 258.28C102.17 261.52 101.68 264.76 101.22 268C100.3 274.42 99.07 280.81 97.72 287.15C96.96 290.73 95.99 294.3 94.92 297.8C94.89 297.9 95.04 297.93 95.07 297.84C97.42 291.68 99.45 285.45 101.14 279.08C101.97 275.95 102.48 272.73 102.98 269.53C103.48 266.31 103.81 263.1 103.97 259.85C104.06 258.04 104.02 256.23 104.02 254.42C104.03 252.53 104.15 250.62 104.02 248.74Z" fill="black"/>
<path opacity="0.1" d="M143.36 322.11C143.32 323.44 143.23 324.76 143.13 326.09C142.72 326.34 142.29 326.6 141.86 326.86C141.86 326.76 141.85 326.65 141.85 326.55C141.76 324.59 141.71 322.64 141.65 320.68C141.43 313.82 141.19 306.97 140.57 300.13C140.41 298.42 140.36 296.71 140.2 295C140.03 293.28 139.84 291.5 139.89 289.77C139.94 288.09 139.61 286.33 139.4 284.67C139.19 282.93 138.93 281.2 138.71 279.47C138.7 279.38 138.84 279.36 138.86 279.44C139.3 281.35 139.65 283.27 140.02 285.19C140.2 286.15 140.36 287.11 140.55 288.07C140.73 289.02 141.02 289.95 141.2 290.9C142.5 297.75 143.07 304.73 143.3 311.69C143.42 315.16 143.47 318.63 143.36 322.11Z" fill="black"/>
<path opacity="0.1" d="M136.25 287.97C136.17 285.44 136.09 282.91 135.94 280.39C135.79 277.91 135.58 275.41 135.31 272.94C135.04 270.41 134.59 267.9 134.37 265.37C134.12 262.51 133.85 259.66 133.64 256.8C133.63 256.66 133.41 256.66 133.42 256.81C133.55 259.34 133.65 261.87 133.77 264.39C133.89 266.92 133.81 269.45 133.91 271.98C134.11 277.01 134.59 282.01 135.21 287C135.57 289.85 136.09 292.69 136.35 295.55C136.36 295.65 136.51 295.65 136.51 295.55C136.31 293.03 136.33 290.5 136.25 287.97Z" fill="black"/>
<path opacity="0.1" d="M94.82 305.18C93.16 308.22 91.42 311.21 89.66 314.2C88.09 316.85 86.55 319.52 84.73 322.01C82.95 324.44 81.08 326.78 79.15 329.09C77.79 330.71 76.42 332.33 74.99 333.88C74.56 333.76 74.14 333.64 73.73 333.52C74.15 333.01 74.57 332.5 74.99 331.99C78.51 327.75 81.74 323.29 85.08 318.91C86.79 316.67 88.55 314.48 90.15 312.15C91.72 309.84 93.25 307.5 94.71 305.12C94.75 305.06 94.85 305.11 94.82 305.18Z" fill="black"/>
<path opacity="0.1" d="M87.41 261.23C85.09 268.4 82.74 275.56 79.95 282.56C78.58 286.01 76.94 289.32 75.41 292.69C73.89 296.06 72.39 299.44 70.62 302.69C68.62 306.37 66.41 309.92 63.98 313.33C63.93 313.4 64.05 313.49 64.11 313.42C68.91 307.76 72.85 301.34 76.12 294.68C77.78 291.3 78.96 287.72 80.23 284.18C81.5 280.65 82.66 277.07 83.8 273.49C85.09 269.43 86.31 265.34 87.54 261.26C87.57 261.18 87.44 261.15 87.41 261.23Z" fill="black"/>
<path opacity="0.1" d="M130.32 185.38C129.53 186.19 128.65 186.88 127.82 187.65C127.43 188.01 127.04 188.37 126.65 188.72C126.21 189.12 125.74 189.42 125.28 189.79C123.61 191.14 121.89 192.43 120.2 193.75C116.82 196.39 113.18 198.66 109.28 200.19C100.57 203.6 91.02 202.8 82.13 200.72C76.91 199.49 71.82 197.76 66.68 196.16C66.61 196.14 66.55 196.27 66.63 196.3C71.11 198.26 75.68 200.01 80.3 201.51C84.9 203 89.59 204.13 94.39 204.41C99.09 204.69 103.86 204.14 108.37 202.61C112.44 201.22 116.28 199.05 119.82 196.45C121.82 194.98 123.7 193.34 125.41 191.46C126.28 190.5 127.12 189.52 128 188.56C128.87 187.6 129.64 186.55 130.5 185.58C130.62 185.44 130.44 185.25 130.32 185.38Z" fill="black"/>
<path d="M75.5 134.78C57.21 125.7 36.52 112.52 35.41 101.83C34.41 92.16 40.81 75.74 47.65 57.85C49.01 54.3 76.08 66.32 74.25 69.95C70.65 77.12 60.59 92.7 60.43 97.34C60.36 99.33 76.78 116.07 86 127.54C97.2 141.46 82.79 138.4 75.5 134.78Z" fill="#EB9481"/>
<path d="M53.3 42.2601C50.02 47.4301 45.8 63.0701 46.4 66.4901C47 69.9101 69.3 75.0301 72.06 72.7701C74.82 70.5101 84.51 52.2401 83.83 46.0301C83.15 39.8201 56.7 36.9001 53.3 42.2601Z" fill="#EB9481"/>
<path d="M98.94 37.9701C98.94 37.9701 106.92 45.4701 101.23 55.4201C101.23 55.4201 72.16 56.7401 70.4 57.0701C68.64 57.4001 36.39 66.3401 36.39 66.3401C36.39 66.3401 30.98 59.1501 34.86 47.6401C34.86 47.6401 68.26 48.4501 69.23 48.2201C70.21 47.9901 98.94 37.9701 98.94 37.9701Z" fill="#EBEBEB"/>
<path d="M36.39 66.3301C36.39 66.3301 42.09 55.4801 34.86 47.6301C34.87 47.6401 30.23 56.1501 36.39 66.3301Z" fill="#DBDBDB"/>
<path d="M70.4 57.0701C70.59 57.2901 70.68 57.0701 70.72 56.8701C70.76 56.6701 70.79 56.4701 70.81 56.2501C70.85 55.8301 70.85 55.4101 70.85 54.9901C70.84 54.1501 70.8 53.3101 70.7 52.4801C70.61 51.6401 70.49 50.8001 70.33 49.9801C70.24 49.5701 70.15 49.1601 70.01 48.7901C69.87 48.4501 69.68 47.9501 69.24 48.2201C69.3 48.1301 69.38 48.0301 69.51 47.9901C69.64 47.9501 69.79 47.9901 69.9 48.0501C70.13 48.1701 70.3 48.3601 70.44 48.5401C70.72 48.9201 70.92 49.3301 71.08 49.7601C71.41 50.6101 71.58 51.4801 71.69 52.3701C71.78 53.2701 71.77 54.1701 71.62 55.0601C71.55 55.5001 71.44 55.9401 71.28 56.3701C71.19 56.5801 71.1 56.7901 70.97 56.9901C70.9 57.0901 70.83 57.1901 70.69 57.2501C70.61 57.2901 70.54 57.2701 70.48 57.2201C70.44 57.1801 70.43 57.1101 70.4 57.0701Z" fill="#FFC727"/>
<path d="M69.95 57.1701C70.16 57.3901 70.23 57.1501 70.26 56.9501C70.29 56.7501 70.3 56.5401 70.3 56.3201C70.31 55.9001 70.28 55.4701 70.25 55.0501C70.18 54.2001 70.08 53.3601 69.92 52.5301C69.77 51.6901 69.59 50.8501 69.38 50.0301C69.27 49.6201 69.15 49.2101 68.99 48.8301C68.91 48.6401 68.82 48.4501 68.7 48.3101C68.59 48.1601 68.4 48.1001 68.21 48.2601C68.26 48.1601 68.34 48.0601 68.47 48.0201C68.61 47.9801 68.75 48.0301 68.86 48.0901C69.09 48.2101 69.25 48.4001 69.4 48.5701C69.69 48.9401 69.92 49.3401 70.1 49.7601C70.48 50.5901 70.71 51.4601 70.89 52.3401C71.05 53.2301 71.1 54.1401 71.02 55.0501C70.98 55.5001 70.9 55.9501 70.77 56.3901C70.7 56.6101 70.62 56.8301 70.5 57.0401C70.44 57.1401 70.37 57.2501 70.24 57.3301C70.09 57.4301 69.97 57.2501 69.95 57.1701Z" fill="#FFC727"/>
<path d="M69.61 57.2601C69.65 57.3001 69.69 57.3401 69.74 57.3501C69.79 57.3601 69.75 57.3501 69.76 57.3001C69.77 57.2201 69.75 57.1101 69.73 57.0101C69.69 56.8101 69.65 56.6001 69.59 56.3901L69.29 55.1501C69.09 54.3201 68.92 53.4901 68.74 52.6601C68.58 51.8201 68.43 50.9901 68.3 50.1501C68.23 49.7301 68.17 49.3201 68.07 48.9101C68.03 48.7101 67.97 48.5101 67.9 48.3301C67.84 48.1501 67.69 48.0501 67.49 48.2201C67.53 48.1301 67.6 48.0101 67.76 47.9901C67.91 47.9901 68.03 48.0801 68.12 48.1601C68.3 48.3301 68.41 48.5301 68.52 48.7301C68.73 49.1301 68.9 49.5401 69.04 49.9501C69.33 50.7701 69.53 51.6101 69.71 52.4601C69.87 53.3101 70 54.1601 70.05 55.0301C70.08 55.4601 70.08 55.9001 70.06 56.3401C70.04 56.5601 70.03 56.7801 69.98 57.0001C69.96 57.1101 69.94 57.2201 69.88 57.3401C69.86 57.3701 69.84 57.4001 69.8 57.4301C69.74 57.4601 69.69 57.4201 69.67 57.4001C69.64 57.3601 69.63 57.3101 69.61 57.2601Z" fill="#FFC727"/>
<path d="M82.97 55.7901C80.07 57.2401 80.03 52.9801 80.03 52.9801C80.03 52.9801 78.61 59.1101 75.04 59.4401C71.6 59.7501 71.73 54.6101 71.73 54.2501C71.65 54.5701 70.2 60.1701 66.58 60.1401C62.82 60.1001 63.83 54.9701 63.9 54.6301C63.73 54.9101 61.43 58.6101 58.68 57.9601C53.96 56.8401 59.59 47.2101 58.44 43.4601C58.44 43.4601 53.25 42.6301 53.05 42.6301C53.05 42.6301 56.83 35.4301 61.98 34.1501C64.7 33.4801 65.86 35.8801 65.86 35.8801C65.86 35.8801 67.2 32.7101 70.05 32.6501C71.51 32.6201 72.86 34.9401 72.86 34.9401C72.86 34.9401 74.04 32.4501 76.58 32.5501C78.61 32.6301 79.64 34.9401 79.64 34.9401C79.64 34.9401 81.88 33.0701 83.93 33.8201C88.05 35.3301 89.19 52.6901 82.97 55.7901Z" fill="#EB9481"/>
<path d="M79.85 35.2801C79.84 35.2201 79.92 35.2001 79.94 35.2601C81.71 40.8801 81.93 47.6001 80.05 53.2201C79.99 53.4001 79.66 53.3801 79.69 53.1701C80.52 47.0001 80.76 41.4701 79.85 35.2801Z" fill="#263238"/>
<path d="M72.88 34.85C72.87 34.78 72.98 34.77 73 34.83C74.79 40.63 74.83 48.2 71.9 54.43C71.8 54.64 71.5 54.73 71.59 54.48C73.23 50.2 73.72 40.42 72.88 34.85Z" fill="#263238"/>
<path d="M63.55 55.01C66.12 48.93 66.49 42.64 65.94 36.12C65.93 36.04 66.05 36.03 66.08 36.1C67.22 39.21 67.14 43.4 66.8 46.66C66.47 49.78 65.56 52.53 63.77 55.09C63.69 55.2 63.49 55.14 63.55 55.01Z" fill="#263238"/>
<path d="M80.02 52.9901C79.63 54.1401 79.16 55.2701 78.57 56.3201C77.98 57.3501 77.25 58.3701 76.27 58.9101C75.79 59.1801 75.24 59.2801 74.72 59.1601C74.19 59.0301 73.67 58.7901 73.29 58.4201C72.5 57.7001 72.2 56.5001 72.24 55.4401L72.34 52.7801L71.32 55.2401C70.87 56.3101 70.25 57.3901 69.49 58.2501C68.73 59.1201 67.74 59.7701 66.69 59.7601C65.6 59.7701 64.69 59.1801 64.41 58.1401C64.08 57.1301 64.16 55.8701 64.41 54.7701L65.1 51.6901L63.45 54.3601C63 55.0801 62.44 55.8001 61.81 56.3901C61.18 56.9801 60.45 57.4601 59.69 57.5801C58.94 57.7001 58.12 57.4001 57.73 56.8001C57.31 56.1701 57.22 55.2501 57.23 54.3701C57.26 52.5801 57.68 50.7701 58.01 48.9601C58.18 48.0501 58.35 47.1401 58.48 46.2201C58.59 45.3101 58.72 44.3501 58.44 43.4501C58.63 44.3601 58.4 45.2801 58.23 46.1701C58.03 47.0701 57.79 47.9501 57.55 48.8501C57.07 50.6301 56.61 52.4301 56.46 54.3301C56.42 55.2701 56.41 56.3001 56.97 57.2601C57.55 58.2501 58.76 58.6901 59.82 58.5301C60.9 58.3801 61.77 57.7701 62.49 57.1301C63.21 56.4601 63.81 55.7301 64.35 54.9001L63.39 54.4901C63.09 55.7901 62.96 57.1001 63.35 58.4701C63.55 59.1401 63.99 59.8201 64.63 60.2401C65.27 60.6601 65.99 60.8201 66.71 60.8201C68.2 60.8001 69.42 59.8801 70.26 58.9001C71.12 57.8901 71.74 56.7801 72.23 55.5601L71.31 55.3601C71.3 56.7101 71.74 58.0701 72.8 58.9801C73.33 59.4201 73.96 59.6801 74.62 59.8001C75.3 59.9301 76.02 59.7501 76.58 59.4001C77.71 58.6801 78.34 57.5401 78.88 56.4501C79.38 55.3501 79.76 54.1801 80.02 52.9901Z" fill="#263238"/>
<path d="M74.26 69.9501C74.26 69.9501 95.69 55.2601 85.84 49.7001C82.91 48.0501 68.93 44.7501 68.21 47.5501C67.29 51.1601 72.87 53.6301 76.62 54.6201C76.62 54.6201 68.63 58.5901 69.73 64.9801C70.43 68.9801 74.26 69.9501 74.26 69.9501Z" fill="#EB9481"/>
<path d="M86.63 50.21C85.59 49.38 84.35 48.85 83.13 48.36C81.9 47.87 80.62 47.5 79.33 47.19C76.74 46.59 74.17 46.07 71.46 45.92C70.78 45.89 70.09 45.89 69.35 46.07C68.99 46.16 68.59 46.31 68.26 46.58C68.09 46.71 67.96 46.84 67.81 47.07C67.69 47.27 67.6 47.47 67.55 47.68C67.33 48.5 67.51 49.3 67.83 49.98C68.17 50.65 68.65 51.2 69.17 51.69C70.22 52.64 71.44 53.29 72.68 53.81C73.92 54.34 75.21 54.72 76.5 55.06L76.42 54.2C75.5 54.69 74.68 55.26 73.89 55.9C73.11 56.54 72.38 57.25 71.74 58.03C71.11 58.82 70.58 59.7 70.21 60.63C69.83 61.56 69.63 62.56 69.63 63.55C69.77 62.57 70.06 61.63 70.5 60.76C70.94 59.89 71.53 59.12 72.18 58.41C72.83 57.7 73.56 57.06 74.34 56.5C75.12 55.94 75.96 55.43 76.8 55.03L77.87 54.53L76.72 54.17C75.48 53.78 74.24 53.39 73.08 52.85C71.92 52.32 70.78 51.72 69.89 50.88C69.02 50.08 68.33 48.95 68.59 47.97C68.75 47.09 70.18 46.94 71.41 46.97C72.69 46.99 73.98 47.14 75.28 47.3C76.58 47.46 77.87 47.63 79.16 47.87C81.73 48.39 84.34 48.91 86.63 50.21Z" fill="#263238"/>
<path d="M72.47 73.5801C72.47 73.5801 61.01 95.4601 61.94 97.8101C63.48 101.71 82.77 122.18 87.45 128.5C92.13 134.82 95.05 142.77 77.21 139.04C64.45 136.37 35.25 119.24 30.64 108.17C27.45 100.53 28.33 69.4401 28.33 69.4401L72.47 73.5801Z" fill="#FFC727"/>
<path d="M31.25 77.38C47.63 77.95 64.29 80.13 67.27 80.38C67.41 80.39 67.34 80.62 67.2 80.61C64.41 80.37 44.52 79.37 31.17 77.63C31.02 77.61 31.09 77.38 31.25 77.38Z" fill="#263238"/>
<path d="M94.91 117.52C87.95 117.54 77.61 129.09 78.05 132.17C78.69 136.57 85.3 168.83 86.22 177.46C87.14 186.09 69.25 227.45 69.25 227.45L81.02 224.02L85.51 234.5C85.51 234.5 101.26 198.31 102.46 182.74C103.66 167.16 86.48 127.65 87.24 125.29C88 122.92 92.77 120.05 95.15 119.96C97.53 119.87 102.21 123.71 105.03 127.77C107.86 131.83 121.64 160.7 124.03 171.25C126.43 181.79 121.17 224.69 121.17 224.69L130.5 217.74L139.99 226.13C139.99 226.13 142.25 184.91 138.89 167.66C136.76 156.68 124.09 136.97 112.26 125.83C105.52 119.45 99.1 117.51 94.91 117.52Z" fill="#455A64"/>
<path d="M100.54 131.57C97.98 132.19 91.67 128.41 88.79 124.76C88.59 124.51 88.52 121.52 88.27 117.9C88.11 115.7 87.87 113.26 87.5 111.05L101.95 112.08C101.95 112.08 101.37 116.95 102.05 120.81C102.11 121.13 102.19 121.43 102.3 121.7C102.31 121.74 102.33 121.79 102.35 121.85C102.91 123.51 104.55 130.6 100.54 131.57Z" fill="#EB9481"/>
<path d="M102.29 121.69C102.3 121.73 102.33 121.77 102.34 121.84C101.91 121.98 101.45 122.08 100.92 122.16C93 123.31 89.44 114.02 88.54 111.12L101.95 112.07C101.95 112.07 101.37 116.94 102.04 120.8C102.11 121.12 102.19 121.41 102.29 121.69Z" fill="#263238"/>
<path d="M97.36 82.96C97.36 82.96 102.64 83.83 104.67 88.5C106.7 93.18 106.79 98.56 106.42 98.91C106.05 99.27 97.36 82.96 97.36 82.96Z" fill="#263238"/>
<path d="M81.08 94.4301C80.87 99.6501 87.08 112.93 91.34 115.14C97.5 118.34 105.77 116.63 108.03 109.64C110.22 102.86 101.82 85.7001 97.24 83.8801C90.5 81.1901 81.39 86.7201 81.08 94.4301Z" fill="#EB9481"/>
<path d="M92.74 97.27C93.1 97 93.38 96.69 93.7 96.38C94.07 96.04 94.39 95.8 94.51 95.29C94.57 95.02 94.35 94.67 94.09 94.58C93.48 94.38 92.93 94.69 92.47 95.09C91.97 95.52 91.7 95.98 91.59 96.62C91.48 97.25 92.27 97.63 92.74 97.27Z" fill="#263238"/>
<path d="M101.67 93.41C101.24 93.52 100.82 93.55 100.38 93.61C99.8799 93.68 99.4899 93.79 99.0199 93.56C98.7699 93.44 98.64 93.05 98.73 92.79C98.95 92.19 99.5399 91.95 100.13 91.84C100.78 91.72 101.3 91.79 101.88 92.11C102.44 92.42 102.25 93.27 101.67 93.41Z" fill="#263238"/>
<path d="M97.92 107.54C98.23 107.66 98.57 107.86 98.91 107.74C99.24 107.63 99.55 107.33 99.79 107.09C99.81 107.07 99.86 107.08 99.85 107.12C99.76 107.57 99.36 108 98.91 108.11C98.47 108.21 98.11 107.95 97.85 107.61C97.81 107.57 97.87 107.52 97.92 107.54Z" fill="#263238"/>
<path d="M97.7 104.41C98.55 104.98 99.48 105.09 100.35 104.9C100.74 104.82 101.13 104.67 101.48 104.47C101.55 104.44 101.62 104.4 101.68 104.35C101.74 104.31 101.8 104.28 101.87 104.23C101.97 104.17 101.99 104.06 101.96 103.95V103.94C101.95 103.91 101.93 103.88 101.91 103.85C101.91 103.85 101.91 103.85 101.91 103.84L101.87 103.76C101.59 103.05 101.06 102.02 101.06 102.02C101.37 102.04 102.92 102.06 102.75 101.71C101.27 98.7701 99.63 95.4901 97.53 92.8801C97.47 92.7901 97.32 92.8801 97.37 92.9701C98.68 95.8601 100.49 98.4901 101.85 101.37C101.37 101.39 100.56 101.39 100.2 101.55C100.11 101.62 101.25 103.53 101.35 103.86C101.35 103.86 101.36 103.87 101.36 103.9C100.25 104.55 99.21 104.58 97.74 104.28C97.66 104.27 97.62 104.36 97.7 104.41Z" fill="#263238"/>
<path d="M100.92 104.29C100.92 104.29 100.66 105.39 99.94 106.06C99.68 106.31 99.36 106.5 98.97 106.55C98.16 106.67 97.86 106.01 97.75 105.39C97.66 104.88 97.7 104.38 97.7 104.38C97.7 104.38 99.18 104.92 100.92 104.29Z" fill="#263238"/>
<path d="M99.9499 106.06C99.6899 106.31 99.3699 106.5 98.9799 106.55C98.1699 106.67 97.8699 106.01 97.7599 105.39C98.5599 105.14 99.5599 105.34 99.9499 106.06Z" fill="#FF9BBC"/>
<path d="M93.83 99.48C93.78 99.24 93.79 98.97 93.89 98.7C93.99 98.43 94.24 98.21 94.51 98.11C94.79 98 95.14 98.07 95.37 98.23C95.6 98.39 95.76 98.6 95.88 98.81C95.96 98.95 96.01 99.09 96.07 99.24C96.18 99.55 96.23 99.88 96.19 100.2C96.12 99.97 96.03 99.75 95.92 99.55C95.82 99.36 95.7 99.18 95.58 99.01C95.32 98.67 94.98 98.42 94.67 98.55C94.34 98.66 94.19 99.01 94.2 99.45C94.21 99.88 94.3 100.33 94.4 100.79C94.11 100.4 93.91 99.96 93.83 99.48Z" fill="#263238"/>
<path d="M102.6 95.44C102.46 95.24 102.25 95.06 101.99 94.94C101.73 94.82 101.4 94.86 101.14 94.98C100.87 95.11 100.67 95.4 100.63 95.68C100.59 95.96 100.62 96.22 100.7 96.45C100.75 96.6 100.81 96.74 100.88 96.88C101.03 97.17 101.23 97.44 101.49 97.63C101.37 97.42 101.28 97.21 101.21 96.99C101.14 96.78 101.09 96.58 101.06 96.37C100.99 95.94 101.05 95.53 101.36 95.4C101.67 95.24 102.02 95.37 102.33 95.68C102.63 95.98 102.9 96.36 103.16 96.75C103.07 96.29 102.89 95.84 102.6 95.44Z" fill="#263238"/>
<path d="M85.6 106.12C87.33 105.86 86.9 100.5 86.56 98.52C86.26 96.78 84.43 91.66 84.35 91.3C84.26 90.93 92.98 92.48 96.26 89.56C99.53 86.64 100.45 82.01 99.74 80.4C99.03 78.78 92.39 76.99 88.2 78.73C84.02 80.47 80.96 88.3 80.96 88.3C80.96 88.3 81.77 85.16 81.62 85.01C81.47 84.86 79.33 87.17 79.74 89.28C79.74 89.28 79.14 86.67 78.92 86.72C78.7 86.77 77.61 89.77 78.8 91.08C78.8 91.08 77.41 94.27 78.26 96.62C79.12 98.97 83.57 106.42 85.6 106.12Z" fill="#263238"/>
<path d="M98.59 87.4701C97.69 88.5501 96.81 89.6901 95.61 90.4701C94.32 91.3101 92.72 91.6501 91.2 91.7701C89.65 91.8901 88.1 91.7301 86.59 91.3601C85.27 91.0301 83.97 90.4901 82.62 90.2701C82.28 90.2201 82.16 90.7201 82.43 90.8801C85.07 92.4601 88.72 93.0901 91.75 92.6701C94.93 92.2301 97.24 90.3701 98.62 87.5001C98.62 87.4801 98.6 87.4601 98.59 87.4701Z" fill="#263238"/>
<path d="M87.05 105.01C87.05 105.01 82.64 101.41 80.92 103.11C79.2 104.81 83.41 110.64 86.05 110.85C88.69 111.06 88.94 108.62 88.94 108.62L87.05 105.01Z" fill="#EB9481"/>
<path d="M82.17 104.76C82.13 104.77 82.14 104.82 82.18 104.83C84.05 105.03 85.37 106.34 86.45 107.77C85.78 107.29 85 107.14 84.34 107.97C84.31 108.01 84.37 108.07 84.41 108.05C85.05 107.71 85.58 107.69 86.2 108.1C86.64 108.4 87 108.82 87.37 109.21C87.49 109.34 87.74 109.18 87.63 109.02C87.62 109.01 87.61 109 87.61 108.99C87.03 106.84 84.52 104.32 82.17 104.76Z" fill="#263238"/>
<path d="M102.42 121.42L99.33 130.08L88.32 119.7L85.45 123.28C85.45 123.28 96.47 140.01 96.51 139.24L99.74 131.76L105.01 136.68L104.1 123.86L102.42 121.42Z" fill="#EBEBEB"/>
<path d="M104.91 130.3C104.69 128.19 104.53 126.06 104.21 123.96C104.2 123.89 104.08 123.86 104.07 123.95C103.72 126.01 104.61 134.08 104.68 136.02C104.67 136.01 104.66 136.01 104.66 136C104.44 135.79 99.79 131.68 99.74 131.75C99.02 132.95 96.65 138.4 96.5 138.89C94.76 136.23 88.09 126.58 86.06 124.08C86 124.01 85.89 124.07 85.94 124.16C87.5 126.98 96.32 139.98 96.45 139.94C96.54 140 99.49 133.29 99.82 132.03C100.62 132.93 105.33 137.58 105.34 137.27C105.34 135.14 105.13 132.42 104.91 130.3Z" fill="#263238"/>
<path d="M128.98 13.99C128.98 13.99 122.74 7.56001 118.21 8.37001C113.85 9.16001 111.4 14.94 107.96 15.54C104.52 16.14 101.38 12.01 101.88 9.13001" stroke="#263238" stroke-width="0.75" stroke-miterlimit="10"/>
<path d="M102.01 9.32009C102.01 9.32009 103.1 8.81009 103.85 7.68009C104.61 6.56009 105.34 3.59009 105.34 3.59009" stroke="#FFC727" stroke-width="0.75" stroke-miterlimit="10"/>
<path d="M101.64 9.12002C101.64 9.12002 100.74 7.86002 100.39 6.90002C100.03 5.94002 100.72 2.52002 100.72 2.52002" stroke="#FFC727" stroke-width="0.75" stroke-miterlimit="10"/>
<path d="M101.85 9.25C101.85 9.25 103.29 6.95 103.51 6.12C103.73 5.28 104.48 2.25 104.48 2.25" stroke="#FFC727" stroke-width="0.75" stroke-miterlimit="10"/>
<path d="M101.72 9.20005C101.72 9.20005 101.47 5.94005 101.68 5.16005C101.89 4.38005 102.17 2.05005 102.17 2.05005" stroke="#FFC727" stroke-width="0.75" stroke-miterlimit="10"/>
<path d="M145.99 17.65L170.89 2.21L140.52 0L117.39 18.68L145.99 17.65Z" fill="#FFC727"/>
<path opacity="0.1" d="M145.99 17.65L170.89 2.21L140.52 0L117.39 18.68L145.99 17.65Z" fill="black"/>
<path d="M160.66 15.75L159.07 7.31003C159.07 7.31003 149.61 6.07003 143.19 8.06003C136.77 10.05 129.92 15.66 129.92 15.66L133.17 24.28C133.17 24.28 141.93 19.59 147.15 18.09C152.37 16.58 160.66 15.75 160.66 15.75Z" fill="#FFC727"/>
</g>
<defs>
<clipPath id="clip0_68_907">
<rect width="389.51" height="424.98" fill="white"/>
</clipPath>
</defs>
</svg>
