<svg width="261" height="40" viewBox="0 0 261 40" fill="none" xmlns="http://www.w3.org/2000/svg">
<path fill-rule="evenodd" clip-rule="evenodd" d="M18.9835 8.77459C18.2705 9.30097 14.1354 11.8202 13.9149 12.1835L13.9046 14.97L1.75165 14.9628V38.3297L17.1428 38.3429V30.8693L21.7967 30.8525V38.3465L37.3238 38.3261V14.9604L25.0326 14.9712L25.0292 12.1235L21.2071 9.59113C20.886 9.39089 20.229 9.00001 19.9605 8.74821C19.4566 8.5096 19.4989 8.32615 18.9835 8.77459Z" fill="#F7C75D"/>
<path fill-rule="evenodd" clip-rule="evenodd" d="M19.9616 8.74702C20.2301 8.99882 20.8883 9.38971 21.2082 9.58995L25.0303 12.1223L25.0337 14.97L37.3249 14.9592L35.3367 12.3525C34.8957 11.7746 32.182 8.32136 31.9946 7.94366H19.9422L19.9616 8.74702Z" fill="#637889"/>
<path fill-rule="evenodd" clip-rule="evenodd" d="M1.75278 14.964L13.9057 14.9712L13.916 12.1847C14.1365 11.8213 18.2728 9.30216 18.9847 8.77578L19.0007 7.94604H7.08311C6.92429 8.26499 6.68434 8.51679 6.4581 8.80935C6.21472 9.11871 6.01133 9.38729 5.77824 9.69664L1.75278 14.964Z" fill="#637889"/>
<path fill-rule="evenodd" clip-rule="evenodd" d="M37.3249 38.3274L21.7978 38.3477L17.1439 38.3441L1.75278 38.331L0 38.3202V40H39V38.3202L37.3249 38.3274Z" fill="#395469"/>
<path fill-rule="evenodd" clip-rule="evenodd" d="M18.627 10.9772C16.6743 11.3753 14.9478 13.4412 15.4722 16.0072C15.8733 17.9748 17.8329 19.7974 20.2335 19.2638C22.1474 18.8393 23.8579 16.8405 23.378 14.271C23.0033 12.2314 21.0471 10.4844 18.627 10.9772Z" fill="#395469"/>
<path fill-rule="evenodd" clip-rule="evenodd" d="M19.0772 11.4425C17.2079 11.6427 15.6962 13.3118 15.919 15.542C16.1064 17.4389 17.7906 19.0432 19.8382 18.7914C21.6619 18.5672 23.1553 16.837 22.9222 14.6619C22.7211 12.7986 21.1077 11.2279 19.0772 11.4425Z" fill="#FDFDFD"/>
<path fill-rule="evenodd" clip-rule="evenodd" d="M17.1439 38.3441L21.7978 38.3477V30.8537L17.1439 30.8705V38.3441Z" fill="#FDFDFD"/>
<path fill-rule="evenodd" clip-rule="evenodd" d="M19.9422 1.55054V5.86709C21.3613 5.16685 20.6518 5.98219 21.5099 5.74478C22.1257 5.57452 23.6214 4.26277 25.4965 6.05054C25.6096 6.15605 25.6519 6.23759 25.7399 6.3527C25.9021 6.56972 25.9055 6.46181 25.9764 6.74718H26.1283C26.1512 6.45102 26.2289 6.33231 26.3066 6.05773C26.3843 5.79634 26.4426 5.51337 26.494 5.29275C26.7534 4.23279 26.7111 3.11769 26.3866 2.07692C26.1889 1.44143 26.1146 1.29155 25.4702 1.11889C23.6763 0.642866 22.7268 1.71721 21.2985 1.99898C20.4575 2.16924 20.2073 1.71361 19.9422 1.55054Z" fill="#42C3A1"/>
<path fill-rule="evenodd" clip-rule="evenodd" d="M6.86603 22.6079L8.96845 22.6211L9.01416 18.7398L6.87631 18.7434L6.86603 22.6079Z" fill="#2D92B9"/>
<path fill-rule="evenodd" clip-rule="evenodd" d="M10.3647 22.6115L12.4672 22.6211L12.506 18.7398L10.3739 18.7434L10.3647 22.6115Z" fill="#2D92B9"/>
<path fill-rule="evenodd" clip-rule="evenodd" d="M18.9995 7.94486L18.9835 8.7746C19.4988 8.32616 19.4566 8.50961 19.9616 8.74702L19.9422 7.94486V5.86812V1.55158L19.9616 1.07196H18.9675L18.9995 7.94486Z" fill="#DB8645"/>
<path fill-rule="evenodd" clip-rule="evenodd" d="M18.5105 26.0372C18.4876 26.1871 17.5747 27.0156 17.4033 27.1655L15.5408 28.8141V26.0408C15.3271 26.2554 15.4311 27.1487 15.4311 27.4508C15.4311 27.9101 15.4048 28.464 15.4471 28.9089L18.6087 28.9329L18.6282 26.3297C18.5813 25.9796 18.6979 26.1871 18.5105 26.0372Z" fill="#2D92B9"/>
<path fill-rule="evenodd" clip-rule="evenodd" d="M15.4688 24.8537C15.6596 24.5348 16.5989 23.7734 16.9485 23.4161L18.5516 22.0084C18.2408 21.8693 15.7214 21.9365 15.374 21.9365L15.3866 24.6451C15.4266 24.813 15.4106 24.7626 15.4688 24.8537Z" fill="#28A1D9"/>
<path fill-rule="evenodd" clip-rule="evenodd" d="M20.2073 24.7314C20.4723 24.6775 22.128 23.1067 22.5462 22.7326C22.7702 22.5324 23.2032 22.1679 23.298 21.9413H20.1981L20.2073 24.7314Z" fill="#28A1D9"/>
<path fill-rule="evenodd" clip-rule="evenodd" d="M20.2793 28.8237C20.5249 28.8273 20.4312 28.7902 20.6552 28.5863C21.1831 28.1067 23.2627 26.2746 23.3472 26.024L20.2736 26.0168L20.2793 28.8237Z" fill="#28A1D9"/>
<path fill-rule="evenodd" clip-rule="evenodd" d="M32.2403 24.8105C32.1946 25.2758 31.5273 26.265 31.2907 26.711C31.1056 27.054 30.3515 28.3561 30.3161 28.5564V24.8177C30.1287 25.0252 30.1927 24.8993 30.1995 25.6918L30.203 28.6151C30.5526 28.7134 31.9775 28.7074 32.3408 28.6259C32.3408 28.2902 32.4642 25.0887 32.2403 24.8105Z" fill="#2D92B9"/>
<path fill-rule="evenodd" clip-rule="evenodd" d="M20.2793 28.8238C20.3992 28.9497 20.2084 28.9497 20.9466 28.9365L23.4249 28.9293L23.4546 26.3286C23.3998 25.8453 23.4935 26.1859 23.3472 26.0228C23.2627 26.2746 21.1831 28.1067 20.6552 28.5851C20.4312 28.7902 20.5249 28.8274 20.2793 28.8238Z" fill="#2D92B9"/>
<path fill-rule="evenodd" clip-rule="evenodd" d="M20.2073 24.7314C20.2953 24.9485 21.2733 24.8537 21.7098 24.8537C22.2537 24.8537 22.801 24.8573 23.3449 24.8501C23.4329 24.4089 23.3803 23.8369 23.3803 23.3717L23.2958 21.9413C23.2021 22.1691 22.7679 22.5324 22.5439 22.7326C22.128 23.1067 20.4735 24.6775 20.2073 24.7314Z" fill="#2D92B9"/>
<path fill-rule="evenodd" clip-rule="evenodd" d="M32.2208 18.7566C32.2437 19.2902 30.5526 21.747 30.3161 22.5156V18.7638C30.0796 18.8657 30.203 21.4053 30.1995 21.7746C30.1927 22.6691 30.0247 22.6343 30.8474 22.6247C31.3102 22.6139 31.8769 22.6559 32.3248 22.6007L32.3374 18.9844C32.2825 18.7362 32.4059 18.8957 32.2208 18.7566Z" fill="#2D92B9"/>
<path fill-rule="evenodd" clip-rule="evenodd" d="M15.4688 24.8537H18.5551L18.5516 22.0084L16.9485 23.4161C16.6 23.7734 15.6608 24.5348 15.4688 24.8537Z" fill="#2D92B9"/>
<path fill-rule="evenodd" clip-rule="evenodd" d="M32.2208 30.8357C32.2437 31.193 31.525 32.3477 31.3079 32.7254C31.1296 33.042 30.3778 34.3393 30.3172 34.5983V30.8429C30.0807 30.9316 30.1812 34.259 30.2167 34.6739L32.3316 34.7014L32.3442 31.048C32.3339 30.6834 32.3636 30.9556 32.2208 30.8357Z" fill="#2D92B9"/>
<path fill-rule="evenodd" clip-rule="evenodd" d="M35.8361 30.976C35.6155 31.1427 34.9642 32.4245 34.7803 32.771C34.4592 33.3621 34.1198 33.988 33.7793 34.5791L33.8216 30.8369C33.592 30.9257 33.6925 32.2578 33.6925 32.7266C33.6925 33.3082 33.6468 34.1307 33.7119 34.6811L35.8075 34.7051L35.8361 30.976Z" fill="#2D92B9"/>
<path fill-rule="evenodd" clip-rule="evenodd" d="M5.51542 30.9724C5.30518 31.1391 4.64132 32.4305 4.45964 32.7674C4.13856 33.3621 3.80492 33.988 3.4587 34.5791L3.50441 30.8369C3.27474 30.9257 3.37186 32.2578 3.37186 32.7266C3.37186 33.3082 3.32959 34.1307 3.39472 34.6811L5.48686 34.7051L5.51542 30.9724Z" fill="#2D92B9"/>
<path fill-rule="evenodd" clip-rule="evenodd" d="M35.8384 24.9328C35.667 25.0623 33.8365 28.3585 33.7816 28.536L33.7748 24.8105C33.6319 25.0312 33.6868 25.4161 33.6902 25.6906L33.6936 28.6271L35.8349 28.6643L35.8384 24.9328Z" fill="#2D92B9"/>
<path fill-rule="evenodd" clip-rule="evenodd" d="M9.01071 24.9125C8.80047 25.0923 7.55272 27.4652 7.21908 28.0696C7.1768 28.1475 7.11167 28.253 7.07282 28.3178L6.91742 28.5144V24.7998C6.73917 25.259 6.84658 27.9365 6.87172 28.6403L9.00957 28.6643V24.9125H9.01071Z" fill="#2D92B9"/>
<path fill-rule="evenodd" clip-rule="evenodd" d="M35.8361 18.8921C35.5607 19.1091 33.9153 22.2506 33.7954 22.4916C33.7462 21.9245 33.7211 19.2146 33.8216 18.7602C33.6045 18.8489 33.7085 18.7914 33.6822 19.1307L33.6925 22.5767L35.8372 22.6247V18.8921H35.8361Z" fill="#2D92B9"/>
<path fill-rule="evenodd" clip-rule="evenodd" d="M5.51545 18.8897C5.31778 19.0456 5.44118 18.9305 5.31778 19.1211L3.47815 22.4928C3.42902 21.9257 3.40388 19.2159 3.50443 18.7614C3.28391 18.8501 3.39131 18.7926 3.36503 19.1319L3.37532 22.578L5.51659 22.6259V18.8897H5.51545Z" fill="#2D92B9"/>
<path fill-rule="evenodd" clip-rule="evenodd" d="M18.5105 26.0372L15.5408 26.0408V28.8141L17.4033 27.1655C17.5747 27.0156 18.4876 26.1871 18.5105 26.0372Z" fill="#28A1D9"/>
<path fill-rule="evenodd" clip-rule="evenodd" d="M12.5026 30.9317L12.2078 31.3909C12.1267 31.5468 12.0421 31.6871 11.9553 31.8429C11.7965 32.1391 11.6285 32.4544 11.456 32.7578C11.232 33.1523 10.679 34.301 10.3967 34.5384L10.3933 30.8777L12.4923 30.9317C12.2489 30.711 10.7178 30.8094 10.3842 30.8333L10.3647 34.6943L12.4797 34.7051L12.5026 30.9317Z" fill="#2D92B9"/>
<path fill-rule="evenodd" clip-rule="evenodd" d="M5.51887 24.9293C5.34747 25.0623 3.52042 28.3585 3.46558 28.536L3.45872 24.8105L3.37759 28.6271L5.51544 28.6643L5.51887 24.9293Z" fill="#2D92B9"/>
<path fill-rule="evenodd" clip-rule="evenodd" d="M26.7305 34.5648C26.8734 34.8465 26.6722 34.5983 26.9019 34.6775C26.999 34.7086 27.087 34.711 27.1899 34.7146L28.8318 34.6871L28.8478 30.8357C28.3519 30.7878 27.0859 30.7062 26.726 30.8837H28.7507C28.641 31.3633 28.0411 32.3345 27.7852 32.7866C27.6023 33.1103 26.9316 34.4628 26.7305 34.5648Z" fill="#2D92B9"/>
<path fill-rule="evenodd" clip-rule="evenodd" d="M26.7179 28.5731C26.9807 28.3525 27.5669 27.1595 27.8 26.7278C28.1074 26.1571 28.5907 25.4053 28.7815 24.801L26.7179 24.7938V28.5731Z" fill="#28A1D9"/>
<path fill-rule="evenodd" clip-rule="evenodd" d="M9.00729 30.952C8.79362 31.1427 8.14575 32.4173 7.95836 32.7638C7.73212 33.1823 7.18138 34.2866 6.94143 34.5588C6.87973 33.9676 6.82145 31.241 7.00999 30.8333C6.77689 30.9185 6.85802 30.9461 6.86373 31.6859C6.87401 32.4233 6.81803 34.1775 6.89001 34.6871L8.98558 34.7038L9.00729 30.952Z" fill="#2D92B9"/>
<path fill-rule="evenodd" clip-rule="evenodd" d="M12.5026 24.8921C12.3152 25.0719 11.2423 27.0983 10.9646 27.6043C10.7738 27.9544 10.6378 28.3118 10.3979 28.4988L10.3945 24.7974L10.3625 28.6487L12.5037 28.6655V24.8921H12.5026Z" fill="#2D92B9"/>
<path fill-rule="evenodd" clip-rule="evenodd" d="M26.7145 22.53C27.0128 22.2314 28.7518 19.0252 28.7198 18.7542L26.7317 18.7434L26.7145 22.53Z" fill="#28A1D9"/>
<path fill-rule="evenodd" clip-rule="evenodd" d="M26.7145 22.53C26.9156 22.7266 28.4502 22.6391 28.8261 22.6079L28.8524 18.9784C28.8524 18.5708 28.8787 18.8861 28.7198 18.7542C28.7518 19.0252 27.0128 22.2302 26.7145 22.53Z" fill="#2D92B9"/>
<path fill-rule="evenodd" clip-rule="evenodd" d="M9.00731 30.9521C8.97189 30.7171 8.30117 30.8226 8.07493 30.8226C7.72186 30.8262 7.34936 30.8094 7.00886 30.8334C6.82147 31.241 6.87974 33.9677 6.9403 34.5588C7.18025 34.2866 7.731 33.1823 7.95724 32.7638C8.14577 32.4161 8.79364 31.1415 9.00731 30.9521Z" fill="#28A1D9"/>
<path fill-rule="evenodd" clip-rule="evenodd" d="M12.5026 24.8921C12.2569 24.7015 10.695 24.7902 10.3944 24.7974L10.3979 28.4988C10.6378 28.3118 10.7738 27.9545 10.9646 27.6043C11.2423 27.0971 12.3141 25.072 12.5026 24.8921Z" fill="#28A1D9"/>
<path fill-rule="evenodd" clip-rule="evenodd" d="M26.7179 28.5731C26.9739 28.7434 28.6615 28.6619 28.8489 28.6379V25.7722C28.8489 25.6127 28.8558 25.446 28.8558 25.2866L28.8044 24.8621C28.8009 24.8489 28.7918 24.8213 28.7815 24.801C28.5907 25.4065 28.1074 26.1571 27.8 26.7278C27.5669 27.1583 26.9807 28.3513 26.7179 28.5731Z" fill="#2D92B9"/>
<path fill-rule="evenodd" clip-rule="evenodd" d="M10.3933 22.4509L10.7007 22.0468C10.7818 21.8969 10.8469 21.7746 10.9497 21.5948C11.2834 21 12.3232 19.1787 12.4523 18.7734H10.3876L10.3933 22.4509Z" fill="#28A1D9"/>
<path fill-rule="evenodd" clip-rule="evenodd" d="M26.7305 34.5648C26.9316 34.4629 27.6024 33.1104 27.7863 32.7866C28.0423 32.3346 28.641 31.3621 28.7518 30.8837H26.7271L26.7305 34.5648Z" fill="#28A1D9"/>
<path fill-rule="evenodd" clip-rule="evenodd" d="M6.922 22.4712C7.17795 22.1751 8.85532 19.1271 8.96273 18.7734H6.89572L6.922 22.4712Z" fill="#28A1D9"/>
<path fill-rule="evenodd" clip-rule="evenodd" d="M9.0107 24.9125C8.88159 24.7998 8.81303 24.7902 8.53766 24.783C8.36969 24.7794 8.17202 24.7938 7.99948 24.7938C7.63727 24.7938 7.27735 24.7866 6.91742 24.801V28.5156L7.07282 28.319C7.11167 28.2542 7.17679 28.1487 7.21907 28.0708C7.55272 27.464 8.80046 25.0923 9.0107 24.9125Z" fill="#28A1D9"/>
<path fill-rule="evenodd" clip-rule="evenodd" d="M5.51544 18.8897C5.49944 18.6619 5.36918 18.747 5.11437 18.7362C4.95555 18.729 4.73845 18.7434 4.57049 18.7434C4.22084 18.747 3.83235 18.7195 3.50442 18.7602C3.40387 19.2159 3.43015 21.9245 3.47814 22.4916L5.31776 19.1199C5.44116 18.9305 5.31776 19.0456 5.51544 18.8897Z" fill="#28A1D9"/>
<path fill-rule="evenodd" clip-rule="evenodd" d="M12.5026 30.9317H12.4923L10.3933 30.8777L10.3967 34.5384C10.679 34.301 11.232 33.1511 11.456 32.7578C11.6273 32.4556 11.7965 32.1391 11.9553 31.8429C12.0433 31.6871 12.1267 31.5468 12.2078 31.3909L12.5026 30.9317Z" fill="#28A1D9"/>
<path fill-rule="evenodd" clip-rule="evenodd" d="M35.8361 18.8921C35.8235 18.6607 35.6967 18.7458 35.4316 18.7362C35.2728 18.729 35.0557 18.7434 34.8912 18.7434C34.5415 18.747 34.1496 18.7194 33.8228 18.7602C33.7223 19.2158 33.7485 21.9245 33.7965 22.4916C33.9154 22.2506 35.5607 19.1103 35.8361 18.8921Z" fill="#28A1D9"/>
<path fill-rule="evenodd" clip-rule="evenodd" d="M35.8384 24.9329C35.7218 24.8238 35.7058 24.7902 35.3493 24.783L33.7748 24.8106L33.7817 28.536C33.8377 28.3585 35.667 25.0612 35.8384 24.9329Z" fill="#28A1D9"/>
<path fill-rule="evenodd" clip-rule="evenodd" d="M35.8361 30.976C35.8041 30.741 35.7035 30.8226 35.4316 30.813C35.2727 30.8094 35.0557 30.8238 34.8911 30.8238C34.5415 30.8274 34.1496 30.7998 33.8228 30.837L33.7805 34.5792C34.121 33.988 34.4603 33.3621 34.7814 32.771C34.9642 32.4233 35.6155 31.1415 35.8361 30.976Z" fill="#28A1D9"/>
<path fill-rule="evenodd" clip-rule="evenodd" d="M5.51546 30.9724C5.48346 30.7446 5.37606 30.8226 5.11097 30.813C4.95557 30.8094 4.73848 30.8237 4.57051 30.8237C4.22087 30.8273 3.83238 30.7998 3.50445 30.8369L3.45874 34.5791C3.80495 33.988 4.1386 33.3621 4.45968 32.7674C4.64135 32.4305 5.30522 31.1391 5.51546 30.9724Z" fill="#28A1D9"/>
<path fill-rule="evenodd" clip-rule="evenodd" d="M5.51889 24.9293C5.36349 24.7866 5.5486 24.8885 5.32464 24.8201L3.45874 24.8094L3.4656 28.5348C3.52044 28.3585 5.3475 25.0612 5.51889 24.9293Z" fill="#28A1D9"/>
<path fill-rule="evenodd" clip-rule="evenodd" d="M32.2208 30.8357L30.3161 30.8429V34.5983C30.3778 34.3405 31.1285 33.042 31.3067 32.7254C31.525 32.3489 32.2437 31.193 32.2208 30.8357Z" fill="#28A1D9"/>
<path fill-rule="evenodd" clip-rule="evenodd" d="M32.2402 24.8105L30.3161 24.8177V28.5564C30.3515 28.3561 31.1068 27.054 31.2907 26.711C31.5272 26.265 32.1945 25.2758 32.2402 24.8105Z" fill="#28A1D9"/>
<path fill-rule="evenodd" clip-rule="evenodd" d="M32.2208 18.7566L30.3161 18.7638V22.5156C30.5526 21.7482 32.2437 19.2902 32.2208 18.7566Z" fill="#28A1D9"/>
<path d="M57.104 16.068C57.88 16.164 58.472 16.428 58.88 16.86C59.288 17.292 59.492 17.832 59.492 18.48C59.492 18.968 59.368 19.412 59.12 19.812C58.872 20.212 58.496 20.532 57.992 20.772C57.496 21.004 56.888 21.12 56.168 21.12C55.568 21.12 54.988 21.036 54.428 20.868C53.876 20.692 53.404 20.452 53.012 20.148L53.684 18.936C53.988 19.192 54.356 19.396 54.788 19.548C55.228 19.692 55.68 19.764 56.144 19.764C56.696 19.764 57.128 19.652 57.44 19.428C57.76 19.196 57.92 18.884 57.92 18.492C57.92 18.1 57.768 17.796 57.464 17.58C57.168 17.356 56.712 17.244 56.096 17.244H55.328V16.176L57.236 13.908H53.42V12.6H59.144V13.644L57.104 16.068ZM61.4484 21.084C61.1764 21.084 60.9444 20.992 60.7524 20.808C60.5604 20.616 60.4644 20.376 60.4644 20.088C60.4644 19.792 60.5564 19.552 60.7404 19.368C60.9324 19.184 61.1684 19.092 61.4484 19.092C61.7284 19.092 61.9604 19.184 62.1444 19.368C62.3364 19.552 62.4324 19.792 62.4324 20.088C62.4324 20.376 62.3364 20.616 62.1444 20.808C61.9524 20.992 61.7204 21.084 61.4484 21.084ZM66.0701 15.852C67.2541 15.852 68.1301 16.084 68.6981 16.548C69.2661 17.004 69.5501 17.628 69.5501 18.42C69.5501 18.924 69.4261 19.38 69.1781 19.788C68.9301 20.196 68.5581 20.52 68.0621 20.76C67.5661 21 66.9541 21.12 66.2261 21.12C65.6261 21.12 65.0461 21.036 64.4861 20.868C63.9261 20.692 63.4541 20.452 63.0701 20.148L63.7301 18.936C64.0421 19.192 64.4141 19.396 64.8461 19.548C65.2861 19.692 65.7381 19.764 66.2021 19.764C66.7541 19.764 67.1861 19.652 67.4981 19.428C67.8181 19.196 67.9781 18.88 67.9781 18.48C67.9781 18.048 67.8061 17.724 67.4621 17.508C67.1261 17.284 66.5461 17.172 65.7221 17.172H63.6941L64.1261 12.6H69.0581V13.908H65.4461L65.2661 15.852H66.0701ZM73.9673 16.068C74.7433 16.164 75.3353 16.428 75.7433 16.86C76.1513 17.292 76.3553 17.832 76.3553 18.48C76.3553 18.968 76.2313 19.412 75.9833 19.812C75.7353 20.212 75.3593 20.532 74.8553 20.772C74.3593 21.004 73.7513 21.12 73.0313 21.12C72.4313 21.12 71.8513 21.036 71.2913 20.868C70.7393 20.692 70.2673 20.452 69.8753 20.148L70.5473 18.936C70.8513 19.192 71.2193 19.396 71.6513 19.548C72.0913 19.692 72.5433 19.764 73.0073 19.764C73.5593 19.764 73.9913 19.652 74.3033 19.428C74.6233 19.196 74.7833 18.884 74.7833 18.492C74.7833 18.1 74.6313 17.796 74.3273 17.58C74.0313 17.356 73.5753 17.244 72.9593 17.244H72.1913V16.176L74.0993 13.908H70.2833V12.6H76.0073V13.644L73.9673 16.068ZM83.4011 19.68V21H77.2091V19.956L80.5451 16.788C80.9211 16.428 81.1731 16.116 81.3011 15.852C81.4371 15.58 81.5051 15.312 81.5051 15.048C81.5051 14.656 81.3731 14.356 81.1091 14.148C80.8451 13.94 80.4571 13.836 79.9451 13.836C79.0891 13.836 78.4331 14.128 77.9771 14.712L76.8851 13.872C77.2131 13.432 77.6531 13.092 78.2051 12.852C78.7651 12.604 79.3891 12.48 80.0771 12.48C80.9891 12.48 81.7171 12.696 82.2611 13.128C82.8051 13.56 83.0771 14.148 83.0771 14.892C83.0771 15.348 82.9811 15.776 82.7891 16.176C82.5971 16.576 82.2291 17.032 81.6851 17.544L79.4411 19.68H83.4011ZM54.128 27.6H55.688V36H54.128V27.6ZM61.452 29.52C62.26 29.52 62.908 29.756 63.396 30.228C63.884 30.7 64.128 31.4 64.128 32.328V36H62.628V32.52C62.628 31.96 62.496 31.54 62.232 31.26C61.968 30.972 61.592 30.828 61.104 30.828C60.552 30.828 60.116 30.996 59.796 31.332C59.476 31.66 59.316 32.136 59.316 32.76V36H57.816V29.592H59.244V30.42C59.492 30.124 59.804 29.9 60.18 29.748C60.556 29.596 60.98 29.52 61.452 29.52ZM68.0109 36.084C67.4909 36.084 66.9829 36.016 66.4869 35.88C65.9909 35.744 65.5949 35.572 65.2989 35.364L65.8749 34.224C66.1629 34.416 66.5069 34.572 66.9069 34.692C67.3149 34.804 67.7149 34.86 68.1069 34.86C69.0029 34.86 69.4509 34.624 69.4509 34.152C69.4509 33.928 69.3349 33.772 69.1029 33.684C68.8789 33.596 68.5149 33.512 68.0109 33.432C67.4829 33.352 67.0509 33.26 66.7149 33.156C66.3869 33.052 66.0989 32.872 65.8509 32.616C65.6109 32.352 65.4909 31.988 65.4909 31.524C65.4909 30.916 65.7429 30.432 66.2469 30.072C66.7589 29.704 67.4469 29.52 68.3109 29.52C68.7509 29.52 69.1909 29.572 69.6309 29.676C70.0709 29.772 70.4309 29.904 70.7109 30.072L70.1349 31.212C69.5909 30.892 68.9789 30.732 68.2989 30.732C67.8589 30.732 67.5229 30.8 67.2909 30.936C67.0669 31.064 66.9549 31.236 66.9549 31.452C66.9549 31.692 67.0749 31.864 67.3149 31.968C67.5629 32.064 67.9429 32.156 68.4549 32.244C68.9669 32.324 69.3869 32.416 69.7149 32.52C70.0429 32.624 70.3229 32.8 70.5549 33.048C70.7949 33.296 70.9149 33.648 70.9149 34.104C70.9149 34.704 70.6549 35.184 70.1349 35.544C69.6149 35.904 68.9069 36.084 68.0109 36.084ZM76.0587 35.652C75.8827 35.796 75.6667 35.904 75.4107 35.976C75.1627 36.048 74.8987 36.084 74.6187 36.084C73.9147 36.084 73.3707 35.9 72.9867 35.532C72.6027 35.164 72.4107 34.628 72.4107 33.924V30.84H71.3547V29.64H72.4107V28.176H73.9107V29.64H75.6267V30.84H73.9107V33.888C73.9107 34.2 73.9867 34.44 74.1387 34.608C74.2907 34.768 74.5107 34.848 74.7987 34.848C75.1347 34.848 75.4147 34.76 75.6387 34.584L76.0587 35.652ZM77.2926 29.592H78.7926V36H77.2926V29.592ZM78.0486 28.536C77.7766 28.536 77.5486 28.452 77.3646 28.284C77.1806 28.108 77.0886 27.892 77.0886 27.636C77.0886 27.38 77.1806 27.168 77.3646 27C77.5486 26.824 77.7766 26.736 78.0486 26.736C78.3206 26.736 78.5486 26.82 78.7326 26.988C78.9166 27.148 79.0086 27.352 79.0086 27.6C79.0086 27.864 78.9166 28.088 78.7326 28.272C78.5566 28.448 78.3286 28.536 78.0486 28.536ZM84.6133 35.652C84.4373 35.796 84.2213 35.904 83.9653 35.976C83.7173 36.048 83.4533 36.084 83.1733 36.084C82.4693 36.084 81.9253 35.9 81.5413 35.532C81.1573 35.164 80.9653 34.628 80.9653 33.924V30.84H79.9093V29.64H80.9653V28.176H82.4653V29.64H84.1813V30.84H82.4653V33.888C82.4653 34.2 82.5413 34.44 82.6933 34.608C82.8453 34.768 83.0653 34.848 83.3533 34.848C83.6893 34.848 83.9693 34.76 84.1933 34.584L84.6133 35.652ZM92.0513 29.592V36H90.6233V35.184C90.3833 35.472 90.0833 35.696 89.7233 35.856C89.3633 36.008 88.9753 36.084 88.5593 36.084C87.7033 36.084 87.0273 35.848 86.5313 35.376C86.0433 34.896 85.7993 34.188 85.7993 33.252V29.592H87.2993V33.048C87.2993 33.624 87.4273 34.056 87.6833 34.344C87.9473 34.624 88.3193 34.764 88.7993 34.764C89.3353 34.764 89.7593 34.6 90.0713 34.272C90.3913 33.936 90.5513 33.456 90.5513 32.832V29.592H92.0513ZM95.9953 36.084C95.4753 36.084 94.9673 36.016 94.4713 35.88C93.9753 35.744 93.5793 35.572 93.2833 35.364L93.8593 34.224C94.1473 34.416 94.4913 34.572 94.8913 34.692C95.2993 34.804 95.6993 34.86 96.0913 34.86C96.9873 34.86 97.4353 34.624 97.4353 34.152C97.4353 33.928 97.3193 33.772 97.0873 33.684C96.8633 33.596 96.4993 33.512 95.9953 33.432C95.4673 33.352 95.0353 33.26 94.6993 33.156C94.3713 33.052 94.0833 32.872 93.8353 32.616C93.5953 32.352 93.4753 31.988 93.4753 31.524C93.4753 30.916 93.7273 30.432 94.2313 30.072C94.7433 29.704 95.4313 29.52 96.2953 29.52C96.7353 29.52 97.1753 29.572 97.6153 29.676C98.0553 29.772 98.4153 29.904 98.6953 30.072L98.1193 31.212C97.5753 30.892 96.9633 30.732 96.2833 30.732C95.8433 30.732 95.5073 30.8 95.2753 30.936C95.0513 31.064 94.9393 31.236 94.9393 31.452C94.9393 31.692 95.0593 31.864 95.2993 31.968C95.5473 32.064 95.9273 32.156 96.4393 32.244C96.9513 32.324 97.3713 32.416 97.6993 32.52C98.0273 32.624 98.3073 32.8 98.5393 33.048C98.7793 33.296 98.8993 33.648 98.8993 34.104C98.8993 34.704 98.6393 35.184 98.1193 35.544C97.5993 35.904 96.8913 36.084 95.9953 36.084ZM100.191 29.592H101.691V36H100.191V29.592ZM100.947 28.536C100.675 28.536 100.447 28.452 100.263 28.284C100.079 28.108 99.987 27.892 99.987 27.636C99.987 27.38 100.079 27.168 100.263 27C100.447 26.824 100.675 26.736 100.947 26.736C101.219 26.736 101.447 26.82 101.631 26.988C101.815 27.148 101.907 27.352 101.907 27.6C101.907 27.864 101.815 28.088 101.631 28.272C101.455 28.448 101.227 28.536 100.947 28.536ZM110.528 29.52C111.152 29.52 111.708 29.656 112.196 29.928C112.692 30.2 113.08 30.584 113.36 31.08C113.64 31.576 113.78 32.148 113.78 32.796C113.78 33.444 113.64 34.02 113.36 34.524C113.08 35.02 112.692 35.404 112.196 35.676C111.708 35.948 111.152 36.084 110.528 36.084C109.664 36.084 108.98 35.796 108.476 35.22V38.328H106.976V29.592H108.404V30.432C108.652 30.128 108.956 29.9 109.316 29.748C109.684 29.596 110.088 29.52 110.528 29.52ZM110.36 34.8C110.912 34.8 111.364 34.616 111.716 34.248C112.076 33.88 112.256 33.396 112.256 32.796C112.256 32.196 112.076 31.712 111.716 31.344C111.364 30.976 110.912 30.792 110.36 30.792C110 30.792 109.676 30.876 109.388 31.044C109.1 31.204 108.872 31.436 108.704 31.74C108.536 32.044 108.452 32.396 108.452 32.796C108.452 33.196 108.536 33.548 108.704 33.852C108.872 34.156 109.1 34.392 109.388 34.56C109.676 34.72 110 34.8 110.36 34.8ZM121.227 32.832C121.227 32.936 121.219 33.084 121.203 33.276H116.175C116.263 33.748 116.491 34.124 116.859 34.404C117.235 34.676 117.699 34.812 118.251 34.812C118.955 34.812 119.535 34.58 119.991 34.116L120.795 35.04C120.507 35.384 120.143 35.644 119.703 35.82C119.263 35.996 118.767 36.084 118.215 36.084C117.511 36.084 116.891 35.944 116.355 35.664C115.819 35.384 115.403 34.996 115.107 34.5C114.819 33.996 114.675 33.428 114.675 32.796C114.675 32.172 114.815 31.612 115.095 31.116C115.383 30.612 115.779 30.22 116.283 29.94C116.787 29.66 117.355 29.52 117.987 29.52C118.611 29.52 119.167 29.66 119.655 29.94C120.151 30.212 120.535 30.6 120.807 31.104C121.087 31.6 121.227 32.176 121.227 32.832ZM117.987 30.72C117.507 30.72 117.099 30.864 116.763 31.152C116.435 31.432 116.235 31.808 116.163 32.28H119.799C119.735 31.816 119.539 31.44 119.211 31.152C118.883 30.864 118.475 30.72 117.987 30.72ZM126.304 29.52C127.112 29.52 127.76 29.756 128.248 30.228C128.736 30.7 128.98 31.4 128.98 32.328V36H127.48V32.52C127.48 31.96 127.348 31.54 127.084 31.26C126.82 30.972 126.444 30.828 125.956 30.828C125.404 30.828 124.968 30.996 124.648 31.332C124.328 31.66 124.168 32.136 124.168 32.76V36H122.668V29.592H124.096V30.42C124.344 30.124 124.656 29.9 125.032 29.748C125.408 29.596 125.832 29.52 126.304 29.52ZM137.217 27.096V36H135.777V35.172C135.529 35.476 135.221 35.704 134.853 35.856C134.493 36.008 134.093 36.084 133.653 36.084C133.037 36.084 132.481 35.948 131.985 35.676C131.497 35.404 131.113 35.02 130.833 34.524C130.553 34.02 130.413 33.444 130.413 32.796C130.413 32.148 130.553 31.576 130.833 31.08C131.113 30.584 131.497 30.2 131.985 29.928C132.481 29.656 133.037 29.52 133.653 29.52C134.077 29.52 134.465 29.592 134.817 29.736C135.169 29.88 135.469 30.096 135.717 30.384V27.096H137.217ZM133.833 34.8C134.193 34.8 134.517 34.72 134.805 34.56C135.093 34.392 135.321 34.156 135.489 33.852C135.657 33.548 135.741 33.196 135.741 32.796C135.741 32.396 135.657 32.044 135.489 31.74C135.321 31.436 135.093 31.204 134.805 31.044C134.517 30.876 134.193 30.792 133.833 30.792C133.473 30.792 133.149 30.876 132.861 31.044C132.573 31.204 132.345 31.436 132.177 31.74C132.009 32.044 131.925 32.396 131.925 32.796C131.925 33.196 132.009 33.548 132.177 33.852C132.345 34.156 132.573 34.392 132.861 34.56C133.149 34.72 133.473 34.8 133.833 34.8ZM139.179 29.592H140.679V36H139.179V29.592ZM139.935 28.536C139.663 28.536 139.435 28.452 139.251 28.284C139.067 28.108 138.975 27.892 138.975 27.636C138.975 27.38 139.067 27.168 139.251 27C139.435 26.824 139.663 26.736 139.935 26.736C140.207 26.736 140.435 26.82 140.619 26.988C140.803 27.148 140.895 27.352 140.895 27.6C140.895 27.864 140.803 28.088 140.619 28.272C140.443 28.448 140.215 28.536 139.935 28.536ZM148.924 27.096V36H147.484V35.172C147.236 35.476 146.928 35.704 146.56 35.856C146.2 36.008 145.8 36.084 145.36 36.084C144.744 36.084 144.188 35.948 143.692 35.676C143.204 35.404 142.82 35.02 142.54 34.524C142.26 34.02 142.12 33.444 142.12 32.796C142.12 32.148 142.26 31.576 142.54 31.08C142.82 30.584 143.204 30.2 143.692 29.928C144.188 29.656 144.744 29.52 145.36 29.52C145.784 29.52 146.172 29.592 146.524 29.736C146.876 29.88 147.176 30.096 147.424 30.384V27.096H148.924ZM145.54 34.8C145.9 34.8 146.224 34.72 146.512 34.56C146.8 34.392 147.028 34.156 147.196 33.852C147.364 33.548 147.448 33.196 147.448 32.796C147.448 32.396 147.364 32.044 147.196 31.74C147.028 31.436 146.8 31.204 146.512 31.044C146.224 30.876 145.9 30.792 145.54 30.792C145.18 30.792 144.856 30.876 144.568 31.044C144.28 31.204 144.052 31.436 143.884 31.74C143.716 32.044 143.632 32.396 143.632 32.796C143.632 33.196 143.716 33.548 143.884 33.852C144.052 34.156 144.28 34.392 144.568 34.56C144.856 34.72 145.18 34.8 145.54 34.8ZM150.886 29.592H152.386V36H150.886V29.592ZM151.642 28.536C151.37 28.536 151.142 28.452 150.958 28.284C150.774 28.108 150.682 27.892 150.682 27.636C150.682 27.38 150.774 27.168 150.958 27C151.142 26.824 151.37 26.736 151.642 26.736C151.914 26.736 152.142 26.82 152.326 26.988C152.51 27.148 152.602 27.352 152.602 27.6C152.602 27.864 152.51 28.088 152.326 28.272C152.15 28.448 151.922 28.536 151.642 28.536ZM156.971 33.252L155.855 34.308V36H154.355V27.096H155.855V32.472L158.963 29.592H160.763L158.087 32.28L161.015 36H159.191L156.971 33.252ZM164.315 29.52C165.259 29.52 165.979 29.748 166.475 30.204C166.979 30.652 167.231 31.332 167.231 32.244V36H165.815V35.22C165.631 35.5 165.367 35.716 165.023 35.868C164.687 36.012 164.279 36.084 163.799 36.084C163.319 36.084 162.899 36.004 162.539 35.844C162.179 35.676 161.899 35.448 161.699 35.16C161.507 34.864 161.411 34.532 161.411 34.164C161.411 33.588 161.623 33.128 162.047 32.784C162.479 32.432 163.155 32.256 164.075 32.256H165.731V32.16C165.731 31.712 165.595 31.368 165.323 31.128C165.059 30.888 164.663 30.768 164.135 30.768C163.775 30.768 163.419 30.824 163.067 30.936C162.723 31.048 162.431 31.204 162.191 31.404L161.603 30.312C161.939 30.056 162.343 29.86 162.815 29.724C163.287 29.588 163.787 29.52 164.315 29.52ZM164.111 34.992C164.487 34.992 164.819 34.908 165.107 34.74C165.403 34.564 165.611 34.316 165.731 33.996V33.252H164.183C163.319 33.252 162.887 33.536 162.887 34.104C162.887 34.376 162.995 34.592 163.211 34.752C163.427 34.912 163.727 34.992 164.111 34.992ZM172.792 29.52C173.6 29.52 174.248 29.756 174.736 30.228C175.224 30.7 175.468 31.4 175.468 32.328V36H173.968V32.52C173.968 31.96 173.836 31.54 173.572 31.26C173.308 30.972 172.932 30.828 172.444 30.828C171.892 30.828 171.456 30.996 171.136 31.332C170.816 31.66 170.656 32.136 170.656 32.76V36H169.156V29.592H170.584V30.42C170.832 30.124 171.144 29.9 171.52 29.748C171.896 29.596 172.32 29.52 172.792 29.52ZM186.963 27.096V36H185.523V35.172C185.275 35.476 184.967 35.704 184.599 35.856C184.239 36.008 183.839 36.084 183.399 36.084C182.783 36.084 182.227 35.948 181.731 35.676C181.243 35.404 180.859 35.02 180.579 34.524C180.299 34.02 180.159 33.444 180.159 32.796C180.159 32.148 180.299 31.576 180.579 31.08C180.859 30.584 181.243 30.2 181.731 29.928C182.227 29.656 182.783 29.52 183.399 29.52C183.823 29.52 184.211 29.592 184.563 29.736C184.915 29.88 185.215 30.096 185.463 30.384V27.096H186.963ZM183.579 34.8C183.939 34.8 184.263 34.72 184.551 34.56C184.839 34.392 185.067 34.156 185.235 33.852C185.403 33.548 185.487 33.196 185.487 32.796C185.487 32.396 185.403 32.044 185.235 31.74C185.067 31.436 184.839 31.204 184.551 31.044C184.263 30.876 183.939 30.792 183.579 30.792C183.219 30.792 182.895 30.876 182.607 31.044C182.319 31.204 182.091 31.436 181.923 31.74C181.755 32.044 181.671 32.396 181.671 32.796C181.671 33.196 181.755 33.548 181.923 33.852C182.091 34.156 182.319 34.392 182.607 34.56C182.895 34.72 183.219 34.8 183.579 34.8ZM188.925 29.592H190.425V36H188.925V29.592ZM189.681 28.536C189.409 28.536 189.181 28.452 188.997 28.284C188.813 28.108 188.721 27.892 188.721 27.636C188.721 27.38 188.813 27.168 188.997 27C189.181 26.824 189.409 26.736 189.681 26.736C189.953 26.736 190.181 26.82 190.365 26.988C190.549 27.148 190.641 27.352 190.641 27.6C190.641 27.864 190.549 28.088 190.365 28.272C190.189 28.448 189.961 28.536 189.681 28.536ZM195.711 29.592H197.211V36H195.711V29.592ZM196.467 28.536C196.195 28.536 195.967 28.452 195.783 28.284C195.599 28.108 195.507 27.892 195.507 27.636C195.507 27.38 195.599 27.168 195.783 27C195.967 26.824 196.195 26.736 196.467 26.736C196.739 26.736 196.967 26.82 197.151 26.988C197.335 27.148 197.427 27.352 197.427 27.6C197.427 27.864 197.335 28.088 197.151 28.272C196.975 28.448 196.747 28.536 196.467 28.536ZM202.815 29.52C203.623 29.52 204.271 29.756 204.759 30.228C205.247 30.7 205.491 31.4 205.491 32.328V36H203.991V32.52C203.991 31.96 203.859 31.54 203.595 31.26C203.331 30.972 202.955 30.828 202.467 30.828C201.915 30.828 201.479 30.996 201.159 31.332C200.839 31.66 200.679 32.136 200.679 32.76V36H199.179V29.592H200.607V30.42C200.855 30.124 201.167 29.9 201.543 29.748C201.919 29.596 202.343 29.52 202.815 29.52ZM213.729 27.096V36H212.289V35.172C212.041 35.476 211.733 35.704 211.365 35.856C211.005 36.008 210.605 36.084 210.165 36.084C209.549 36.084 208.993 35.948 208.497 35.676C208.009 35.404 207.625 35.02 207.345 34.524C207.065 34.02 206.925 33.444 206.925 32.796C206.925 32.148 207.065 31.576 207.345 31.08C207.625 30.584 208.009 30.2 208.497 29.928C208.993 29.656 209.549 29.52 210.165 29.52C210.589 29.52 210.977 29.592 211.329 29.736C211.681 29.88 211.981 30.096 212.229 30.384V27.096H213.729ZM210.345 34.8C210.705 34.8 211.029 34.72 211.317 34.56C211.605 34.392 211.833 34.156 212.001 33.852C212.169 33.548 212.253 33.196 212.253 32.796C212.253 32.396 212.169 32.044 212.001 31.74C211.833 31.436 211.605 31.204 211.317 31.044C211.029 30.876 210.705 30.792 210.345 30.792C209.985 30.792 209.661 30.876 209.373 31.044C209.085 31.204 208.857 31.436 208.689 31.74C208.521 32.044 208.437 32.396 208.437 32.796C208.437 33.196 208.521 33.548 208.689 33.852C208.857 34.156 209.085 34.392 209.373 34.56C209.661 34.72 209.985 34.8 210.345 34.8ZM218.571 36.084C217.923 36.084 217.339 35.944 216.819 35.664C216.299 35.384 215.891 34.996 215.595 34.5C215.307 33.996 215.163 33.428 215.163 32.796C215.163 32.164 215.307 31.6 215.595 31.104C215.891 30.608 216.299 30.22 216.819 29.94C217.339 29.66 217.923 29.52 218.571 29.52C219.227 29.52 219.815 29.66 220.335 29.94C220.855 30.22 221.259 30.608 221.547 31.104C221.843 31.6 221.991 32.164 221.991 32.796C221.991 33.428 221.843 33.996 221.547 34.5C221.259 34.996 220.855 35.384 220.335 35.664C219.815 35.944 219.227 36.084 218.571 36.084ZM218.571 34.8C219.123 34.8 219.579 34.616 219.939 34.248C220.299 33.88 220.479 33.396 220.479 32.796C220.479 32.196 220.299 31.712 219.939 31.344C219.579 30.976 219.123 30.792 218.571 30.792C218.019 30.792 217.563 30.976 217.203 31.344C216.851 31.712 216.675 32.196 216.675 32.796C216.675 33.396 216.851 33.88 217.203 34.248C217.563 34.616 218.019 34.8 218.571 34.8ZM227.061 29.52C227.869 29.52 228.517 29.756 229.005 30.228C229.493 30.7 229.737 31.4 229.737 32.328V36H228.237V32.52C228.237 31.96 228.105 31.54 227.841 31.26C227.577 30.972 227.201 30.828 226.713 30.828C226.161 30.828 225.725 30.996 225.405 31.332C225.085 31.66 224.925 32.136 224.925 32.76V36H223.425V29.592H224.853V30.42C225.101 30.124 225.413 29.9 225.789 29.748C226.165 29.596 226.589 29.52 227.061 29.52ZM237.723 32.832C237.723 32.936 237.715 33.084 237.699 33.276H232.671C232.759 33.748 232.987 34.124 233.355 34.404C233.731 34.676 234.195 34.812 234.747 34.812C235.451 34.812 236.031 34.58 236.487 34.116L237.291 35.04C237.003 35.384 236.639 35.644 236.199 35.82C235.759 35.996 235.263 36.084 234.711 36.084C234.007 36.084 233.387 35.944 232.851 35.664C232.315 35.384 231.899 34.996 231.603 34.5C231.315 33.996 231.171 33.428 231.171 32.796C231.171 32.172 231.311 31.612 231.591 31.116C231.879 30.612 232.275 30.22 232.779 29.94C233.283 29.66 233.851 29.52 234.483 29.52C235.107 29.52 235.663 29.66 236.151 29.94C236.647 30.212 237.031 30.6 237.303 31.104C237.583 31.6 237.723 32.176 237.723 32.832ZM234.483 30.72C234.003 30.72 233.595 30.864 233.259 31.152C232.931 31.432 232.731 31.808 232.659 32.28H236.295C236.231 31.816 236.035 31.44 235.707 31.152C235.379 30.864 234.971 30.72 234.483 30.72ZM241.144 36.084C240.624 36.084 240.116 36.016 239.62 35.88C239.124 35.744 238.728 35.572 238.432 35.364L239.008 34.224C239.296 34.416 239.64 34.572 240.04 34.692C240.448 34.804 240.848 34.86 241.24 34.86C242.136 34.86 242.584 34.624 242.584 34.152C242.584 33.928 242.468 33.772 242.236 33.684C242.012 33.596 241.648 33.512 241.144 33.432C240.616 33.352 240.184 33.26 239.848 33.156C239.52 33.052 239.232 32.872 238.984 32.616C238.744 32.352 238.624 31.988 238.624 31.524C238.624 30.916 238.876 30.432 239.38 30.072C239.892 29.704 240.58 29.52 241.444 29.52C241.884 29.52 242.324 29.572 242.764 29.676C243.204 29.772 243.564 29.904 243.844 30.072L243.268 31.212C242.724 30.892 242.112 30.732 241.432 30.732C240.992 30.732 240.656 30.8 240.424 30.936C240.2 31.064 240.088 31.236 240.088 31.452C240.088 31.692 240.208 31.864 240.448 31.968C240.696 32.064 241.076 32.156 241.588 32.244C242.1 32.324 242.52 32.416 242.848 32.52C243.176 32.624 243.456 32.8 243.688 33.048C243.928 33.296 244.048 33.648 244.048 34.104C244.048 34.704 243.788 35.184 243.268 35.544C242.748 35.904 242.04 36.084 241.144 36.084ZM245.339 29.592H246.839V36H245.339V29.592ZM246.095 28.536C245.823 28.536 245.595 28.452 245.411 28.284C245.227 28.108 245.135 27.892 245.135 27.636C245.135 27.38 245.227 27.168 245.411 27C245.595 26.824 245.823 26.736 246.095 26.736C246.367 26.736 246.595 26.82 246.779 26.988C246.963 27.148 247.055 27.352 247.055 27.6C247.055 27.864 246.963 28.088 246.779 28.272C246.603 28.448 246.375 28.536 246.095 28.536ZM251.256 29.52C252.2 29.52 252.92 29.748 253.416 30.204C253.92 30.652 254.172 31.332 254.172 32.244V36H252.756V35.22C252.572 35.5 252.308 35.716 251.964 35.868C251.628 36.012 251.22 36.084 250.74 36.084C250.26 36.084 249.84 36.004 249.48 35.844C249.12 35.676 248.84 35.448 248.64 35.16C248.448 34.864 248.352 34.532 248.352 34.164C248.352 33.588 248.564 33.128 248.988 32.784C249.42 32.432 250.096 32.256 251.016 32.256H252.672V32.16C252.672 31.712 252.536 31.368 252.264 31.128C252 30.888 251.604 30.768 251.076 30.768C250.716 30.768 250.36 30.824 250.008 30.936C249.664 31.048 249.372 31.204 249.132 31.404L248.544 30.312C248.88 30.056 249.284 29.86 249.756 29.724C250.228 29.588 250.728 29.52 251.256 29.52ZM251.052 34.992C251.428 34.992 251.76 34.908 252.048 34.74C252.344 34.564 252.552 34.316 252.672 33.996V33.252H251.124C250.26 33.252 249.828 33.536 249.828 34.104C249.828 34.376 249.936 34.592 250.152 34.752C250.368 34.912 250.668 34.992 251.052 34.992Z" fill="white"/>
</svg>
