<svg width="111" height="158" viewBox="0 0 111 158" fill="none" xmlns="http://www.w3.org/2000/svg">
<path d="M30.0385 136.2L24.4705 153H21.1585L17.0065 140.568L12.7825 153H9.44647L3.87847 136.2H7.11847L11.2945 148.968L15.6385 136.2H18.5185L22.7665 149.04L27.0625 136.2H30.0385ZM43.3793 146.664C43.3793 146.872 43.3633 147.168 43.3313 147.552H33.2753C33.4513 148.496 33.9073 149.248 34.6433 149.808C35.3953 150.352 36.3233 150.624 37.4273 150.624C38.8353 150.624 39.9953 150.16 40.9073 149.232L42.5153 151.08C41.9393 151.768 41.2113 152.288 40.3313 152.64C39.4513 152.992 38.4593 153.168 37.3553 153.168C35.9473 153.168 34.7073 152.888 33.6353 152.328C32.5633 151.768 31.7313 150.992 31.1393 150C30.5633 148.992 30.2753 147.856 30.2753 146.592C30.2753 145.344 30.5553 144.224 31.1153 143.232C31.6913 142.224 32.4833 141.44 33.4913 140.88C34.4993 140.32 35.6353 140.04 36.8993 140.04C38.1473 140.04 39.2593 140.32 40.2353 140.88C41.2273 141.424 41.9953 142.2 42.5393 143.208C43.0993 144.2 43.3793 145.352 43.3793 146.664ZM36.8993 142.44C35.9393 142.44 35.1233 142.728 34.4513 143.304C33.7953 143.864 33.3953 144.616 33.2513 145.56H40.5233C40.3953 144.632 40.0033 143.88 39.3473 143.304C38.6913 142.728 37.8753 142.44 36.8993 142.44ZM53.365 140.04C54.613 140.04 55.725 140.312 56.701 140.856C57.693 141.4 58.469 142.168 59.029 143.16C59.589 144.152 59.869 145.296 59.869 146.592C59.869 147.888 59.589 149.04 59.029 150.048C58.469 151.04 57.693 151.808 56.701 152.352C55.725 152.896 54.613 153.168 53.365 153.168C52.485 153.168 51.677 153.016 50.941 152.712C50.221 152.408 49.613 151.952 49.117 151.344V153H46.261V135.192H49.261V141.744C49.773 141.184 50.373 140.76 51.061 140.472C51.765 140.184 52.533 140.04 53.365 140.04ZM53.029 150.6C54.133 150.6 55.037 150.232 55.741 149.496C56.461 148.76 56.821 147.792 56.821 146.592C56.821 145.392 56.461 144.424 55.741 143.688C55.037 142.952 54.133 142.584 53.029 142.584C52.309 142.584 51.661 142.752 51.085 143.088C50.509 143.408 50.053 143.872 49.717 144.48C49.381 145.088 49.213 145.792 49.213 146.592C49.213 147.392 49.381 148.096 49.717 148.704C50.053 149.312 50.509 149.784 51.085 150.12C51.661 150.44 52.309 150.6 53.029 150.6ZM62.7141 140.184H65.7141V153H62.7141V140.184ZM64.2261 138.072C63.6821 138.072 63.2261 137.904 62.8581 137.568C62.4901 137.216 62.3061 136.784 62.3061 136.272C62.3061 135.76 62.4901 135.336 62.8581 135C63.2261 134.648 63.6821 134.472 64.2261 134.472C64.7701 134.472 65.2261 134.64 65.5941 134.976C65.9621 135.296 66.1461 135.704 66.1461 136.2C66.1461 136.728 65.9621 137.176 65.5941 137.544C65.2421 137.896 64.7861 138.072 64.2261 138.072ZM76.9236 140.04C78.5396 140.04 79.8356 140.512 80.8116 141.456C81.7876 142.4 82.2756 143.8 82.2756 145.656V153H79.2756V146.04C79.2756 144.92 79.0116 144.08 78.4836 143.52C77.9556 142.944 77.2036 142.656 76.2276 142.656C75.1236 142.656 74.2516 142.992 73.6116 143.664C72.9716 144.32 72.6516 145.272 72.6516 146.52V153H69.6516V140.184H72.5076V141.84C73.0036 141.248 73.6276 140.8 74.3796 140.496C75.1316 140.192 75.9796 140.04 76.9236 140.04ZM90.9773 140.04C92.8653 140.04 94.3053 140.496 95.2973 141.408C96.3053 142.304 96.8093 143.664 96.8093 145.488V153H93.9773V151.44C93.6093 152 93.0813 152.432 92.3933 152.736C91.7213 153.024 90.9053 153.168 89.9453 153.168C88.9853 153.168 88.1453 153.008 87.4253 152.688C86.7053 152.352 86.1453 151.896 85.7453 151.32C85.3613 150.728 85.1693 150.064 85.1693 149.328C85.1693 148.176 85.5933 147.256 86.4413 146.568C87.3053 145.864 88.6573 145.512 90.4973 145.512H93.8093V145.32C93.8093 144.424 93.5373 143.736 92.9933 143.256C92.4653 142.776 91.6733 142.536 90.6173 142.536C89.8973 142.536 89.1853 142.648 88.4813 142.872C87.7933 143.096 87.2093 143.408 86.7293 143.808L85.5533 141.624C86.2253 141.112 87.0333 140.72 87.9773 140.448C88.9213 140.176 89.9213 140.04 90.9773 140.04ZM90.5693 150.984C91.3213 150.984 91.9853 150.816 92.5613 150.48C93.1533 150.128 93.5693 149.632 93.8093 148.992V147.504H90.7133C88.9853 147.504 88.1213 148.072 88.1213 149.208C88.1213 149.752 88.3373 150.184 88.7693 150.504C89.2013 150.824 89.8013 150.984 90.5693 150.984ZM103.515 142.056C104.379 140.712 105.899 140.04 108.075 140.04V142.896C107.819 142.848 107.587 142.824 107.379 142.824C106.211 142.824 105.299 143.168 104.643 143.856C103.987 144.528 103.659 145.504 103.659 146.784V153H100.659V140.184H103.515V142.056Z" fill="black"/>
<path fill-rule="evenodd" clip-rule="evenodd" d="M111 55.4711C111 86.1412 86.1534 111 55.4928 111C24.8466 111 0 86.1412 0 55.4711C0 24.8661 24.8466 0 55.4855 0C86.1534 0 111 24.8661 111 55.4711Z" fill="#9A35EA"/>
<path d="M86.7994 28H25.2006C22.8812 28 21 29.6989 21 31.7937V38.1151V62.7698V73.5158C21 75.6106 22.8812 77.3095 25.2006 77.3095H37.0994H74.9006H86.7994C89.1188 77.3095 91 75.6106 91 73.5158V62.7698V38.1151V31.7937C91 29.6989 89.1188 28 86.7994 28Z" fill="#EDEDEF"/>
<path d="M82.7951 32.4246H81.3979H30.6067H29.205C27.3832 32.4246 25.8992 33.7606 25.8992 35.41V38.5728V40.383V43.6695V58.2875V61.4503V66.7449V69.9077C25.8992 71.5571 27.3786 72.889 29.205 72.889H30.6067H38.5696H39.9668H72.0378H73.4395H81.4025H82.7996C84.626 72.889 86.1054 71.553 86.1054 69.9077V66.7449V61.4462V58.2834V43.6695V40.383V38.5728V35.41C86.1008 33.7606 84.6214 32.4246 82.7951 32.4246ZM84.0005 38.5687V40.3789V43.6695V58.2875V61.4503V66.7449V69.9077C84.0005 70.5056 83.4617 70.9963 82.7951 70.9963H81.3979H73.4349H72.0332H39.9668H38.5696H30.6067H29.205C28.5429 70.9963 27.9996 70.5097 27.9996 69.9077V66.7449V61.4462V58.2834V43.6695V40.383V38.5728V35.41C27.9996 34.8121 28.5383 34.3214 29.205 34.3214H30.6067H81.3979H82.7951C83.4571 34.3214 84.0005 34.808 84.0005 35.41V38.5687Z" fill="#F6BB00"/>
<path d="M49.3406 83L54.943 79.2063L60.5408 83V65.9285H49.3406V83Z" fill="#D24902"/>
<path d="M54.943 60.5596C50.6921 60.5596 47.2449 63.6729 47.2449 67.5119C47.2449 71.3509 50.6921 74.4642 54.943 74.4642C59.1939 74.4642 62.6457 71.3509 62.6457 67.5119C62.6457 63.6687 59.1939 60.5596 54.943 60.5596Z" fill="#D24902"/>
<path d="M54.943 63.2069C52.3085 63.2069 50.1762 65.1326 50.1762 67.5119C50.1762 69.8871 52.313 71.8169 54.943 71.8169C57.5775 71.8169 59.7098 69.8912 59.7098 67.5119C59.7098 65.1326 57.573 63.2069 54.943 63.2069Z" fill="#EDEDEF"/>
<path d="M54.943 64.5306C53.1212 64.5306 51.6418 65.8666 51.6418 67.5119C51.6418 69.1572 53.1166 70.4891 54.943 70.4891C56.7648 70.4891 58.2442 69.1572 58.2442 67.5119C58.2442 65.8666 56.7648 64.5306 54.943 64.5306Z" fill="#F6BB00"/>
</svg>
